<svg xmlns="http://www.w3.org/2000/svg" width="1672" height="941" viewBox="0 0 1672 941"><defs><filter id="shadow"><feDropShadow dx="0" dy="10" stdDeviation="18" flood-color="rgba(0,0,0,.32)"/></filter><radialGradient id="glow"><stop offset="0" stop-color="#B8E51B" stop-opacity=".22"/><stop offset="1" stop-color="#B8E51B" stop-opacity="0"/></radialGradient></defs><rect x="0" y="0" width="1672" height="941" rx="0" fill="#0E1210" stroke="none" stroke-width="1" /><rect x="0" y="0" width="220" height="941" rx="0" fill="#090D0B" stroke="none" stroke-width="1" /><circle cx="46" cy="44" r="17" fill="rgba(184,229,27,.12)" stroke="#B8E51B" stroke-width="1.4" /><circle cx="46" cy="44" r="4" fill="#B8E51B" stroke="none" stroke-width="1" /><circle cx="38" cy="36" r="2.5" fill="#B8E51B" stroke="none" stroke-width="1" /><circle cx="56" cy="37" r="2.5" fill="#B8E51B" stroke="none" stroke-width="1" /><circle cx="54" cy="53" r="2.5" fill="#B8E51B" stroke="none" stroke-width="1" /><line x1="41" y1="39" x2="44" y2="42" stroke="#B8E51B" stroke-width="1.4" stroke-linecap="round"/><line x1="49" y1="42" x2="54" y2="38" stroke="#B8E51B" stroke-width="1.4" stroke-linecap="round"/><line x1="49" y1="47" x2="53" y2="52" stroke="#B8E51B" stroke-width="1.4" stroke-linecap="round"/><text x="76" y="49" font-family="'WenQuanYi Zen Hei','Microsoft YaHei','PingFang SC','Segoe UI',sans-serif" font-size="16" font-weight="700" fill="#F4F7F4" text-anchor="start" >Agentic Web</text><circle cx="42.333333333333336" cy="116.33333333333333" r="5" stroke="#6F7B73" stroke-width="2" fill="none"/><path d="m15 15 6 6" transform="translate(34 108) scale(0.8333333333333334)" stroke="#6F7B73" stroke-width="2.4" fill="none" stroke-linecap="round" stroke-linejoin="round"/><text x="67" y="123" font-family="'WenQuanYi Zen Hei','Microsoft YaHei','PingFang SC','Segoe UI',sans-serif" font-size="14" font-weight="500" fill="#A8B3AC" text-anchor="start" >探索</text><circle cx="44" cy="166.16666666666666" r="1.9166666666666665" stroke="#6F7B73" stroke-width="2" fill="none"/><circle cx="38.166666666666664" cy="177" r="1.9166666666666665" stroke="#6F7B73" stroke-width="2" fill="none"/><circle cx="49.833333333333336" cy="177" r="1.9166666666666665" stroke="#6F7B73" stroke-width="2" fill="none"/><path d="M11 7 6 16M13 7l5 9M7 18h10" transform="translate(34 162) scale(0.8333333333333334)" stroke="#6F7B73" stroke-width="2.4" fill="none" stroke-linecap="round" stroke-linejoin="round"/><text x="67" y="177" font-family="'WenQuanYi Zen Hei','Microsoft YaHei','PingFang SC','Segoe UI',sans-serif" font-size="14" font-weight="500" fill="#A8B3AC" text-anchor="start" >项目</text><rect x="18" y="206" width="184" height="42" rx="12" fill="rgba(184,229,27,.12)" stroke="none" stroke-width="1" /><circle cx="38.166666666666664" cy="226" r="1.8333333333333335" stroke="#B8E51B" stroke-width="2" fill="none"/><circle cx="49.833333333333336" cy="220.58333333333334" r="1.8333333333333335" stroke="#B8E51B" stroke-width="2" fill="none"/><circle cx="49.833333333333336" cy="231.41666666666666" r="1.8333333333333335" stroke="#B8E51B" stroke-width="2" fill="none"/><path d="M7 11 17 6.5M7 13l10 4.5" transform="translate(34 216) scale(0.8333333333333334)" stroke="#B8E51B" stroke-width="2.4" fill="none" stroke-linecap="round" stroke-linejoin="round"/><text x="67" y="231" font-family="'WenQuanYi Zen Hei','Microsoft YaHei','PingFang SC','Segoe UI',sans-serif" font-size="14" font-weight="650" fill="#F4F7F4" text-anchor="start" >Canvas</text><rect x="18" y="214" width="3" height="26" rx="2" fill="#B8E51B" stroke="none" stroke-width="1" /><path d="M4 5h16v11H9l-5 4zM8 9h8M8 13h5" transform="translate(34 270) scale(0.8333333333333334)" stroke="#6F7B73" stroke-width="2.4" fill="none" stroke-linecap="round" stroke-linejoin="round"/><text x="67" y="285" font-family="'WenQuanYi Zen Hei','Microsoft YaHei','PingFang SC','Segoe UI',sans-serif" font-size="14" font-weight="500" fill="#A8B3AC" text-anchor="start" >讨论</text><path d="M8 5l10 7-10 7z" transform="translate(34 324) scale(0.8333333333333334)" stroke="#6F7B73" stroke-width="2.4" fill="none" stroke-linecap="round" stroke-linejoin="round"/><text x="67" y="339" font-family="'WenQuanYi Zen Hei','Microsoft YaHei','PingFang SC','Segoe UI',sans-serif" font-size="14" font-weight="500" fill="#A8B3AC" text-anchor="start" >运行与验证</text><path d="M4 5h16v14H4zM4 14h5l2 2h2l2-2h5" transform="translate(34 378) scale(0.8333333333333334)" stroke="#6F7B73" stroke-width="2.4" fill="none" stroke-linecap="round" stroke-linejoin="round"/><text x="67" y="393" font-family="'WenQuanYi Zen Hei','Microsoft YaHei','PingFang SC','Segoe UI',sans-serif" font-size="14" font-weight="500" fill="#A8B3AC" text-anchor="start" >待处理</text><path d="M12 3l8 4.5v9L12 21l-8-4.5v-9zM12 21v-9M12 12l8-4.5M12 12 4 7.5" transform="translate(34 432) scale(0.8333333333333334)" stroke="#6F7B73" stroke-width="2.4" fill="none" stroke-linecap="round" stroke-linejoin="round"/><text x="67" y="447" font-family="'WenQuanYi Zen Hei','Microsoft YaHei','PingFang SC','Segoe UI',sans-serif" font-size="14" font-weight="500" fill="#A8B3AC" text-anchor="start" >Registry</text><rect x="22" y="846" width="176" height="66" rx="16" fill="#1A201C" stroke="#252D27" stroke-width="1" /><circle cx="48" cy="879" r="17" fill="#344038" stroke="none" stroke-width="1" /><text x="48" y="884" font-family="'WenQuanYi Zen Hei','Microsoft YaHei','PingFang SC','Segoe UI',sans-serif" font-size="14" font-weight="750" fill="#F4F7F4" text-anchor="middle" >J</text><text x="75" y="875" font-family="'WenQuanYi Zen Hei','Microsoft YaHei','PingFang SC','Segoe UI',sans-serif" font-size="13" font-weight="650" fill="#F4F7F4" text-anchor="start" >Jacob</text><text x="75" y="894" font-family="'WenQuanYi Zen Hei','Microsoft YaHei','PingFang SC','Segoe UI',sans-serif" font-size="11" font-weight="400" fill="#A8B3AC" text-anchor="start" >个人空间</text><text x="258" y="57" font-family="'WenQuanYi Zen Hei','Microsoft YaHei','PingFang SC','Segoe UI',sans-serif" font-size="27" font-weight="750" fill="#F4F7F4" text-anchor="start" >Knowledge Canvas</text><text x="258" y="84" font-family="'WenQuanYi Zen Hei','Microsoft YaHei','PingFang SC','Segoe UI',sans-serif" font-size="13" font-weight="400" fill="#A8B3AC" text-anchor="start" >局部加载、语义缩放、冲突与依赖清晰可见</text><line x1="220" y1="106" x2="1672" y2="106" stroke="#252D27" stroke-width="1" stroke-linecap="round"/><rect x="1352" y="40" width="108" height="30" rx="15" fill="rgba(184,229,27,.12)" stroke="none" stroke-width="1" /><circle cx="1368" cy="55" r="4" fill="#B8E51B" stroke="none" stroke-width="1" /><text x="1379" y="60" font-family="'WenQuanYi Zen Hei','Microsoft YaHei','PingFang SC','Segoe UI',sans-serif" font-size="12" font-weight="600" fill="#B8E51B" text-anchor="start" >Local graph</text><rect x="1248" y="40" width="94" height="30" rx="15" fill="rgba(76,141,255,.12)" stroke="none" stroke-width="1" /><circle cx="1264" cy="55" r="4" fill="#4C8DFF" stroke="none" stroke-width="1" /><text x="1275" y="60" font-family="'WenQuanYi Zen Hei','Microsoft YaHei','PingFang SC','Segoe UI',sans-serif" font-size="12" font-weight="600" fill="#4C8DFF" text-anchor="start" >12 nodes</text><rect x="258" y="144" width="1114" height="688" rx="22" fill="#141916" stroke="#252D27" stroke-width="1" filter="url(#shadow)"/><line x1="280" y1="174" x2="1350" y2="174" stroke="rgba(255,255,255,.025)" stroke-width="1" stroke-linecap="round"/><line x1="280" y1="228" x2="1350" y2="228" stroke="rgba(255,255,255,.025)" stroke-width="1" stroke-linecap="round"/><line x1="280" y1="282" x2="1350" y2="282" stroke="rgba(255,255,255,.025)" stroke-width="1" stroke-linecap="round"/><line x1="280" y1="336" x2="1350" y2="336" stroke="rgba(255,255,255,.025)" stroke-width="1" stroke-linecap="round"/><line x1="280" y1="390" x2="1350" y2="390" stroke="rgba(255,255,255,.025)" stroke-width="1" stroke-linecap="round"/><line x1="280" y1="444" x2="1350" y2="444" stroke="rgba(255,255,255,.025)" stroke-width="1" stroke-linecap="round"/><line x1="280" y1="498" x2="1350" y2="498" stroke="rgba(255,255,255,.025)" stroke-width="1" stroke-linecap="round"/><line x1="280" y1="552" x2="1350" y2="552" stroke="rgba(255,255,255,.025)" stroke-width="1" stroke-linecap="round"/><line x1="280" y1="606" x2="1350" y2="606" stroke="rgba(255,255,255,.025)" stroke-width="1" stroke-linecap="round"/><line x1="280" y1="660" x2="1350" y2="660" stroke="rgba(255,255,255,.025)" stroke-width="1" stroke-linecap="round"/><line x1="280" y1="714" x2="1350" y2="714" stroke="rgba(255,255,255,.025)" stroke-width="1" stroke-linecap="round"/><line x1="280" y1="768" x2="1350" y2="768" stroke="rgba(255,255,255,.025)" stroke-width="1" stroke-linecap="round"/><line x1="290" y1="166" x2="290" y2="810" stroke="rgba(255,255,255,.025)" stroke-width="1" stroke-linecap="round"/><line x1="348" y1="166" x2="348" y2="810" stroke="rgba(255,255,255,.025)" stroke-width="1" stroke-linecap="round"/><line x1="406" y1="166" x2="406" y2="810" stroke="rgba(255,255,255,.025)" stroke-width="1" stroke-linecap="round"/><line x1="464" y1="166" x2="464" y2="810" stroke="rgba(255,255,255,.025)" stroke-width="1" stroke-linecap="round"/><line x1="522" y1="166" x2="522" y2="810" stroke="rgba(255,255,255,.025)" stroke-width="1" stroke-linecap="round"/><line x1="580" y1="166" x2="580" y2="810" stroke="rgba(255,255,255,.025)" stroke-width="1" stroke-linecap="round"/><line x1="638" y1="166" x2="638" y2="810" stroke="rgba(255,255,255,.025)" stroke-width="1" stroke-linecap="round"/><line x1="696" y1="166" x2="696" y2="810" stroke="rgba(255,255,255,.025)" stroke-width="1" stroke-linecap="round"/><line x1="754" y1="166" x2="754" y2="810" stroke="rgba(255,255,255,.025)" stroke-width="1" stroke-linecap="round"/><line x1="812" y1="166" x2="812" y2="810" stroke="rgba(255,255,255,.025)" stroke-width="1" stroke-linecap="round"/><line x1="870" y1="166" x2="870" y2="810" stroke="rgba(255,255,255,.025)" stroke-width="1" stroke-linecap="round"/><line x1="928" y1="166" x2="928" y2="810" stroke="rgba(255,255,255,.025)" stroke-width="1" stroke-linecap="round"/><line x1="986" y1="166" x2="986" y2="810" stroke="rgba(255,255,255,.025)" stroke-width="1" stroke-linecap="round"/><line x1="1044" y1="166" x2="1044" y2="810" stroke="rgba(255,255,255,.025)" stroke-width="1" stroke-linecap="round"/><line x1="1102" y1="166" x2="1102" y2="810" stroke="rgba(255,255,255,.025)" stroke-width="1" stroke-linecap="round"/><line x1="1160" y1="166" x2="1160" y2="810" stroke="rgba(255,255,255,.025)" stroke-width="1" stroke-linecap="round"/><line x1="1218" y1="166" x2="1218" y2="810" stroke="rgba(255,255,255,.025)" stroke-width="1" stroke-linecap="round"/><line x1="1276" y1="166" x2="1276" y2="810" stroke="rgba(255,255,255,.025)" stroke-width="1" stroke-linecap="round"/><path d="M814 474 C706 474, 706 318, 598 318" stroke="#B8E51B" stroke-width="2" fill="none" stroke-linecap="round" stroke-linejoin="round" /><path d="M814 474 C927 474, 927 302, 1040 302" stroke="#4C8DFF" stroke-width="2" fill="none" stroke-linecap="round" stroke-linejoin="round" /><path d="M814 474 C940 474, 940 576, 1066 576" stroke="#F05F62" stroke-width="2" fill="none" stroke-linecap="round" stroke-linejoin="round" /><path d="M814 474 C690 474, 690 612, 566 612" stroke="#F3B83F" stroke-width="2" fill="none" stroke-linecap="round" stroke-linejoin="round" /><path d="M598 318 C495 318, 495 238, 392 238" stroke="#4C8DFF" stroke-width="2" fill="none" stroke-linecap="round" stroke-linejoin="round" /><path d="M1040 302 C1130 302, 1130 220, 1220 220" stroke="#9272F8" stroke-width="2" fill="none" stroke-linecap="round" stroke-linejoin="round" stroke-dasharray="7 7"/><path d="M566 612 C479 612, 479 720, 392 720" stroke="#F3B83F" stroke-width="2" fill="none" stroke-linecap="round" stroke-linejoin="round" stroke-dasharray="7 7"/><rect x="692" y="435" width="244" height="78" rx="16" fill="#141916" stroke="#B8E51B" stroke-width="1.4" filter="url(#shadow)"/><rect x="704" y="448" width="36" height="36" rx="11" fill="#B8E51B22" stroke="none" stroke-width="1" /><circle cx="722" cy="460.1666666666667" r="1.9166666666666665" stroke="#B8E51B" stroke-width="2" fill="none"/><circle cx="716.1666666666666" cy="471" r="1.9166666666666665" stroke="#B8E51B" stroke-width="2" fill="none"/><circle cx="727.8333333333334" cy="471" r="1.9166666666666665" stroke="#B8E51B" stroke-width="2" fill="none"/><path d="M11 7 6 16M13 7l5 9M7 18h10" transform="translate(712 456) scale(0.8333333333333334)" stroke="#B8E51B" stroke-width="2.4" fill="none" stroke-linecap="round" stroke-linejoin="round"/><text x="752" y="466" font-family="'WenQuanYi Zen Hei','Microsoft YaHei','PingFang SC','Segoe UI',sans-serif" font-size="13" font-weight="650" fill="#F4F7F4" text-anchor="start" >自然插话闭环</text><text x="752" y="487" font-family="'WenQuanYi Zen Hei','Microsoft YaHei','PingFang SC','Segoe UI',sans-serif" font-size="10" font-weight="400" fill="#A8B3AC" text-anchor="start" >Problem · center</text><circle cx="919" cy="452" r="5" fill="#B8E51B" stroke="none" stroke-width="1" /><rect x="486" y="280" width="222" height="78" rx="16" fill="#141916" stroke="#B8E51B" stroke-width="1.4" filter="url(#shadow)"/><rect x="498" y="293" width="36" height="36" rx="11" fill="#B8E51B22" stroke="none" stroke-width="1" /><path d="M5 12l4 4L19 6" transform="translate(506 301) scale(0.8333333333333334)" stroke="#B8E51B" stroke-width="2.4" fill="none" stroke-linecap="round" stroke-linejoin="round"/><text x="546" y="311" font-family="'WenQuanYi Zen Hei','Microsoft YaHei','PingFang SC','Segoe UI',sans-serif" font-size="13" font-weight="650" fill="#F4F7F4" text-anchor="start" >停止延迟 &lt;200ms</text><text x="546" y="332" font-family="'WenQuanYi Zen Hei','Microsoft YaHei','PingFang SC','Segoe UI',sans-serif" font-size="10" font-weight="400" fill="#A8B3AC" text-anchor="start" >Goal · verified</text><circle cx="691" cy="297" r="5" fill="#B8E51B" stroke="none" stroke-width="1" /><rect x="930" y="264" width="232" height="78" rx="16" fill="#141916" stroke="#4C8DFF" stroke-width="1.4" filter="url(#shadow)"/><rect x="942" y="277" width="36" height="36" rx="11" fill="#4C8DFF22" stroke="none" stroke-width="1" /><path d="M4 13v-1a8 8 0 0 1 16 0v1M3 13h4v7H3zM17 13h4v7h-4z" transform="translate(950 285) scale(0.8333333333333334)" stroke="#4C8DFF" stroke-width="2.4" fill="none" stroke-linecap="round" stroke-linejoin="round"/><text x="990" y="295" font-family="'WenQuanYi Zen Hei','Microsoft YaHei','PingFang SC','Segoe UI',sans-serif" font-size="13" font-weight="650" fill="#F4F7F4" text-anchor="start" >真实音频输出</text><text x="990" y="316" font-family="'WenQuanYi Zen Hei','Microsoft YaHei','PingFang SC','Segoe UI',sans-serif" font-size="10" font-weight="400" fill="#A8B3AC" text-anchor="start" >Constraint · active</text><circle cx="1145" cy="281" r="5" fill="#4C8DFF" stroke="none" stroke-width="1" /><rect x="956" y="538" width="248" height="78" rx="16" fill="#141916" stroke="#F05F62" stroke-width="1.4" filter="url(#shadow)"/><rect x="968" y="551" width="36" height="36" rx="11" fill="#F05F6222" stroke="none" stroke-width="1" /><path d="M12 3l7 3v5c0 4.5-3 8-7 10-4-2-7-5.5-7-10V6z" transform="translate(976 559) scale(0.8333333333333334)" stroke="#F05F62" stroke-width="2.4" fill="none" stroke-linecap="round" stroke-linejoin="round"/><text x="1016" y="569" font-family="'WenQuanYi Zen Hei','Microsoft YaHei','PingFang SC','Segoe UI',sans-serif" font-size="13" font-weight="650" fill="#F4F7F4" text-anchor="start" >蓝牙输出延迟</text><text x="1016" y="590" font-family="'WenQuanYi Zen Hei','Microsoft YaHei','PingFang SC','Segoe UI',sans-serif" font-size="10" font-weight="400" fill="#A8B3AC" text-anchor="start" >Counterexample</text><circle cx="1187" cy="555" r="5" fill="#F05F62" stroke="none" stroke-width="1" /><rect x="446" y="574" width="238" height="78" rx="16" fill="#141916" stroke="#F3B83F" stroke-width="1.4" filter="url(#shadow)"/><rect x="458" y="587" width="36" height="36" rx="11" fill="#F3B83F22" stroke="none" stroke-width="1" /><path d="M8 5l10 7-10 7z" transform="translate(466 595) scale(0.8333333333333334)" stroke="#F3B83F" stroke-width="2.4" fill="none" stroke-linecap="round" stroke-linejoin="round"/><text x="506" y="605" font-family="'WenQuanYi Zen Hei','Microsoft YaHei','PingFang SC','Segoe UI',sans-serif" font-size="13" font-weight="650" fill="#F4F7F4" text-anchor="start" >本地抢占通道</text><text x="506" y="626" font-family="'WenQuanYi Zen Hei','Microsoft YaHei','PingFang SC','Segoe UI',sans-serif" font-size="10" font-weight="400" fill="#A8B3AC" text-anchor="start" >Solution · testing</text><circle cx="667" cy="591" r="5" fill="#F3B83F" stroke="none" stroke-width="1" /><rect x="300" y="200" width="220" height="78" rx="16" fill="#141916" stroke="#4C8DFF" stroke-width="1.4" filter="url(#shadow)"/><rect x="312" y="213" width="36" height="36" rx="11" fill="#4C8DFF22" stroke="none" stroke-width="1" /><path d="M6 3h9l3 3v15H6zM9 11l2 2 4-5M15 3v4h4" transform="translate(320 221) scale(0.8333333333333334)" stroke="#4C8DFF" stroke-width="2.4" fill="none" stroke-linecap="round" stroke-linejoin="round"/><text x="360" y="231" font-family="'WenQuanYi Zen Hei','Microsoft YaHei','PingFang SC','Segoe UI',sans-serif" font-size="13" font-weight="650" fill="#F4F7F4" text-anchor="start" >三次真实运行</text><text x="360" y="252" font-family="'WenQuanYi Zen Hei','Microsoft YaHei','PingFang SC','Segoe UI',sans-serif" font-size="10" font-weight="400" fill="#A8B3AC" text-anchor="start" >Evidence · fresh</text><circle cx="503" cy="217" r="5" fill="#4C8DFF" stroke="none" stroke-width="1" /><rect x="1110" y="180" width="220" height="78" rx="16" fill="#141916" stroke="#9272F8" stroke-width="1.4" filter="url(#shadow)"/><rect x="1122" y="193" width="36" height="36" rx="11" fill="#9272F822" stroke="none" stroke-width="1" /><path d="M12 3l8 4.5v9L12 21l-8-4.5v-9zM12 21v-9M12 12l8-4.5M12 12 4 7.5" transform="translate(1130 201) scale(0.8333333333333334)" stroke="#9272F8" stroke-width="2.4" fill="none" stroke-linecap="round" stroke-linejoin="round"/><text x="1170" y="211" font-family="'WenQuanYi Zen Hei','Microsoft YaHei','PingFang SC','Segoe UI',sans-serif" font-size="13" font-weight="650" fill="#F4F7F4" text-anchor="start" >Cycle 1 v0.8</text><text x="1170" y="232" font-family="'WenQuanYi Zen Hei','Microsoft YaHei','PingFang SC','Segoe UI',sans-serif" font-size="10" font-weight="400" fill="#A8B3AC" text-anchor="start" >Release</text><circle cx="1313" cy="197" r="5" fill="#9272F8" stroke="none" stroke-width="1" /><rect x="286" y="680" width="224" height="78" rx="16" fill="#141916" stroke="#F3B83F" stroke-width="1.4" filter="url(#shadow)"/><rect x="298" y="693" width="36" height="36" rx="11" fill="#F3B83F22" stroke="none" stroke-width="1" /><circle cx="311" cy="706" r="2" stroke="#F3B83F" stroke-width="2" fill="none"/><circle cx="321" cy="706" r="2" stroke="#F3B83F" stroke-width="2" fill="none"/><circle cx="316" cy="716" r="2" stroke="#F3B83F" stroke-width="2" fill="none"/><path d="M6 8.4v3a2 2 0 0 0 2 2h2.4M18 8.4v3a2 2 0 0 1-2 2h-2.4" transform="translate(306 701) scale(0.8333333333333334)" stroke="#F3B83F" stroke-width="2.4" fill="none" stroke-linecap="round" stroke-linejoin="round"/><text x="346" y="711" font-family="'WenQuanYi Zen Hei','Microsoft YaHei','PingFang SC','Segoe UI',sans-serif" font-size="13" font-weight="650" fill="#F4F7F4" text-anchor="start" >音频接口 Patch</text><text x="346" y="732" font-family="'WenQuanYi Zen Hei','Microsoft YaHei','PingFang SC','Segoe UI',sans-serif" font-size="10" font-weight="400" fill="#A8B3AC" text-anchor="start" >Patch · review</text><circle cx="493" cy="697" r="5" fill="#F3B83F" stroke="none" stroke-width="1" /><rect x="284" y="754" width="1040" height="50" rx="14" fill="rgba(0,0,0,.18)" stroke="#252D27" stroke-width="1" /><rect x="304" y="764" width="98" height="30" rx="15" fill="rgba(184,229,27,.12)" stroke="none" stroke-width="1" /><circle cx="320" cy="779" r="4" fill="#B8E51B" stroke="none" stroke-width="1" /><text x="331" y="784" font-family="'WenQuanYi Zen Hei','Microsoft YaHei','PingFang SC','Segoe UI',sans-serif" font-size="12" font-weight="600" fill="#B8E51B" text-anchor="start" >Problem</text><rect x="414" y="764" width="104" height="30" rx="15" fill="rgba(76,141,255,.12)" stroke="none" stroke-width="1" /><circle cx="430" cy="779" r="4" fill="#4C8DFF" stroke="none" stroke-width="1" /><text x="441" y="784" font-family="'WenQuanYi Zen Hei','Microsoft YaHei','PingFang SC','Segoe UI',sans-serif" font-size="12" font-weight="600" fill="#4C8DFF" text-anchor="start" >Evidence</text><rect x="530" y="764" width="102" height="30" rx="15" fill="rgba(240,95,98,.12)" stroke="none" stroke-width="1" /><circle cx="546" cy="779" r="4" fill="#F05F62" stroke="none" stroke-width="1" /><text x="557" y="784" font-family="'WenQuanYi Zen Hei','Microsoft YaHei','PingFang SC','Segoe UI',sans-serif" font-size="12" font-weight="600" fill="#F05F62" text-anchor="start" >Conflict</text><rect x="644" y="764" width="90" height="30" rx="15" fill="rgba(243,184,63,.12)" stroke="none" stroke-width="1" /><circle cx="660" cy="779" r="4" fill="#F3B83F" stroke="none" stroke-width="1" /><text x="671" y="784" font-family="'WenQuanYi Zen Hei','Microsoft YaHei','PingFang SC','Segoe UI',sans-serif" font-size="12" font-weight="600" fill="#F3B83F" text-anchor="start" >Patch</text><text x="1302" y="786" font-family="'WenQuanYi Zen Hei','Microsoft YaHei','PingFang SC','Segoe UI',sans-serif" font-size="9" font-weight="450" fill="#6F7B73" text-anchor="end" >滚轮：语义缩放 · Shift：多选 · 双击：聚焦</text></svg>