<svg xmlns="http://www.w3.org/2000/svg" viewBox="0 0 200 48"><rect x="2" y="20.5" width="4" height="7" rx="2" fill="#B8E51B"/><rect x="12" y="15" width="4" height="18" rx="2" fill="#B8E51B"/><rect x="22" y="18.5" width="4" height="11" rx="2" fill="#B8E51B"/><rect x="32" y="13" width="4" height="22" rx="2" fill="#B8E51B"/><rect x="42" y="16.5" width="4" height="15" rx="2" fill="#B8E51B"/><rect x="52" y="20" width="4" height="8" rx="2" fill="#B8E51B"/><rect x="62" y="14.5" width="4" height="19" rx="2" fill="#B8E51B"/><rect x="72" y="18" width="4" height="12" rx="2" fill="#B8E51B"/><rect x="82" y="12.5" width="4" height="23" rx="2" fill="#B8E51B"/><rect x="92" y="16" width="4" height="16" rx="2" fill="#B8E51B"/><rect x="102" y="19.5" width="4" height="9" rx="2" fill="#B8E51B"/><rect x="112" y="14" width="4" height="20" rx="2" fill="#B8E51B"/><rect x="122" y="17.5" width="4" height="13" rx="2" fill="#B8E51B"/><rect x="132" y="12" width="4" height="24" rx="2" fill="#B8E51B"/><rect x="142" y="15.5" width="4" height="17" rx="2" fill="#B8E51B"/><rect x="152" y="19" width="4" height="10" rx="2" fill="#B8E51B"/><rect x="162" y="13.5" width="4" height="21" rx="2" fill="#B8E51B"/><rect x="172" y="17" width="4" height="14" rx="2" fill="#B8E51B"/><rect x="182" y="20.5" width="4" height="7" rx="2" fill="#B8E51B"/><rect x="192" y="15" width="4" height="18" rx="2" fill="#B8E51B"/></svg>