<svg xmlns="http://www.w3.org/2000/svg" width="1672" height="941" viewBox="0 0 1672 941"><defs><filter id="shadow"><feDropShadow dx="0" dy="10" stdDeviation="18" flood-color="rgba(20,30,24,.08)"/></filter><radialGradient id="glow"><stop offset="0" stop-color="#9FD000" stop-opacity=".22"/><stop offset="1" stop-color="#9FD000" stop-opacity="0"/></radialGradient></defs><rect x="0" y="0" width="1672" height="941" rx="0" fill="#F4F6F2" stroke="none" stroke-width="1" /><rect x="0" y="0" width="220" height="941" rx="0" fill="#F8FAF7" stroke="none" stroke-width="1" /><circle cx="46" cy="44" r="17" fill="#EAF7C0" stroke="#9FD000" stroke-width="1.4" /><circle cx="46" cy="44" r="4" fill="#9FD000" stroke="none" stroke-width="1" /><circle cx="38" cy="36" r="2.5" fill="#9FD000" stroke="none" stroke-width="1" /><circle cx="56" cy="37" r="2.5" fill="#9FD000" stroke="none" stroke-width="1" /><circle cx="54" cy="53" r="2.5" fill="#9FD000" stroke="none" stroke-width="1" /><line x1="41" y1="39" x2="44" y2="42" stroke="#9FD000" stroke-width="1.4" stroke-linecap="round"/><line x1="49" y1="42" x2="54" y2="38" stroke="#9FD000" stroke-width="1.4" stroke-linecap="round"/><line x1="49" y1="47" x2="53" y2="52" stroke="#9FD000" stroke-width="1.4" stroke-linecap="round"/><text x="76" y="49" font-family="'WenQuanYi Zen Hei','Microsoft YaHei','PingFang SC','Segoe UI',sans-serif" font-size="16" font-weight="700" fill="#111714" text-anchor="start" >Agentic Web</text><rect x="18" y="98" width="184" height="42" rx="12" fill="#EAF7C0" stroke="none" stroke-width="1" /><circle cx="42.333333333333336" cy="116.33333333333333" r="5" stroke="#9FD000" stroke-width="2" fill="none"/><path d="m15 15 6 6" transform="translate(34 108) scale(0.8333333333333334)" stroke="#9FD000" stroke-width="2.4" fill="none" stroke-linecap="round" stroke-linejoin="round"/><text x="67" y="123" font-family="'WenQuanYi Zen Hei','Microsoft YaHei','PingFang SC','Segoe UI',sans-serif" font-size="14" font-weight="650" fill="#111714" text-anchor="start" >探索</text><rect x="18" y="106" width="3" height="26" rx="2" fill="#9FD000" stroke="none" stroke-width="1" /><circle cx="44" cy="166.16666666666666" r="1.9166666666666665" stroke="#A0AAA4" stroke-width="2" fill="none"/><circle cx="38.166666666666664" cy="177" r="1.9166666666666665" stroke="#A0AAA4" stroke-width="2" fill="none"/><circle cx="49.833333333333336" cy="177" r="1.9166666666666665" stroke="#A0AAA4" stroke-width="2" fill="none"/><path d="M11 7 6 16M13 7l5 9M7 18h10" transform="translate(34 162) scale(0.8333333333333334)" stroke="#A0AAA4" stroke-width="2.4" fill="none" stroke-linecap="round" stroke-linejoin="round"/><text x="67" y="177" font-family="'WenQuanYi Zen Hei','Microsoft YaHei','PingFang SC','Segoe UI',sans-serif" font-size="14" font-weight="500" fill="#627068" text-anchor="start" >项目</text><circle cx="38.166666666666664" cy="226" r="1.8333333333333335" stroke="#A0AAA4" stroke-width="2" fill="none"/><circle cx="49.833333333333336" cy="220.58333333333334" r="1.8333333333333335" stroke="#A0AAA4" stroke-width="2" fill="none"/><circle cx="49.833333333333336" cy="231.41666666666666" r="1.8333333333333335" stroke="#A0AAA4" stroke-width="2" fill="none"/><path d="M7 11 17 6.5M7 13l10 4.5" transform="translate(34 216) scale(0.8333333333333334)" stroke="#A0AAA4" stroke-width="2.4" fill="none" stroke-linecap="round" stroke-linejoin="round"/><text x="67" y="231" font-family="'WenQuanYi Zen Hei','Microsoft YaHei','PingFang SC','Segoe UI',sans-serif" font-size="14" font-weight="500" fill="#627068" text-anchor="start" >Canvas</text><path d="M4 5h16v11H9l-5 4zM8 9h8M8 13h5" transform="translate(34 270) scale(0.8333333333333334)" stroke="#A0AAA4" stroke-width="2.4" fill="none" stroke-linecap="round" stroke-linejoin="round"/><text x="67" y="285" font-family="'WenQuanYi Zen Hei','Microsoft YaHei','PingFang SC','Segoe UI',sans-serif" font-size="14" font-weight="500" fill="#627068" text-anchor="start" >讨论</text><path d="M8 5l10 7-10 7z" transform="translate(34 324) scale(0.8333333333333334)" stroke="#A0AAA4" stroke-width="2.4" fill="none" stroke-linecap="round" stroke-linejoin="round"/><text x="67" y="339" font-family="'WenQuanYi Zen Hei','Microsoft YaHei','PingFang SC','Segoe UI',sans-serif" font-size="14" font-weight="500" fill="#627068" text-anchor="start" >运行与验证</text><path d="M4 5h16v14H4zM4 14h5l2 2h2l2-2h5" transform="translate(34 378) scale(0.8333333333333334)" stroke="#A0AAA4" stroke-width="2.4" fill="none" stroke-linecap="round" stroke-linejoin="round"/><text x="67" y="393" font-family="'WenQuanYi Zen Hei','Microsoft YaHei','PingFang SC','Segoe UI',sans-serif" font-size="14" font-weight="500" fill="#627068" text-anchor="start" >待处理</text><path d="M12 3l8 4.5v9L12 21l-8-4.5v-9zM12 21v-9M12 12l8-4.5M12 12 4 7.5" transform="translate(34 432) scale(0.8333333333333334)" stroke="#A0AAA4" stroke-width="2.4" fill="none" stroke-linecap="round" stroke-linejoin="round"/><text x="67" y="447" font-family="'WenQuanYi Zen Hei','Microsoft YaHei','PingFang SC','Segoe UI',sans-serif" font-size="14" font-weight="500" fill="#627068" text-anchor="start" >Registry</text><rect x="22" y="846" width="176" height="66" rx="16" fill="#F7F9F6" stroke="#DFE4E0" stroke-width="1" /><circle cx="48" cy="879" r="17" fill="#DFE4E0" stroke="none" stroke-width="1" /><text x="48" y="884" font-family="'WenQuanYi Zen Hei','Microsoft YaHei','PingFang SC','Segoe UI',sans-serif" font-size="14" font-weight="750" fill="#111714" text-anchor="middle" >J</text><text x="75" y="875" font-family="'WenQuanYi Zen Hei','Microsoft YaHei','PingFang SC','Segoe UI',sans-serif" font-size="13" font-weight="650" fill="#111714" text-anchor="start" >Jacob</text><text x="75" y="894" font-family="'WenQuanYi Zen Hei','Microsoft YaHei','PingFang SC','Segoe UI',sans-serif" font-size="11" font-weight="400" fill="#627068" text-anchor="start" >个人空间</text><text x="258" y="57" font-family="'WenQuanYi Zen Hei','Microsoft YaHei','PingFang SC','Segoe UI',sans-serif" font-size="27" font-weight="750" fill="#111714" text-anchor="start" >探索可验证项目与能力</text><text x="258" y="84" font-family="'WenQuanYi Zen Hei','Microsoft YaHei','PingFang SC','Segoe UI',sans-serif" font-size="13" font-weight="400" fill="#627068" text-anchor="start" >按目标匹配、环境、权限风险、成功率和 Evidence 新鲜度排序</text><line x1="220" y1="106" x2="1672" y2="106" stroke="#DFE4E0" stroke-width="1" stroke-linecap="round"/><rect x="1286" y="40" width="174" height="30" rx="15" fill="#E7F0FF" stroke="none" stroke-width="1" /><circle cx="1302" cy="55" r="4" fill="#4C8DFF" stroke="none" stroke-width="1" /><text x="1313" y="60" font-family="'WenQuanYi Zen Hei','Microsoft YaHei','PingFang SC','Segoe UI',sans-serif" font-size="12" font-weight="600" fill="#4C8DFF" text-anchor="start" >No engagement ranking</text><rect x="258" y="144" width="1114" height="72" rx="18" fill="#FFFFFF" stroke="#DFE4E0" stroke-width="1" filter="url(#shadow)"/><circle cx="292" cy="177" r="6" stroke="#627068" stroke-width="2" fill="none"/><path d="m15 15 6 6" transform="translate(282 167) scale(1)" stroke="#627068" stroke-width="2" fill="none" stroke-linecap="round" stroke-linejoin="round"/><text x="324" y="187" font-family="'WenQuanYi Zen Hei','Microsoft YaHei','PingFang SC','Segoe UI',sans-serif" font-size="13" font-weight="400" fill="#A0AAA4" text-anchor="start" >搜索目标、问题、Capsule、环境或 Evidence</text><rect x="1212" y="160" width="132" height="40" rx="12" fill="#9FD000" stroke="none" stroke-width="1" /><text x="1278" y="185" font-family="'WenQuanYi Zen Hei','Microsoft YaHei','PingFang SC','Segoe UI',sans-serif" font-size="13" font-weight="650" fill="#090D0B" text-anchor="middle" >搜索</text><rect x="258" y="240" width="222" height="588" rx="20" fill="#FFFFFF" stroke="#DFE4E0" stroke-width="1" filter="url(#shadow)"/><text x="282" y="278" font-family="'WenQuanYi Zen Hei','Microsoft YaHei','PingFang SC','Segoe UI',sans-serif" font-size="14" font-weight="700" fill="#111714" text-anchor="start" >筛选</text><text x="282" y="318" font-family="'WenQuanYi Zen Hei','Microsoft YaHei','PingFang SC','Segoe UI',sans-serif" font-size="11" font-weight="600" fill="#111714" text-anchor="start" >适用环境</text><rect x="282" y="332" width="174" height="30" rx="8" fill="#F7F9F6" stroke="#DFE4E0" stroke-width="1" /><text x="296" y="352" font-family="'WenQuanYi Zen Hei','Microsoft YaHei','PingFang SC','Segoe UI',sans-serif" font-size="10" font-weight="400" fill="#627068" text-anchor="start" >全部</text><text x="282" y="386" font-family="'WenQuanYi Zen Hei','Microsoft YaHei','PingFang SC','Segoe UI',sans-serif" font-size="11" font-weight="600" fill="#111714" text-anchor="start" >权限风险</text><rect x="282" y="400" width="174" height="30" rx="8" fill="#F7F9F6" stroke="#DFE4E0" stroke-width="1" /><text x="296" y="420" font-family="'WenQuanYi Zen Hei','Microsoft YaHei','PingFang SC','Segoe UI',sans-serif" font-size="10" font-weight="400" fill="#627068" text-anchor="start" >低风险</text><text x="282" y="454" font-family="'WenQuanYi Zen Hei','Microsoft YaHei','PingFang SC','Segoe UI',sans-serif" font-size="11" font-weight="600" fill="#111714" text-anchor="start" >验证状态</text><rect x="282" y="468" width="174" height="30" rx="8" fill="#F7F9F6" stroke="#DFE4E0" stroke-width="1" /><text x="296" y="488" font-family="'WenQuanYi Zen Hei','Microsoft YaHei','PingFang SC','Segoe UI',sans-serif" font-size="10" font-weight="400" fill="#627068" text-anchor="start" >已验证</text><text x="282" y="522" font-family="'WenQuanYi Zen Hei','Microsoft YaHei','PingFang SC','Segoe UI',sans-serif" font-size="11" font-weight="600" fill="#111714" text-anchor="start" >维护状态</text><rect x="282" y="536" width="174" height="30" rx="8" fill="#F7F9F6" stroke="#DFE4E0" stroke-width="1" /><text x="296" y="556" font-family="'WenQuanYi Zen Hei','Microsoft YaHei','PingFang SC','Segoe UI',sans-serif" font-size="10" font-weight="400" fill="#627068" text-anchor="start" >全部</text><text x="282" y="590" font-family="'WenQuanYi Zen Hei','Microsoft YaHei','PingFang SC','Segoe UI',sans-serif" font-size="11" font-weight="600" fill="#111714" text-anchor="start" >Evidence 新鲜度</text><rect x="282" y="604" width="174" height="30" rx="8" fill="#F7F9F6" stroke="#DFE4E0" stroke-width="1" /><text x="296" y="624" font-family="'WenQuanYi Zen Hei','Microsoft YaHei','PingFang SC','Segoe UI',sans-serif" font-size="10" font-weight="400" fill="#627068" text-anchor="start" >全部</text><text x="282" y="658" font-family="'WenQuanYi Zen Hei','Microsoft YaHei','PingFang SC','Segoe UI',sans-serif" font-size="11" font-weight="600" fill="#111714" text-anchor="start" >Project 类型</text><rect x="282" y="672" width="174" height="30" rx="8" fill="#F7F9F6" stroke="#DFE4E0" stroke-width="1" /><text x="296" y="692" font-family="'WenQuanYi Zen Hei','Microsoft YaHei','PingFang SC','Segoe UI',sans-serif" font-size="10" font-weight="400" fill="#627068" text-anchor="start" >全部</text><rect x="506" y="240" width="866" height="588" rx="20" fill="#FFFFFF" stroke="#DFE4E0" stroke-width="1" filter="url(#shadow)"/><text x="532" y="278" font-family="'WenQuanYi Zen Hei','Microsoft YaHei','PingFang SC','Segoe UI',sans-serif" font-size="14" font-weight="700" fill="#111714" text-anchor="start" >与“带来源研究”最相关</text><rect x="532" y="312" width="814" height="96" rx="15" fill="#F7F9F6" stroke="#DFE4E0" stroke-width="1" /><rect x="552" y="332" width="50" height="50" rx="14" fill="#EAF7C0" stroke="none" stroke-width="1" /><path d="M12 3l8 4.5v9L12 21l-8-4.5v-9zM12 21v-9M12 12l8-4.5M12 12 4 7.5" transform="translate(565 345) scale(1)" stroke="#9FD000" stroke-width="2" fill="none" stroke-linecap="round" stroke-linejoin="round"/><text x="620" y="346" font-family="'WenQuanYi Zen Hei','Microsoft YaHei','PingFang SC','Segoe UI',sans-serif" font-size="13" font-weight="700" fill="#111714" text-anchor="start" >Research Sources Capsule</text><text x="620" y="370" font-family="'WenQuanYi Zen Hei','Microsoft YaHei','PingFang SC','Segoe UI',sans-serif" font-size="10" font-weight="400" fill="#627068" text-anchor="start" >94% 任务匹配 · 87% 成功率</text><rect x="1138" y="330" width="112" height="30" rx="15" fill="#EAF7C0" stroke="none" stroke-width="1" /><circle cx="1154" cy="345" r="4" fill="#425700" stroke="none" stroke-width="1" /><text x="1165" y="350" font-family="'WenQuanYi Zen Hei','Microsoft YaHei','PingFang SC','Segoe UI',sans-serif" font-size="12" font-weight="600" fill="#425700" text-anchor="start" >Capsule</text><text x="1324" y="384" font-family="'WenQuanYi Zen Hei','Microsoft YaHei','PingFang SC','Segoe UI',sans-serif" font-size="9" font-weight="500" fill="#A0AAA4" text-anchor="end" >Prototype / BrowserView</text><rect x="532" y="430" width="814" height="96" rx="15" fill="#F7F9F6" stroke="#DFE4E0" stroke-width="1" /><rect x="552" y="450" width="50" height="50" rx="14" fill="#E7F0FF" stroke="none" stroke-width="1" /><circle cx="577" cy="468" r="2.3" stroke="#4C8DFF" stroke-width="2" fill="none"/><circle cx="570" cy="481" r="2.3" stroke="#4C8DFF" stroke-width="2" fill="none"/><circle cx="584" cy="481" r="2.3" stroke="#4C8DFF" stroke-width="2" fill="none"/><path d="M11 7 6 16M13 7l5 9M7 18h10" transform="translate(565 463) scale(1)" stroke="#4C8DFF" stroke-width="2" fill="none" stroke-linecap="round" stroke-linejoin="round"/><text x="620" y="464" font-family="'WenQuanYi Zen Hei','Microsoft YaHei','PingFang SC','Segoe UI',sans-serif" font-size="13" font-weight="700" fill="#111714" text-anchor="start" >可信来源整理方法</text><text x="620" y="488" font-family="'WenQuanYi Zen Hei','Microsoft YaHei','PingFang SC','Segoe UI',sans-serif" font-size="10" font-weight="400" fill="#627068" text-anchor="start" >12 条 Evidence · 3 个维护者</text><rect x="1138" y="448" width="112" height="30" rx="15" fill="#E7F0FF" stroke="none" stroke-width="1" /><circle cx="1154" cy="463" r="4" fill="#4C8DFF" stroke="none" stroke-width="1" /><text x="1165" y="468" font-family="'WenQuanYi Zen Hei','Microsoft YaHei','PingFang SC','Segoe UI',sans-serif" font-size="12" font-weight="600" fill="#4C8DFF" text-anchor="start" >Living Project</text><text x="1324" y="502" font-family="'WenQuanYi Zen Hei','Microsoft YaHei','PingFang SC','Segoe UI',sans-serif" font-size="9" font-weight="500" fill="#A0AAA4" text-anchor="end" >文档 / 本地</text><rect x="532" y="548" width="814" height="96" rx="15" fill="#F7F9F6" stroke="#DFE4E0" stroke-width="1" /><rect x="552" y="568" width="50" height="50" rx="14" fill="#FFF2CF" stroke="none" stroke-width="1" /><circle cx="577" cy="586" r="2.3" stroke="#F3B83F" stroke-width="2" fill="none"/><circle cx="570" cy="599" r="2.3" stroke="#F3B83F" stroke-width="2" fill="none"/><circle cx="584" cy="599" r="2.3" stroke="#F3B83F" stroke-width="2" fill="none"/><path d="M11 7 6 16M13 7l5 9M7 18h10" transform="translate(565 581) scale(1)" stroke="#F3B83F" stroke-width="2" fill="none" stroke-linecap="round" stroke-linejoin="round"/><text x="620" y="582" font-family="'WenQuanYi Zen Hei','Microsoft YaHei','PingFang SC','Segoe UI',sans-serif" font-size="13" font-weight="700" fill="#111714" text-anchor="start" >高校课程资料验证</text><text x="620" y="606" font-family="'WenQuanYi Zen Hei','Microsoft YaHei','PingFang SC','Segoe UI',sans-serif" font-size="10" font-weight="400" fill="#627068" text-anchor="start" >最近 2 天验证 · 低权限</text><rect x="1138" y="566" width="112" height="30" rx="15" fill="#FFF2CF" stroke="none" stroke-width="1" /><circle cx="1154" cy="581" r="4" fill="#F3B83F" stroke="none" stroke-width="1" /><text x="1165" y="586" font-family="'WenQuanYi Zen Hei','Microsoft YaHei','PingFang SC','Segoe UI',sans-serif" font-size="12" font-weight="600" fill="#F3B83F" text-anchor="start" >Project</text><text x="1324" y="620" font-family="'WenQuanYi Zen Hei','Microsoft YaHei','PingFang SC','Segoe UI',sans-serif" font-size="9" font-weight="500" fill="#A0AAA4" text-anchor="end" >Class private</text><rect x="532" y="666" width="814" height="96" rx="15" fill="#F7F9F6" stroke="#DFE4E0" stroke-width="1" /><rect x="552" y="686" width="50" height="50" rx="14" fill="#E7F0FF" stroke="none" stroke-width="1" /><path d="M8 5l10 7-10 7z" transform="translate(565 699) scale(1)" stroke="#4C8DFF" stroke-width="2" fill="none" stroke-linecap="round" stroke-linejoin="round"/><text x="620" y="700" font-family="'WenQuanYi Zen Hei','Microsoft YaHei','PingFang SC','Segoe UI',sans-serif" font-size="13" font-weight="700" fill="#111714" text-anchor="start" >网页研究 Golden Test</text><text x="620" y="724" font-family="'WenQuanYi Zen Hei','Microsoft YaHei','PingFang SC','Segoe UI',sans-serif" font-size="10" font-weight="400" fill="#627068" text-anchor="start" >适用于只读 BrowserView</text><rect x="1138" y="684" width="112" height="30" rx="15" fill="#E7F0FF" stroke="none" stroke-width="1" /><circle cx="1154" cy="699" r="4" fill="#4C8DFF" stroke="none" stroke-width="1" /><text x="1165" y="704" font-family="'WenQuanYi Zen Hei','Microsoft YaHei','PingFang SC','Segoe UI',sans-serif" font-size="12" font-weight="600" fill="#4C8DFF" text-anchor="start" >Evaluator</text><text x="1324" y="738" font-family="'WenQuanYi Zen Hei','Microsoft YaHei','PingFang SC','Segoe UI',sans-serif" font-size="9" font-weight="500" fill="#A0AAA4" text-anchor="end" >No network write</text></svg>