<svg xmlns="http://www.w3.org/2000/svg" width="1672" height="941" viewBox="0 0 1672 941"><defs><filter id="shadow"><feDropShadow dx="0" dy="10" stdDeviation="18" flood-color="rgba(20,30,24,.08)"/></filter><radialGradient id="glow"><stop offset="0" stop-color="#9FD000" stop-opacity=".22"/><stop offset="1" stop-color="#9FD000" stop-opacity="0"/></radialGradient></defs><rect x="0" y="0" width="1672" height="941" rx="0" fill="#F4F6F2" stroke="none" stroke-width="1" /><rect x="0" y="0" width="220" height="941" rx="0" fill="#F8FAF7" stroke="none" stroke-width="1" /><circle cx="46" cy="44" r="17" fill="#EAF7C0" stroke="#9FD000" stroke-width="1.4" /><circle cx="46" cy="44" r="4" fill="#9FD000" stroke="none" stroke-width="1" /><circle cx="38" cy="36" r="2.5" fill="#9FD000" stroke="none" stroke-width="1" /><circle cx="56" cy="37" r="2.5" fill="#9FD000" stroke="none" stroke-width="1" /><circle cx="54" cy="53" r="2.5" fill="#9FD000" stroke="none" stroke-width="1" /><line x1="41" y1="39" x2="44" y2="42" stroke="#9FD000" stroke-width="1.4" stroke-linecap="round"/><line x1="49" y1="42" x2="54" y2="38" stroke="#9FD000" stroke-width="1.4" stroke-linecap="round"/><line x1="49" y1="47" x2="53" y2="52" stroke="#9FD000" stroke-width="1.4" stroke-linecap="round"/><text x="76" y="49" font-family="'WenQuanYi Zen Hei','Microsoft YaHei','PingFang SC','Segoe UI',sans-serif" font-size="16" font-weight="700" fill="#111714" text-anchor="start" >Agentic Web</text><circle cx="42.333333333333336" cy="116.33333333333333" r="5" stroke="#A0AAA4" stroke-width="2" fill="none"/><path d="m15 15 6 6" transform="translate(34 108) scale(0.8333333333333334)" stroke="#A0AAA4" stroke-width="2.4" fill="none" stroke-linecap="round" stroke-linejoin="round"/><text x="67" y="123" font-family="'WenQuanYi Zen Hei','Microsoft YaHei','PingFang SC','Segoe UI',sans-serif" font-size="14" font-weight="500" fill="#627068" text-anchor="start" >探索</text><circle cx="44" cy="166.16666666666666" r="1.9166666666666665" stroke="#A0AAA4" stroke-width="2" fill="none"/><circle cx="38.166666666666664" cy="177" r="1.9166666666666665" stroke="#A0AAA4" stroke-width="2" fill="none"/><circle cx="49.833333333333336" cy="177" r="1.9166666666666665" stroke="#A0AAA4" stroke-width="2" fill="none"/><path d="M11 7 6 16M13 7l5 9M7 18h10" transform="translate(34 162) scale(0.8333333333333334)" stroke="#A0AAA4" stroke-width="2.4" fill="none" stroke-linecap="round" stroke-linejoin="round"/><text x="67" y="177" font-family="'WenQuanYi Zen Hei','Microsoft YaHei','PingFang SC','Segoe UI',sans-serif" font-size="14" font-weight="500" fill="#627068" text-anchor="start" >项目</text><circle cx="38.166666666666664" cy="226" r="1.8333333333333335" stroke="#A0AAA4" stroke-width="2" fill="none"/><circle cx="49.833333333333336" cy="220.58333333333334" r="1.8333333333333335" stroke="#A0AAA4" stroke-width="2" fill="none"/><circle cx="49.833333333333336" cy="231.41666666666666" r="1.8333333333333335" stroke="#A0AAA4" stroke-width="2" fill="none"/><path d="M7 11 17 6.5M7 13l10 4.5" transform="translate(34 216) scale(0.8333333333333334)" stroke="#A0AAA4" stroke-width="2.4" fill="none" stroke-linecap="round" stroke-linejoin="round"/><text x="67" y="231" font-family="'WenQuanYi Zen Hei','Microsoft YaHei','PingFang SC','Segoe UI',sans-serif" font-size="14" font-weight="500" fill="#627068" text-anchor="start" >Canvas</text><path d="M4 5h16v11H9l-5 4zM8 9h8M8 13h5" transform="translate(34 270) scale(0.8333333333333334)" stroke="#A0AAA4" stroke-width="2.4" fill="none" stroke-linecap="round" stroke-linejoin="round"/><text x="67" y="285" font-family="'WenQuanYi Zen Hei','Microsoft YaHei','PingFang SC','Segoe UI',sans-serif" font-size="14" font-weight="500" fill="#627068" text-anchor="start" >讨论</text><path d="M8 5l10 7-10 7z" transform="translate(34 324) scale(0.8333333333333334)" stroke="#A0AAA4" stroke-width="2.4" fill="none" stroke-linecap="round" stroke-linejoin="round"/><text x="67" y="339" font-family="'WenQuanYi Zen Hei','Microsoft YaHei','PingFang SC','Segoe UI',sans-serif" font-size="14" font-weight="500" fill="#627068" text-anchor="start" >运行与验证</text><rect x="18" y="368" width="184" height="42" rx="12" fill="#EAF7C0" stroke="none" stroke-width="1" /><path d="M4 5h16v14H4zM4 14h5l2 2h2l2-2h5" transform="translate(34 378) scale(0.8333333333333334)" stroke="#9FD000" stroke-width="2.4" fill="none" stroke-linecap="round" stroke-linejoin="round"/><text x="67" y="393" font-family="'WenQuanYi Zen Hei','Microsoft YaHei','PingFang SC','Segoe UI',sans-serif" font-size="14" font-weight="650" fill="#111714" text-anchor="start" >待处理</text><rect x="18" y="376" width="3" height="26" rx="2" fill="#9FD000" stroke="none" stroke-width="1" /><path d="M12 3l8 4.5v9L12 21l-8-4.5v-9zM12 21v-9M12 12l8-4.5M12 12 4 7.5" transform="translate(34 432) scale(0.8333333333333334)" stroke="#A0AAA4" stroke-width="2.4" fill="none" stroke-linecap="round" stroke-linejoin="round"/><text x="67" y="447" font-family="'WenQuanYi Zen Hei','Microsoft YaHei','PingFang SC','Segoe UI',sans-serif" font-size="14" font-weight="500" fill="#627068" text-anchor="start" >Registry</text><rect x="22" y="846" width="176" height="66" rx="16" fill="#F7F9F6" stroke="#DFE4E0" stroke-width="1" /><circle cx="48" cy="879" r="17" fill="#DFE4E0" stroke="none" stroke-width="1" /><text x="48" y="884" font-family="'WenQuanYi Zen Hei','Microsoft YaHei','PingFang SC','Segoe UI',sans-serif" font-size="14" font-weight="750" fill="#111714" text-anchor="middle" >J</text><text x="75" y="875" font-family="'WenQuanYi Zen Hei','Microsoft YaHei','PingFang SC','Segoe UI',sans-serif" font-size="13" font-weight="650" fill="#111714" text-anchor="start" >Jacob</text><text x="75" y="894" font-family="'WenQuanYi Zen Hei','Microsoft YaHei','PingFang SC','Segoe UI',sans-serif" font-size="11" font-weight="400" fill="#627068" text-anchor="start" >个人空间</text><text x="258" y="57" font-family="'WenQuanYi Zen Hei','Microsoft YaHei','PingFang SC','Segoe UI',sans-serif" font-size="27" font-weight="750" fill="#111714" text-anchor="start" >待处理</text><text x="258" y="84" font-family="'WenQuanYi Zen Hei','Microsoft YaHei','PingFang SC','Segoe UI',sans-serif" font-size="13" font-weight="400" fill="#627068" text-anchor="start" >只显示需要你做决定或需要重新关注的事项</text><line x1="220" y1="106" x2="1672" y2="106" stroke="#DFE4E0" stroke-width="1" stroke-linecap="round"/><rect x="1372" y="40" width="88" height="30" rx="15" fill="#FFF2CF" stroke="none" stroke-width="1" /><circle cx="1388" cy="55" r="4" fill="#F3B83F" stroke="none" stroke-width="1" /><text x="1399" y="60" font-family="'WenQuanYi Zen Hei','Microsoft YaHei','PingFang SC','Segoe UI',sans-serif" font-size="12" font-weight="600" fill="#F3B83F" text-anchor="start" >6 items</text><text x="258" y="170" font-family="'WenQuanYi Zen Hei','Microsoft YaHei','PingFang SC','Segoe UI',sans-serif" font-size="14" font-weight="700" fill="#111714" text-anchor="start" >需要确认</text><rect x="258" y="192" width="1114" height="84" rx="16" fill="#FFFFFF" stroke="#DFE4E0" stroke-width="1" filter="url(#shadow)"/><circle cx="292" cy="234" r="18" fill="#FFF2CF" stroke="none" stroke-width="1" /><path d="M9 5v14M15 5v14" transform="translate(282 224) scale(0.8333333333333334)" stroke="#F3B83F" stroke-width="2.4" fill="none" stroke-linecap="round" stroke-linejoin="round"/><text x="330" y="228" font-family="'WenQuanYi Zen Hei','Microsoft YaHei','PingFang SC','Segoe UI',sans-serif" font-size="13" font-weight="650" fill="#111714" text-anchor="start" >预算工作流等待写入确认</text><text x="330" y="251" font-family="'WenQuanYi Zen Hei','Microsoft YaHei','PingFang SC','Segoe UI',sans-serif" font-size="10" font-weight="400" fill="#627068" text-anchor="start" >Task · 5 分钟前</text><rect x="1218" y="214" width="118" height="40" rx="12" fill="#9FD000" stroke="none" stroke-width="1" /><text x="1277" y="239" font-family="'WenQuanYi Zen Hei','Microsoft YaHei','PingFang SC','Segoe UI',sans-serif" font-size="13" font-weight="650" fill="#090D0B" text-anchor="middle" >查看</text><rect x="258" y="290" width="1114" height="84" rx="16" fill="#FFFFFF" stroke="#DFE4E0" stroke-width="1" filter="url(#shadow)"/><circle cx="292" cy="332" r="18" fill="#FFE4E4" stroke="none" stroke-width="1" /><path d="M12 3l7 3v5c0 4.5-3 8-7 10-4-2-7-5.5-7-10V6z" transform="translate(282 322) scale(0.8333333333333334)" stroke="#F05F62" stroke-width="2.4" fill="none" stroke-linecap="round" stroke-linejoin="round"/><text x="330" y="326" font-family="'WenQuanYi Zen Hei','Microsoft YaHei','PingFang SC','Segoe UI',sans-serif" font-size="13" font-weight="650" fill="#111714" text-anchor="start" >Prototype 环境请求网络权限</text><text x="330" y="349" font-family="'WenQuanYi Zen Hei','Microsoft YaHei','PingFang SC','Segoe UI',sans-serif" font-size="10" font-weight="400" fill="#627068" text-anchor="start" >Run · 18 分钟前</text><rect x="1218" y="312" width="118" height="40" rx="12" fill="#9FD000" stroke="none" stroke-width="1" /><text x="1277" y="337" font-family="'WenQuanYi Zen Hei','Microsoft YaHei','PingFang SC','Segoe UI',sans-serif" font-size="13" font-weight="650" fill="#090D0B" text-anchor="middle" >查看</text><text x="258" y="430" font-family="'WenQuanYi Zen Hei','Microsoft YaHei','PingFang SC','Segoe UI',sans-serif" font-size="14" font-weight="700" fill="#111714" text-anchor="start" >项目协作</text><rect x="258" y="452" width="1114" height="84" rx="16" fill="#FFFFFF" stroke="#DFE4E0" stroke-width="1" filter="url(#shadow)"/><circle cx="292" cy="494" r="18" fill="#E7F0FF" stroke="none" stroke-width="1" /><circle cx="292" cy="488.1666666666667" r="1.9166666666666665" stroke="#4C8DFF" stroke-width="2" fill="none"/><circle cx="286.1666666666667" cy="499" r="1.9166666666666665" stroke="#4C8DFF" stroke-width="2" fill="none"/><circle cx="297.8333333333333" cy="499" r="1.9166666666666665" stroke="#4C8DFF" stroke-width="2" fill="none"/><path d="M11 7 6 16M13 7l5 9M7 18h10" transform="translate(282 484) scale(0.8333333333333334)" stroke="#4C8DFF" stroke-width="2.4" fill="none" stroke-linecap="round" stroke-linejoin="round"/><text x="330" y="488" font-family="'WenQuanYi Zen Hei','Microsoft YaHei','PingFang SC','Segoe UI',sans-serif" font-size="13" font-weight="650" fill="#111714" text-anchor="start" >Project 收到 Patch #18</text><text x="330" y="511" font-family="'WenQuanYi Zen Hei','Microsoft YaHei','PingFang SC','Segoe UI',sans-serif" font-size="10" font-weight="400" fill="#627068" text-anchor="start" >Review · 1 小时前</text><rect x="1218" y="474" width="118" height="40" rx="12" fill="#F7F9F6" stroke="#DFE4E0" stroke-width="1" /><text x="1277" y="499" font-family="'WenQuanYi Zen Hei','Microsoft YaHei','PingFang SC','Segoe UI',sans-serif" font-size="13" font-weight="650" fill="#111714" text-anchor="middle" >查看</text><rect x="258" y="550" width="1114" height="84" rx="16" fill="#FFFFFF" stroke="#DFE4E0" stroke-width="1" filter="url(#shadow)"/><circle cx="292" cy="592" r="18" fill="#EAF7C0" stroke="none" stroke-width="1" /><path d="M5 12l4 4L19 6" transform="translate(282 582) scale(0.8333333333333334)" stroke="#9FD000" stroke-width="2.4" fill="none" stroke-linecap="round" stroke-linejoin="round"/><text x="330" y="586" font-family="'WenQuanYi Zen Hei','Microsoft YaHei','PingFang SC','Segoe UI',sans-serif" font-size="13" font-weight="650" fill="#111714" text-anchor="start" >中文插话分支等待合并</text><text x="330" y="609" font-family="'WenQuanYi Zen Hei','Microsoft YaHei','PingFang SC','Segoe UI',sans-serif" font-size="10" font-weight="400" fill="#627068" text-anchor="start" >Branch · 今天 11:26</text><rect x="1218" y="572" width="118" height="40" rx="12" fill="#F7F9F6" stroke="#DFE4E0" stroke-width="1" /><text x="1277" y="597" font-family="'WenQuanYi Zen Hei','Microsoft YaHei','PingFang SC','Segoe UI',sans-serif" font-size="13" font-weight="650" fill="#111714" text-anchor="middle" >查看</text><text x="258" y="690" font-family="'WenQuanYi Zen Hei','Microsoft YaHei','PingFang SC','Segoe UI',sans-serif" font-size="14" font-weight="700" fill="#111714" text-anchor="start" >环境与依赖</text><rect x="258" y="712" width="1114" height="84" rx="16" fill="#FFFFFF" stroke="#DFE4E0" stroke-width="1" filter="url(#shadow)"/><circle cx="292" cy="754" r="18" fill="#FFE4E4" stroke="none" stroke-width="1" /><path d="M12 3l7 3v5c0 4.5-3 8-7 10-4-2-7-5.5-7-10V6z" transform="translate(282 744) scale(0.8333333333333334)" stroke="#F05F62" stroke-width="2.4" fill="none" stroke-linecap="round" stroke-linejoin="round"/><text x="330" y="748" font-family="'WenQuanYi Zen Hei','Microsoft YaHei','PingFang SC','Segoe UI',sans-serif" font-size="13" font-weight="650" fill="#111714" text-anchor="start" >Capsule 在 Windows 环境失败</text><text x="330" y="771" font-family="'WenQuanYi Zen Hei','Microsoft YaHei','PingFang SC','Segoe UI',sans-serif" font-size="10" font-weight="400" fill="#627068" text-anchor="start" >Failure · 昨天</text><rect x="1218" y="734" width="118" height="40" rx="12" fill="#9FD000" stroke="none" stroke-width="1" /><text x="1277" y="759" font-family="'WenQuanYi Zen Hei','Microsoft YaHei','PingFang SC','Segoe UI',sans-serif" font-size="13" font-weight="650" fill="#090D0B" text-anchor="middle" >查看</text><rect x="258" y="810" width="1114" height="84" rx="16" fill="#FFFFFF" stroke="#DFE4E0" stroke-width="1" filter="url(#shadow)"/><circle cx="292" cy="852" r="18" fill="#FFF2CF" stroke="none" stroke-width="1" /><path d="M9 5v14M15 5v14" transform="translate(282 842) scale(0.8333333333333334)" stroke="#F3B83F" stroke-width="2.4" fill="none" stroke-linecap="round" stroke-linejoin="round"/><text x="330" y="846" font-family="'WenQuanYi Zen Hei','Microsoft YaHei','PingFang SC','Segoe UI',sans-serif" font-size="13" font-weight="650" fill="#111714" text-anchor="start" >验证环境将在 42 分钟后过期</text><text x="330" y="869" font-family="'WenQuanYi Zen Hei','Microsoft YaHei','PingFang SC','Segoe UI',sans-serif" font-size="10" font-weight="400" fill="#627068" text-anchor="start" >Environment · 现在</text><rect x="1218" y="832" width="118" height="40" rx="12" fill="#9FD000" stroke="none" stroke-width="1" /><text x="1277" y="857" font-family="'WenQuanYi Zen Hei','Microsoft YaHei','PingFang SC','Segoe UI',sans-serif" font-size="13" font-weight="650" fill="#090D0B" text-anchor="middle" >查看</text></svg>