<svg xmlns="http://www.w3.org/2000/svg" width="1672" height="941" viewBox="0 0 1672 941"><defs><filter id="shadow"><feDropShadow dx="0" dy="10" stdDeviation="18" flood-color="rgba(0,0,0,.32)"/></filter><radialGradient id="glow"><stop offset="0" stop-color="#B8E51B" stop-opacity=".22"/><stop offset="1" stop-color="#B8E51B" stop-opacity="0"/></radialGradient></defs><rect x="0" y="0" width="1672" height="941" rx="0" fill="#0E1210" stroke="none" stroke-width="1" /><rect x="0" y="0" width="220" height="941" rx="0" fill="#090D0B" stroke="none" stroke-width="1" /><circle cx="46" cy="44" r="17" fill="rgba(184,229,27,.12)" stroke="#B8E51B" stroke-width="1.4" /><circle cx="46" cy="44" r="4" fill="#B8E51B" stroke="none" stroke-width="1" /><circle cx="38" cy="36" r="2.5" fill="#B8E51B" stroke="none" stroke-width="1" /><circle cx="56" cy="37" r="2.5" fill="#B8E51B" stroke="none" stroke-width="1" /><circle cx="54" cy="53" r="2.5" fill="#B8E51B" stroke="none" stroke-width="1" /><line x1="41" y1="39" x2="44" y2="42" stroke="#B8E51B" stroke-width="1.4" stroke-linecap="round"/><line x1="49" y1="42" x2="54" y2="38" stroke="#B8E51B" stroke-width="1.4" stroke-linecap="round"/><line x1="49" y1="47" x2="53" y2="52" stroke="#B8E51B" stroke-width="1.4" stroke-linecap="round"/><text x="76" y="49" font-family="'WenQuanYi Zen Hei','Microsoft YaHei','PingFang SC','Segoe UI',sans-serif" font-size="16" font-weight="700" fill="#F4F7F4" text-anchor="start" >Agentic Web</text><circle cx="42.333333333333336" cy="116.33333333333333" r="5" stroke="#6F7B73" stroke-width="2" fill="none"/><path d="m15 15 6 6" transform="translate(34 108) scale(0.8333333333333334)" stroke="#6F7B73" stroke-width="2.4" fill="none" stroke-linecap="round" stroke-linejoin="round"/><text x="67" y="123" font-family="'WenQuanYi Zen Hei','Microsoft YaHei','PingFang SC','Segoe UI',sans-serif" font-size="14" font-weight="500" fill="#A8B3AC" text-anchor="start" >探索</text><circle cx="44" cy="166.16666666666666" r="1.9166666666666665" stroke="#6F7B73" stroke-width="2" fill="none"/><circle cx="38.166666666666664" cy="177" r="1.9166666666666665" stroke="#6F7B73" stroke-width="2" fill="none"/><circle cx="49.833333333333336" cy="177" r="1.9166666666666665" stroke="#6F7B73" stroke-width="2" fill="none"/><path d="M11 7 6 16M13 7l5 9M7 18h10" transform="translate(34 162) scale(0.8333333333333334)" stroke="#6F7B73" stroke-width="2.4" fill="none" stroke-linecap="round" stroke-linejoin="round"/><text x="67" y="177" font-family="'WenQuanYi Zen Hei','Microsoft YaHei','PingFang SC','Segoe UI',sans-serif" font-size="14" font-weight="500" fill="#A8B3AC" text-anchor="start" >项目</text><circle cx="38.166666666666664" cy="226" r="1.8333333333333335" stroke="#6F7B73" stroke-width="2" fill="none"/><circle cx="49.833333333333336" cy="220.58333333333334" r="1.8333333333333335" stroke="#6F7B73" stroke-width="2" fill="none"/><circle cx="49.833333333333336" cy="231.41666666666666" r="1.8333333333333335" stroke="#6F7B73" stroke-width="2" fill="none"/><path d="M7 11 17 6.5M7 13l10 4.5" transform="translate(34 216) scale(0.8333333333333334)" stroke="#6F7B73" stroke-width="2.4" fill="none" stroke-linecap="round" stroke-linejoin="round"/><text x="67" y="231" font-family="'WenQuanYi Zen Hei','Microsoft YaHei','PingFang SC','Segoe UI',sans-serif" font-size="14" font-weight="500" fill="#A8B3AC" text-anchor="start" >Canvas</text><path d="M4 5h16v11H9l-5 4zM8 9h8M8 13h5" transform="translate(34 270) scale(0.8333333333333334)" stroke="#6F7B73" stroke-width="2.4" fill="none" stroke-linecap="round" stroke-linejoin="round"/><text x="67" y="285" font-family="'WenQuanYi Zen Hei','Microsoft YaHei','PingFang SC','Segoe UI',sans-serif" font-size="14" font-weight="500" fill="#A8B3AC" text-anchor="start" >讨论</text><path d="M8 5l10 7-10 7z" transform="translate(34 324) scale(0.8333333333333334)" stroke="#6F7B73" stroke-width="2.4" fill="none" stroke-linecap="round" stroke-linejoin="round"/><text x="67" y="339" font-family="'WenQuanYi Zen Hei','Microsoft YaHei','PingFang SC','Segoe UI',sans-serif" font-size="14" font-weight="500" fill="#A8B3AC" text-anchor="start" >运行与验证</text><path d="M4 5h16v14H4zM4 14h5l2 2h2l2-2h5" transform="translate(34 378) scale(0.8333333333333334)" stroke="#6F7B73" stroke-width="2.4" fill="none" stroke-linecap="round" stroke-linejoin="round"/><text x="67" y="393" font-family="'WenQuanYi Zen Hei','Microsoft YaHei','PingFang SC','Segoe UI',sans-serif" font-size="14" font-weight="500" fill="#A8B3AC" text-anchor="start" >待处理</text><rect x="18" y="422" width="184" height="42" rx="12" fill="rgba(184,229,27,.12)" stroke="none" stroke-width="1" /><path d="M12 3l8 4.5v9L12 21l-8-4.5v-9zM12 21v-9M12 12l8-4.5M12 12 4 7.5" transform="translate(34 432) scale(0.8333333333333334)" stroke="#B8E51B" stroke-width="2.4" fill="none" stroke-linecap="round" stroke-linejoin="round"/><text x="67" y="447" font-family="'WenQuanYi Zen Hei','Microsoft YaHei','PingFang SC','Segoe UI',sans-serif" font-size="14" font-weight="650" fill="#F4F7F4" text-anchor="start" >Registry</text><rect x="18" y="430" width="3" height="26" rx="2" fill="#B8E51B" stroke="none" stroke-width="1" /><rect x="22" y="846" width="176" height="66" rx="16" fill="#1A201C" stroke="#252D27" stroke-width="1" /><circle cx="48" cy="879" r="17" fill="#344038" stroke="none" stroke-width="1" /><text x="48" y="884" font-family="'WenQuanYi Zen Hei','Microsoft YaHei','PingFang SC','Segoe UI',sans-serif" font-size="14" font-weight="750" fill="#F4F7F4" text-anchor="middle" >J</text><text x="75" y="875" font-family="'WenQuanYi Zen Hei','Microsoft YaHei','PingFang SC','Segoe UI',sans-serif" font-size="13" font-weight="650" fill="#F4F7F4" text-anchor="start" >Jacob</text><text x="75" y="894" font-family="'WenQuanYi Zen Hei','Microsoft YaHei','PingFang SC','Segoe UI',sans-serif" font-size="11" font-weight="400" fill="#A8B3AC" text-anchor="start" >个人空间</text><text x="258" y="57" font-family="'WenQuanYi Zen Hei','Microsoft YaHei','PingFang SC','Segoe UI',sans-serif" font-size="27" font-weight="750" fill="#F4F7F4" text-anchor="start" >Capsule Registry</text><text x="258" y="84" font-family="'WenQuanYi Zen Hei','Microsoft YaHei','PingFang SC','Segoe UI',sans-serif" font-size="13" font-weight="400" fill="#A8B3AC" text-anchor="start" >通过真实运行信号发现能力，而不是点赞和停留时长</text><line x1="220" y1="106" x2="1672" y2="106" stroke="#252D27" stroke-width="1" stroke-linecap="round"/><rect x="1320" y="40" width="140" height="30" rx="15" fill="rgba(76,141,255,.12)" stroke="none" stroke-width="1" /><circle cx="1336" cy="55" r="4" fill="#4C8DFF" stroke="none" stroke-width="1" /><text x="1347" y="60" font-family="'WenQuanYi Zen Hei','Microsoft YaHei','PingFang SC','Segoe UI',sans-serif" font-size="12" font-weight="600" fill="#4C8DFF" text-anchor="start" >Private + Public</text><rect x="1182" y="40" width="128" height="30" rx="15" fill="rgba(184,229,27,.12)" stroke="none" stroke-width="1" /><circle cx="1198" cy="55" r="4" fill="#B8E51B" stroke="none" stroke-width="1" /><text x="1209" y="60" font-family="'WenQuanYi Zen Hei','Microsoft YaHei','PingFang SC','Segoe UI',sans-serif" font-size="12" font-weight="600" fill="#B8E51B" text-anchor="start" >Signed objects</text><rect x="258" y="144" width="1114" height="82" rx="18" fill="#141916" stroke="#252D27" stroke-width="1" filter="url(#shadow)"/><circle cx="292" cy="182" r="6" stroke="#A8B3AC" stroke-width="2" fill="none"/><path d="m15 15 6 6" transform="translate(282 172) scale(1)" stroke="#A8B3AC" stroke-width="2" fill="none" stroke-linecap="round" stroke-linejoin="round"/><text x="324" y="190" font-family="'WenQuanYi Zen Hei','Microsoft YaHei','PingFang SC','Segoe UI',sans-serif" font-size="12" font-weight="400" fill="#6F7B73" text-anchor="start" >按目标、环境、风险、版本或兼容性搜索</text><rect x="1002" y="170" width="98" height="30" rx="15" fill="#1A201C" stroke="none" stroke-width="1" /><circle cx="1018" cy="185" r="4" fill="#A8B3AC" stroke="none" stroke-width="1" /><text x="1029" y="190" font-family="'WenQuanYi Zen Hei','Microsoft YaHei','PingFang SC','Segoe UI',sans-serif" font-size="12" font-weight="600" fill="#A8B3AC" text-anchor="start" >Windows</text><rect x="1112" y="170" width="96" height="30" rx="15" fill="rgba(184,229,27,.12)" stroke="none" stroke-width="1" /><circle cx="1128" cy="185" r="4" fill="#B8E51B" stroke="none" stroke-width="1" /><text x="1139" y="190" font-family="'WenQuanYi Zen Hei','Microsoft YaHei','PingFang SC','Segoe UI',sans-serif" font-size="12" font-weight="600" fill="#B8E51B" text-anchor="start" >Low risk</text><rect x="1220" y="164" width="124" height="40" rx="12" fill="#B8E51B" stroke="none" stroke-width="1" /><text x="1282" y="189" font-family="'WenQuanYi Zen Hei','Microsoft YaHei','PingFang SC','Segoe UI',sans-serif" font-size="13" font-weight="650" fill="#090D0B" text-anchor="middle" >搜索</text><rect x="258" y="254" width="1114" height="154" rx="20" fill="#141916" stroke="#252D27" stroke-width="1" filter="url(#shadow)"/><rect x="282" y="280" width="64" height="64" rx="18" fill="rgba(184,229,27,.12)" stroke="none" stroke-width="1" /><path d="M12 3l8 4.5v9L12 21l-8-4.5v-9zM12 21v-9M12 12l8-4.5M12 12 4 7.5" transform="translate(300 298) scale(1.1666666666666667)" stroke="#B8E51B" stroke-width="1.7142857142857142" fill="none" stroke-linecap="round" stroke-linejoin="round"/><text x="370" y="302" font-family="'WenQuanYi Zen Hei','Microsoft YaHei','PingFang SC','Segoe UI',sans-serif" font-size="16" font-weight="720" fill="#F4F7F4" text-anchor="start" >Research Sources</text><text x="370" y="328" font-family="'WenQuanYi Zen Hei','Microsoft YaHei','PingFang SC','Segoe UI',sans-serif" font-size="10" font-weight="400" fill="#A8B3AC" text-anchor="start" >v0.4 · BrowserView · Windows/macOS</text><rect x="370" y="348" width="90" height="30" rx="15" fill="rgba(184,229,27,.12)" stroke="none" stroke-width="1" /><circle cx="386" cy="363" r="4" fill="#B8E51B" stroke="none" stroke-width="1" /><text x="397" y="368" font-family="'WenQuanYi Zen Hei','Microsoft YaHei','PingFang SC','Segoe UI',sans-serif" font-size="12" font-weight="600" fill="#B8E51B" text-anchor="start" >Signed</text><text x="868" y="298" font-family="'WenQuanYi Zen Hei','Microsoft YaHei','PingFang SC','Segoe UI',sans-serif" font-size="10" font-weight="650" fill="#6F7B73" text-anchor="start" >真实成功率</text><text x="868" y="329" font-family="'WenQuanYi Zen Hei','Microsoft YaHei','PingFang SC','Segoe UI',sans-serif" font-size="25" font-weight="760" fill="#F4F7F4" text-anchor="start" >87%</text><text x="1010" y="298" font-family="'WenQuanYi Zen Hei','Microsoft YaHei','PingFang SC','Segoe UI',sans-serif" font-size="10" font-weight="650" fill="#6F7B73" text-anchor="start" >运行证据</text><text x="1010" y="329" font-family="'WenQuanYi Zen Hei','Microsoft YaHei','PingFang SC','Segoe UI',sans-serif" font-size="12" font-weight="650" fill="#F4F7F4" text-anchor="start" >12 Evidence</text><text x="1160" y="298" font-family="'WenQuanYi Zen Hei','Microsoft YaHei','PingFang SC','Segoe UI',sans-serif" font-size="10" font-weight="650" fill="#6F7B73" text-anchor="start" >权限</text><rect x="1160" y="312" width="90" height="30" rx="15" fill="rgba(184,229,27,.12)" stroke="none" stroke-width="1" /><circle cx="1176" cy="327" r="4" fill="#B8E51B" stroke="none" stroke-width="1" /><text x="1187" y="332" font-family="'WenQuanYi Zen Hei','Microsoft YaHei','PingFang SC','Segoe UI',sans-serif" font-size="12" font-weight="600" fill="#B8E51B" text-anchor="start" >Low</text><rect x="1210" y="355" width="136" height="40" rx="12" fill="#B8E51B" stroke="none" stroke-width="1" /><text x="1278" y="380" font-family="'WenQuanYi Zen Hei','Microsoft YaHei','PingFang SC','Segoe UI',sans-serif" font-size="13" font-weight="650" fill="#090D0B" text-anchor="middle" >查看</text><rect x="258" y="432" width="1114" height="154" rx="20" fill="#141916" stroke="#252D27" stroke-width="1" filter="url(#shadow)"/><rect x="282" y="458" width="64" height="64" rx="18" fill="rgba(76,141,255,.12)" stroke="none" stroke-width="1" /><path d="M12 3l8 4.5v9L12 21l-8-4.5v-9zM12 21v-9M12 12l8-4.5M12 12 4 7.5" transform="translate(300 476) scale(1.1666666666666667)" stroke="#4C8DFF" stroke-width="1.7142857142857142" fill="none" stroke-linecap="round" stroke-linejoin="round"/><text x="370" y="480" font-family="'WenQuanYi Zen Hei','Microsoft YaHei','PingFang SC','Segoe UI',sans-serif" font-size="16" font-weight="720" fill="#F4F7F4" text-anchor="start" >Session Summary</text><text x="370" y="506" font-family="'WenQuanYi Zen Hei','Microsoft YaHei','PingFang SC','Segoe UI',sans-serif" font-size="10" font-weight="400" fill="#A8B3AC" text-anchor="start" >v0.8 · Local · JSONL/SQLite</text><rect x="370" y="526" width="90" height="30" rx="15" fill="rgba(184,229,27,.12)" stroke="none" stroke-width="1" /><circle cx="386" cy="541" r="4" fill="#B8E51B" stroke="none" stroke-width="1" /><text x="397" y="546" font-family="'WenQuanYi Zen Hei','Microsoft YaHei','PingFang SC','Segoe UI',sans-serif" font-size="12" font-weight="600" fill="#B8E51B" text-anchor="start" >Signed</text><text x="868" y="476" font-family="'WenQuanYi Zen Hei','Microsoft YaHei','PingFang SC','Segoe UI',sans-serif" font-size="10" font-weight="650" fill="#6F7B73" text-anchor="start" >真实成功率</text><text x="868" y="507" font-family="'WenQuanYi Zen Hei','Microsoft YaHei','PingFang SC','Segoe UI',sans-serif" font-size="25" font-weight="760" fill="#F4F7F4" text-anchor="start" >96%</text><text x="1010" y="476" font-family="'WenQuanYi Zen Hei','Microsoft YaHei','PingFang SC','Segoe UI',sans-serif" font-size="10" font-weight="650" fill="#6F7B73" text-anchor="start" >运行证据</text><text x="1010" y="507" font-family="'WenQuanYi Zen Hei','Microsoft YaHei','PingFang SC','Segoe UI',sans-serif" font-size="12" font-weight="650" fill="#F4F7F4" text-anchor="start" >28 Evidence</text><text x="1160" y="476" font-family="'WenQuanYi Zen Hei','Microsoft YaHei','PingFang SC','Segoe UI',sans-serif" font-size="10" font-weight="650" fill="#6F7B73" text-anchor="start" >权限</text><rect x="1160" y="490" width="90" height="30" rx="15" fill="rgba(184,229,27,.12)" stroke="none" stroke-width="1" /><circle cx="1176" cy="505" r="4" fill="#B8E51B" stroke="none" stroke-width="1" /><text x="1187" y="510" font-family="'WenQuanYi Zen Hei','Microsoft YaHei','PingFang SC','Segoe UI',sans-serif" font-size="12" font-weight="600" fill="#B8E51B" text-anchor="start" >Low</text><rect x="1210" y="533" width="136" height="40" rx="12" fill="#1A201C" stroke="#252D27" stroke-width="1" /><text x="1278" y="558" font-family="'WenQuanYi Zen Hei','Microsoft YaHei','PingFang SC','Segoe UI',sans-serif" font-size="13" font-weight="650" fill="#F4F7F4" text-anchor="middle" >查看</text><rect x="258" y="610" width="1114" height="154" rx="20" fill="#141916" stroke="#252D27" stroke-width="1" filter="url(#shadow)"/><rect x="282" y="636" width="64" height="64" rx="18" fill="rgba(243,184,63,.12)" stroke="none" stroke-width="1" /><path d="M12 3l8 4.5v9L12 21l-8-4.5v-9zM12 21v-9M12 12l8-4.5M12 12 4 7.5" transform="translate(300 654) scale(1.1666666666666667)" stroke="#F3B83F" stroke-width="1.7142857142857142" fill="none" stroke-linecap="round" stroke-linejoin="round"/><text x="370" y="658" font-family="'WenQuanYi Zen Hei','Microsoft YaHei','PingFang SC','Segoe UI',sans-serif" font-size="16" font-weight="720" fill="#F4F7F4" text-anchor="start" >Prototype Web Runner</text><text x="370" y="684" font-family="'WenQuanYi Zen Hei','Microsoft YaHei','PingFang SC','Segoe UI',sans-serif" font-size="10" font-weight="400" fill="#A8B3AC" text-anchor="start" >v0.2 · Ephemeral sandbox</text><rect x="370" y="704" width="90" height="30" rx="15" fill="rgba(184,229,27,.12)" stroke="none" stroke-width="1" /><circle cx="386" cy="719" r="4" fill="#B8E51B" stroke="none" stroke-width="1" /><text x="397" y="724" font-family="'WenQuanYi Zen Hei','Microsoft YaHei','PingFang SC','Segoe UI',sans-serif" font-size="12" font-weight="600" fill="#B8E51B" text-anchor="start" >Signed</text><text x="868" y="654" font-family="'WenQuanYi Zen Hei','Microsoft YaHei','PingFang SC','Segoe UI',sans-serif" font-size="10" font-weight="650" fill="#6F7B73" text-anchor="start" >真实成功率</text><text x="868" y="685" font-family="'WenQuanYi Zen Hei','Microsoft YaHei','PingFang SC','Segoe UI',sans-serif" font-size="25" font-weight="760" fill="#F4F7F4" text-anchor="start" >71%</text><text x="1010" y="654" font-family="'WenQuanYi Zen Hei','Microsoft YaHei','PingFang SC','Segoe UI',sans-serif" font-size="10" font-weight="650" fill="#6F7B73" text-anchor="start" >运行证据</text><text x="1010" y="685" font-family="'WenQuanYi Zen Hei','Microsoft YaHei','PingFang SC','Segoe UI',sans-serif" font-size="12" font-weight="650" fill="#F4F7F4" text-anchor="start" >9 Evidence</text><text x="1160" y="654" font-family="'WenQuanYi Zen Hei','Microsoft YaHei','PingFang SC','Segoe UI',sans-serif" font-size="10" font-weight="650" fill="#6F7B73" text-anchor="start" >权限</text><rect x="1160" y="668" width="90" height="30" rx="15" fill="rgba(243,184,63,.12)" stroke="none" stroke-width="1" /><circle cx="1176" cy="683" r="4" fill="#F3B83F" stroke="none" stroke-width="1" /><text x="1187" y="688" font-family="'WenQuanYi Zen Hei','Microsoft YaHei','PingFang SC','Segoe UI',sans-serif" font-size="12" font-weight="600" fill="#F3B83F" text-anchor="start" >Medium</text><rect x="1210" y="711" width="136" height="40" rx="12" fill="#1A201C" stroke="#252D27" stroke-width="1" /><text x="1278" y="736" font-family="'WenQuanYi Zen Hei','Microsoft YaHei','PingFang SC','Segoe UI',sans-serif" font-size="13" font-weight="650" fill="#F4F7F4" text-anchor="middle" >查看</text><rect x="258" y="802" width="1114" height="48" rx="14" fill="rgba(76,141,255,.08)" stroke="#4C8DFF" stroke-width="1" /><text x="282" y="832" font-family="'WenQuanYi Zen Hei','Microsoft YaHei','PingFang SC','Segoe UI',sans-serif" font-size="11" font-weight="600" fill="#A8B3AC" text-anchor="start" >排序信号：目标匹配 · 成功率 · 失败类型 · 适用环境 · Evidence 新鲜度 · 维护状态</text></svg>