<svg xmlns="http://www.w3.org/2000/svg" width="1672" height="941" viewBox="0 0 1672 941"><defs><filter id="shadow"><feDropShadow dx="0" dy="10" stdDeviation="18" flood-color="rgba(0,0,0,.32)"/></filter><radialGradient id="glow"><stop offset="0" stop-color="#B8E51B" stop-opacity=".22"/><stop offset="1" stop-color="#B8E51B" stop-opacity="0"/></radialGradient></defs><rect x="0" y="0" width="1672" height="941" rx="0" fill="#0E1210" stroke="none" stroke-width="1" /><rect x="0" y="0" width="220" height="941" rx="0" fill="#090D0B" stroke="none" stroke-width="1" /><rect x="28" y="26" width="36" height="36" rx="11" fill="#B8E51B" stroke="none" stroke-width="1" /><path d="M53 37a9 9 0 1 0 .5 14" stroke="#090D0B" stroke-width="3" fill="none" stroke-linecap="round" stroke-linejoin="round" /><circle cx="46" cy="44" r="3" fill="#090D0B" stroke="none" stroke-width="1" /><text x="76" y="49" font-family="'WenQuanYi Zen Hei','Microsoft YaHei','PingFang SC','Segoe UI',sans-serif" font-size="16" font-weight="700" fill="#F4F7F4" text-anchor="start" >AI Cursor</text><rect x="164" y="34" width="29" height="20" rx="6" fill="rgba(184,229,27,.13)" stroke="none" stroke-width="1" /><text x="178.5" y="48" font-family="'WenQuanYi Zen Hei','Microsoft YaHei','PingFang SC','Segoe UI',sans-serif" font-size="10" font-weight="800" fill="#B8E51B" text-anchor="middle" >V2</text><path d="M3 10.5 12 3l9 7.5M5 9.5V20h14V9.5M9.5 20v-6h5v6" transform="translate(34 108) scale(0.8333333333333334)" stroke="#6F7B73" stroke-width="2.4" fill="none" stroke-linecap="round" stroke-linejoin="round"/><text x="67" y="123" font-family="'WenQuanYi Zen Hei','Microsoft YaHei','PingFang SC','Segoe UI',sans-serif" font-size="14" font-weight="500" fill="#A8B3AC" text-anchor="start" >工作台</text><circle cx="39" cy="167" r="2" stroke="#6F7B73" stroke-width="2" fill="none"/><circle cx="49" cy="167" r="2" stroke="#6F7B73" stroke-width="2" fill="none"/><circle cx="44" cy="177" r="2" stroke="#6F7B73" stroke-width="2" fill="none"/><path d="M6 8.4v3a2 2 0 0 0 2 2h2.4M18 8.4v3a2 2 0 0 1-2 2h-2.4" transform="translate(34 162) scale(0.8333333333333334)" stroke="#6F7B73" stroke-width="2.4" fill="none" stroke-linecap="round" stroke-linejoin="round"/><text x="67" y="177" font-family="'WenQuanYi Zen Hei','Microsoft YaHei','PingFang SC','Segoe UI',sans-serif" font-size="14" font-weight="500" fill="#A8B3AC" text-anchor="start" >工作流</text><rect x="18" y="206" width="184" height="42" rx="12" fill="rgba(184,229,27,.12)" stroke="none" stroke-width="1" /><path d="M6 5h13M6 12h13M6 19h13M3 5h.01M3 12h.01M3 19h.01" transform="translate(34 216) scale(0.8333333333333334)" stroke="#B8E51B" stroke-width="2.4" fill="none" stroke-linecap="round" stroke-linejoin="round"/><text x="67" y="231" font-family="'WenQuanYi Zen Hei','Microsoft YaHei','PingFang SC','Segoe UI',sans-serif" font-size="14" font-weight="650" fill="#F4F7F4" text-anchor="start" >Session</text><rect x="18" y="214" width="3" height="26" rx="2" fill="#B8E51B" stroke="none" stroke-width="1" /><circle cx="38.166666666666664" cy="280" r="1.8333333333333335" stroke="#6F7B73" stroke-width="2" fill="none"/><circle cx="49.833333333333336" cy="274.5833333333333" r="1.8333333333333335" stroke="#6F7B73" stroke-width="2" fill="none"/><circle cx="49.833333333333336" cy="285.4166666666667" r="1.8333333333333335" stroke="#6F7B73" stroke-width="2" fill="none"/><path d="M7 11 17 6.5M7 13l10 4.5" transform="translate(34 270) scale(0.8333333333333334)" stroke="#6F7B73" stroke-width="2.4" fill="none" stroke-linecap="round" stroke-linejoin="round"/><text x="67" y="285" font-family="'WenQuanYi Zen Hei','Microsoft YaHei','PingFang SC','Segoe UI',sans-serif" font-size="14" font-weight="500" fill="#A8B3AC" text-anchor="start" >任务空间</text><path d="M5 5h14v14H5zM9 9h6v6H9zM9 2v3M15 2v3M9 19v3M15 19v3M2 9h3M19 9h3M2 15h3M19 15h3" transform="translate(34 324) scale(0.8333333333333334)" stroke="#6F7B73" stroke-width="2.4" fill="none" stroke-linecap="round" stroke-linejoin="round"/><text x="67" y="339" font-family="'WenQuanYi Zen Hei','Microsoft YaHei','PingFang SC','Segoe UI',sans-serif" font-size="14" font-weight="500" fill="#A8B3AC" text-anchor="start" >模型中心</text><path d="M4 13v-1a8 8 0 0 1 16 0v1M3 13h4v7H3zM17 13h4v7h-4z" transform="translate(34 378) scale(0.8333333333333334)" stroke="#6F7B73" stroke-width="2.4" fill="none" stroke-linecap="round" stroke-linejoin="round"/><text x="67" y="393" font-family="'WenQuanYi Zen Hei','Microsoft YaHei','PingFang SC','Segoe UI',sans-serif" font-size="14" font-weight="500" fill="#A8B3AC" text-anchor="start" >设备</text><circle cx="44" cy="442" r="2.5" stroke="#6F7B73" stroke-width="2" fill="none"/><path d="M12 3v2M12 19v2M3 12h2M19 12h2M5.6 5.6 7 7M17 17l1.4 1.4M5.6 18.4 7 17M17 7l1.4-1.4" transform="translate(34 432) scale(0.8333333333333334)" stroke="#6F7B73" stroke-width="2.4" fill="none" stroke-linecap="round" stroke-linejoin="round"/><text x="67" y="447" font-family="'WenQuanYi Zen Hei','Microsoft YaHei','PingFang SC','Segoe UI',sans-serif" font-size="14" font-weight="500" fill="#A8B3AC" text-anchor="start" >设置</text><rect x="22" y="846" width="176" height="66" rx="16" fill="#1A201C" stroke="#252D27" stroke-width="1" /><circle cx="48" cy="879" r="17" fill="#344038" stroke="none" stroke-width="1" /><text x="48" y="884" font-family="'WenQuanYi Zen Hei','Microsoft YaHei','PingFang SC','Segoe UI',sans-serif" font-size="14" font-weight="750" fill="#F4F7F4" text-anchor="middle" >J</text><text x="75" y="875" font-family="'WenQuanYi Zen Hei','Microsoft YaHei','PingFang SC','Segoe UI',sans-serif" font-size="13" font-weight="650" fill="#F4F7F4" text-anchor="start" >Jacob</text><text x="75" y="894" font-family="'WenQuanYi Zen Hei','Microsoft YaHei','PingFang SC','Segoe UI',sans-serif" font-size="11" font-weight="400" fill="#A8B3AC" text-anchor="start" >本地工作区</text><text x="258" y="57" font-family="'WenQuanYi Zen Hei','Microsoft YaHei','PingFang SC','Segoe UI',sans-serif" font-size="27" font-weight="750" fill="#F4F7F4" text-anchor="start" >Session Graph</text><text x="258" y="84" font-family="'WenQuanYi Zen Hei','Microsoft YaHei','PingFang SC','Segoe UI',sans-serif" font-size="13" font-weight="400" fill="#A8B3AC" text-anchor="start" >主线、纠正、尝试与合并形成可追踪的任务历史</text><line x1="220" y1="106" x2="1672" y2="106" stroke="#252D27" stroke-width="1" stroke-linecap="round"/><rect x="1348" y="40" width="112" height="30" rx="15" fill="rgba(76,141,255,.12)" stroke="none" stroke-width="1" /><circle cx="1364" cy="55" r="4" fill="#4C8DFF" stroke="none" stroke-width="1" /><text x="1375" y="60" font-family="'WenQuanYi Zen Hei','Microsoft YaHei','PingFang SC','Segoe UI',sans-serif" font-size="12" font-weight="600" fill="#4C8DFF" text-anchor="start" >Graph View</text><rect x="258" y="144" width="1114" height="688" rx="24" fill="#141916" stroke="#252D27" stroke-width="1" filter="url(#shadow)"/><line x1="282" y1="186" x2="1348" y2="186" stroke="rgba(255,255,255,.025)" stroke-width="1" stroke-linecap="round"/><line x1="282" y1="244" x2="1348" y2="244" stroke="rgba(255,255,255,.025)" stroke-width="1" stroke-linecap="round"/><line x1="282" y1="302" x2="1348" y2="302" stroke="rgba(255,255,255,.025)" stroke-width="1" stroke-linecap="round"/><line x1="282" y1="360" x2="1348" y2="360" stroke="rgba(255,255,255,.025)" stroke-width="1" stroke-linecap="round"/><line x1="282" y1="418" x2="1348" y2="418" stroke="rgba(255,255,255,.025)" stroke-width="1" stroke-linecap="round"/><line x1="282" y1="476" x2="1348" y2="476" stroke="rgba(255,255,255,.025)" stroke-width="1" stroke-linecap="round"/><line x1="282" y1="534" x2="1348" y2="534" stroke="rgba(255,255,255,.025)" stroke-width="1" stroke-linecap="round"/><line x1="282" y1="592" x2="1348" y2="592" stroke="rgba(255,255,255,.025)" stroke-width="1" stroke-linecap="round"/><line x1="282" y1="650" x2="1348" y2="650" stroke="rgba(255,255,255,.025)" stroke-width="1" stroke-linecap="round"/><line x1="282" y1="708" x2="1348" y2="708" stroke="rgba(255,255,255,.025)" stroke-width="1" stroke-linecap="round"/><line x1="302" y1="166" x2="302" y2="808" stroke="rgba(255,255,255,.025)" stroke-width="1" stroke-linecap="round"/><line x1="366" y1="166" x2="366" y2="808" stroke="rgba(255,255,255,.025)" stroke-width="1" stroke-linecap="round"/><line x1="430" y1="166" x2="430" y2="808" stroke="rgba(255,255,255,.025)" stroke-width="1" stroke-linecap="round"/><line x1="494" y1="166" x2="494" y2="808" stroke="rgba(255,255,255,.025)" stroke-width="1" stroke-linecap="round"/><line x1="558" y1="166" x2="558" y2="808" stroke="rgba(255,255,255,.025)" stroke-width="1" stroke-linecap="round"/><line x1="622" y1="166" x2="622" y2="808" stroke="rgba(255,255,255,.025)" stroke-width="1" stroke-linecap="round"/><line x1="686" y1="166" x2="686" y2="808" stroke="rgba(255,255,255,.025)" stroke-width="1" stroke-linecap="round"/><line x1="750" y1="166" x2="750" y2="808" stroke="rgba(255,255,255,.025)" stroke-width="1" stroke-linecap="round"/><line x1="814" y1="166" x2="814" y2="808" stroke="rgba(255,255,255,.025)" stroke-width="1" stroke-linecap="round"/><line x1="878" y1="166" x2="878" y2="808" stroke="rgba(255,255,255,.025)" stroke-width="1" stroke-linecap="round"/><line x1="942" y1="166" x2="942" y2="808" stroke="rgba(255,255,255,.025)" stroke-width="1" stroke-linecap="round"/><line x1="1006" y1="166" x2="1006" y2="808" stroke="rgba(255,255,255,.025)" stroke-width="1" stroke-linecap="round"/><line x1="1070" y1="166" x2="1070" y2="808" stroke="rgba(255,255,255,.025)" stroke-width="1" stroke-linecap="round"/><line x1="1134" y1="166" x2="1134" y2="808" stroke="rgba(255,255,255,.025)" stroke-width="1" stroke-linecap="round"/><line x1="1198" y1="166" x2="1198" y2="808" stroke="rgba(255,255,255,.025)" stroke-width="1" stroke-linecap="round"/><line x1="1262" y1="166" x2="1262" y2="808" stroke="rgba(255,255,255,.025)" stroke-width="1" stroke-linecap="round"/><path d="M426 240 C520 240 520 240 602 240 S740 240 824 240 S980 240 1088 240" stroke="#B8E51B" stroke-width="3" fill="none" stroke-linecap="round" stroke-linejoin="round" /><path d="M602 278 C650 360 706 390 774 390 S920 390 980 390" stroke="#F3B83F" stroke-width="2" fill="none" stroke-linecap="round" stroke-linejoin="round" stroke-dasharray="7 7"/><path d="M774 428 C820 504 900 522 980 522 S1042 440 1088 278" stroke="#4C8DFF" stroke-width="2.3" fill="none" stroke-linecap="round" stroke-linejoin="round" /><rect x="322" y="202" width="208" height="78" rx="16" fill="#141916" stroke="#B8E51B" stroke-width="1.4" filter="url(#shadow)"/><rect x="334" y="215" width="36" height="36" rx="11" fill="#B8E51B22" stroke="none" stroke-width="1" /><circle cx="352" cy="227.16666666666666" r="1.9166666666666665" stroke="#B8E51B" stroke-width="2" fill="none"/><circle cx="346.1666666666667" cy="238" r="1.9166666666666665" stroke="#B8E51B" stroke-width="2" fill="none"/><circle cx="357.8333333333333" cy="238" r="1.9166666666666665" stroke="#B8E51B" stroke-width="2" fill="none"/><path d="M11 7 6 16M13 7l5 9M7 18h10" transform="translate(342 223) scale(0.8333333333333334)" stroke="#B8E51B" stroke-width="2.4" fill="none" stroke-linecap="round" stroke-linejoin="round"/><text x="382" y="233" font-family="'WenQuanYi Zen Hei','Microsoft YaHei','PingFang SC','Segoe UI',sans-serif" font-size="13" font-weight="650" fill="#F4F7F4" text-anchor="start" >用户目标</text><text x="382" y="254" font-family="'WenQuanYi Zen Hei','Microsoft YaHei','PingFang SC','Segoe UI',sans-serif" font-size="10" font-weight="400" fill="#A8B3AC" text-anchor="start" >比较中文全双工模型</text><circle cx="513" cy="219" r="5" fill="#B8E51B" stroke="none" stroke-width="1" /><rect x="550" y="202" width="208" height="78" rx="16" fill="#141916" stroke="#4C8DFF" stroke-width="1.4" filter="url(#shadow)"/><rect x="562" y="215" width="36" height="36" rx="11" fill="#4C8DFF22" stroke="none" stroke-width="1" /><circle cx="575" cy="228" r="2" stroke="#4C8DFF" stroke-width="2" fill="none"/><circle cx="585" cy="228" r="2" stroke="#4C8DFF" stroke-width="2" fill="none"/><circle cx="580" cy="238" r="2" stroke="#4C8DFF" stroke-width="2" fill="none"/><path d="M6 8.4v3a2 2 0 0 0 2 2h2.4M18 8.4v3a2 2 0 0 1-2 2h-2.4" transform="translate(570 223) scale(0.8333333333333334)" stroke="#4C8DFF" stroke-width="2.4" fill="none" stroke-linecap="round" stroke-linejoin="round"/><text x="610" y="233" font-family="'WenQuanYi Zen Hei','Microsoft YaHei','PingFang SC','Segoe UI',sans-serif" font-size="13" font-weight="650" fill="#F4F7F4" text-anchor="start" >AI 计划</text><text x="610" y="254" font-family="'WenQuanYi Zen Hei','Microsoft YaHei','PingFang SC','Segoe UI',sans-serif" font-size="10" font-weight="400" fill="#A8B3AC" text-anchor="start" >搜索与验证五个来源</text><circle cx="741" cy="219" r="5" fill="#4C8DFF" stroke="none" stroke-width="1" /><rect x="778" y="202" width="208" height="78" rx="16" fill="#141916" stroke="#B8E51B" stroke-width="1.4" filter="url(#shadow)"/><rect x="790" y="215" width="36" height="36" rx="11" fill="#B8E51B22" stroke="none" stroke-width="1" /><path d="M6 3h9l3 3v15H6zM9 11l2 2 4-5M15 3v4h4" transform="translate(798 223) scale(0.8333333333333334)" stroke="#B8E51B" stroke-width="2.4" fill="none" stroke-linecap="round" stroke-linejoin="round"/><text x="838" y="233" font-family="'WenQuanYi Zen Hei','Microsoft YaHei','PingFang SC','Segoe UI',sans-serif" font-size="13" font-weight="650" fill="#F4F7F4" text-anchor="start" >读取来源</text><text x="838" y="254" font-family="'WenQuanYi Zen Hei','Microsoft YaHei','PingFang SC','Segoe UI',sans-serif" font-size="10" font-weight="400" fill="#A8B3AC" text-anchor="start" >BayLing / PersonaPlex</text><circle cx="969" cy="219" r="5" fill="#B8E51B" stroke="none" stroke-width="1" /><rect x="1006" y="202" width="208" height="78" rx="16" fill="#141916" stroke="#B8E51B" stroke-width="1.4" filter="url(#shadow)"/><rect x="1018" y="215" width="36" height="36" rx="11" fill="#B8E51B22" stroke="none" stroke-width="1" /><path d="M5 12l4 4L19 6" transform="translate(1026 223) scale(0.8333333333333334)" stroke="#B8E51B" stroke-width="2.4" fill="none" stroke-linecap="round" stroke-linejoin="round"/><text x="1066" y="233" font-family="'WenQuanYi Zen Hei','Microsoft YaHei','PingFang SC','Segoe UI',sans-serif" font-size="13" font-weight="650" fill="#F4F7F4" text-anchor="start" >结果摘要</text><text x="1066" y="254" font-family="'WenQuanYi Zen Hei','Microsoft YaHei','PingFang SC','Segoe UI',sans-serif" font-size="10" font-weight="400" fill="#A8B3AC" text-anchor="start" >三个候选与两个问题</text><circle cx="1197" cy="219" r="5" fill="#B8E51B" stroke="none" stroke-width="1" /><rect x="648" y="352" width="248" height="78" rx="16" fill="#141916" stroke="#F3B83F" stroke-width="1.4" filter="url(#shadow)"/><rect x="660" y="365" width="36" height="36" rx="11" fill="#F3B83F22" stroke="none" stroke-width="1" /><path d="M6 5h13M6 12h13M6 19h13M3 5h.01M3 12h.01M3 19h.01" transform="translate(668 373) scale(0.8333333333333334)" stroke="#F3B83F" stroke-width="2.4" fill="none" stroke-linecap="round" stroke-linejoin="round"/><text x="708" y="383" font-family="'WenQuanYi Zen Hei','Microsoft YaHei','PingFang SC','Segoe UI',sans-serif" font-size="13" font-weight="650" fill="#F4F7F4" text-anchor="start" >用户纠正</text><text x="708" y="404" font-family="'WenQuanYi Zen Hei','Microsoft YaHei','PingFang SC','Segoe UI',sans-serif" font-size="10" font-weight="400" fill="#A8B3AC" text-anchor="start" >只保留可本地运行方案</text><circle cx="879" cy="369" r="5" fill="#F3B83F" stroke="none" stroke-width="1" /><rect x="840" y="484" width="256" height="78" rx="16" fill="#141916" stroke="#4C8DFF" stroke-width="1.4" filter="url(#shadow)"/><rect x="852" y="497" width="36" height="36" rx="11" fill="#4C8DFF22" stroke="none" stroke-width="1" /><path d="M8 5l10 7-10 7z" transform="translate(860 505) scale(0.8333333333333334)" stroke="#4C8DFF" stroke-width="2.4" fill="none" stroke-linecap="round" stroke-linejoin="round"/><text x="900" y="515" font-family="'WenQuanYi Zen Hei','Microsoft YaHei','PingFang SC','Segoe UI',sans-serif" font-size="13" font-weight="650" fill="#F4F7F4" text-anchor="start" >AI 尝试分支</text><text x="900" y="536" font-family="'WenQuanYi Zen Hei','Microsoft YaHei','PingFang SC','Segoe UI',sans-serif" font-size="10" font-weight="400" fill="#A8B3AC" text-anchor="start" >检查硬件与许可证</text><circle cx="1079" cy="501" r="5" fill="#4C8DFF" stroke="none" stroke-width="1" /><rect x="1110" y="352" width="204" height="78" rx="16" fill="#141916" stroke="#9272F8" stroke-width="1.4" filter="url(#shadow)"/><rect x="1122" y="365" width="36" height="36" rx="11" fill="#9272F822" stroke="none" stroke-width="1" /><circle cx="1134.1666666666667" cy="383" r="1.8333333333333335" stroke="#9272F8" stroke-width="2" fill="none"/><circle cx="1145.8333333333333" cy="377.5833333333333" r="1.8333333333333335" stroke="#9272F8" stroke-width="2" fill="none"/><circle cx="1145.8333333333333" cy="388.4166666666667" r="1.8333333333333335" stroke="#9272F8" stroke-width="2" fill="none"/><path d="M7 11 17 6.5M7 13l10 4.5" transform="translate(1130 373) scale(0.8333333333333334)" stroke="#9272F8" stroke-width="2.4" fill="none" stroke-linecap="round" stroke-linejoin="round"/><text x="1170" y="383" font-family="'WenQuanYi Zen Hei','Microsoft YaHei','PingFang SC','Segoe UI',sans-serif" font-size="13" font-weight="650" fill="#F4F7F4" text-anchor="start" >合并</text><text x="1170" y="404" font-family="'WenQuanYi Zen Hei','Microsoft YaHei','PingFang SC','Segoe UI',sans-serif" font-size="10" font-weight="400" fill="#A8B3AC" text-anchor="start" >更新主线结论</text><circle cx="1297" cy="369" r="5" fill="#9272F8" stroke="none" stroke-width="1" /><rect x="300" y="668" width="1032" height="108" rx="16" fill="#1A201C" stroke="#252D27" stroke-width="1" /><text x="326" y="702" font-family="'WenQuanYi Zen Hei','Microsoft YaHei','PingFang SC','Segoe UI',sans-serif" font-size="11" font-weight="700" fill="#B8E51B" text-anchor="start" >当前恢复锚点</text><text x="326" y="737" font-family="'WenQuanYi Zen Hei','Microsoft YaHei','PingFang SC','Segoe UI',sans-serif" font-size="15" font-weight="650" fill="#F4F7F4" text-anchor="start" >“检查硬件与许可证”完成后，重新验证中文插话质量</text><rect x="1112" y="702" width="186" height="40" rx="12" fill="#B8E51B" stroke="none" stroke-width="1" /><text x="1205" y="727" font-family="'WenQuanYi Zen Hei','Microsoft YaHei','PingFang SC','Segoe UI',sans-serif" font-size="13" font-weight="650" fill="#090D0B" text-anchor="middle" >从此分支继续</text></svg>