<svg xmlns="http://www.w3.org/2000/svg" width="1672" height="941" viewBox="0 0 1672 941"><defs><filter id="shadow"><feDropShadow dx="0" dy="10" stdDeviation="18" flood-color="rgba(20,30,24,.08)"/></filter><radialGradient id="glow"><stop offset="0" stop-color="#9FD000" stop-opacity=".22"/><stop offset="1" stop-color="#9FD000" stop-opacity="0"/></radialGradient></defs><rect x="0" y="0" width="1672" height="941" rx="0" fill="#F4F6F2" stroke="none" stroke-width="1" /><rect x="0" y="0" width="220" height="941" rx="0" fill="#F8FAF7" stroke="none" stroke-width="1" /><circle cx="46" cy="44" r="17" fill="#EAF7C0" stroke="#9FD000" stroke-width="1.4" /><circle cx="46" cy="44" r="4" fill="#9FD000" stroke="none" stroke-width="1" /><circle cx="38" cy="36" r="2.5" fill="#9FD000" stroke="none" stroke-width="1" /><circle cx="56" cy="37" r="2.5" fill="#9FD000" stroke="none" stroke-width="1" /><circle cx="54" cy="53" r="2.5" fill="#9FD000" stroke="none" stroke-width="1" /><line x1="41" y1="39" x2="44" y2="42" stroke="#9FD000" stroke-width="1.4" stroke-linecap="round"/><line x1="49" y1="42" x2="54" y2="38" stroke="#9FD000" stroke-width="1.4" stroke-linecap="round"/><line x1="49" y1="47" x2="53" y2="52" stroke="#9FD000" stroke-width="1.4" stroke-linecap="round"/><text x="76" y="49" font-family="'WenQuanYi Zen Hei','Microsoft YaHei','PingFang SC','Segoe UI',sans-serif" font-size="16" font-weight="700" fill="#111714" text-anchor="start" >Agentic Web</text><circle cx="42.333333333333336" cy="116.33333333333333" r="5" stroke="#A0AAA4" stroke-width="2" fill="none"/><path d="m15 15 6 6" transform="translate(34 108) scale(0.8333333333333334)" stroke="#A0AAA4" stroke-width="2.4" fill="none" stroke-linecap="round" stroke-linejoin="round"/><text x="67" y="123" font-family="'WenQuanYi Zen Hei','Microsoft YaHei','PingFang SC','Segoe UI',sans-serif" font-size="14" font-weight="500" fill="#627068" text-anchor="start" >探索</text><rect x="18" y="152" width="184" height="42" rx="12" fill="#EAF7C0" stroke="none" stroke-width="1" /><circle cx="44" cy="166.16666666666666" r="1.9166666666666665" stroke="#9FD000" stroke-width="2" fill="none"/><circle cx="38.166666666666664" cy="177" r="1.9166666666666665" stroke="#9FD000" stroke-width="2" fill="none"/><circle cx="49.833333333333336" cy="177" r="1.9166666666666665" stroke="#9FD000" stroke-width="2" fill="none"/><path d="M11 7 6 16M13 7l5 9M7 18h10" transform="translate(34 162) scale(0.8333333333333334)" stroke="#9FD000" stroke-width="2.4" fill="none" stroke-linecap="round" stroke-linejoin="round"/><text x="67" y="177" font-family="'WenQuanYi Zen Hei','Microsoft YaHei','PingFang SC','Segoe UI',sans-serif" font-size="14" font-weight="650" fill="#111714" text-anchor="start" >项目</text><rect x="18" y="160" width="3" height="26" rx="2" fill="#9FD000" stroke="none" stroke-width="1" /><circle cx="38.166666666666664" cy="226" r="1.8333333333333335" stroke="#A0AAA4" stroke-width="2" fill="none"/><circle cx="49.833333333333336" cy="220.58333333333334" r="1.8333333333333335" stroke="#A0AAA4" stroke-width="2" fill="none"/><circle cx="49.833333333333336" cy="231.41666666666666" r="1.8333333333333335" stroke="#A0AAA4" stroke-width="2" fill="none"/><path d="M7 11 17 6.5M7 13l10 4.5" transform="translate(34 216) scale(0.8333333333333334)" stroke="#A0AAA4" stroke-width="2.4" fill="none" stroke-linecap="round" stroke-linejoin="round"/><text x="67" y="231" font-family="'WenQuanYi Zen Hei','Microsoft YaHei','PingFang SC','Segoe UI',sans-serif" font-size="14" font-weight="500" fill="#627068" text-anchor="start" >Canvas</text><path d="M4 5h16v11H9l-5 4zM8 9h8M8 13h5" transform="translate(34 270) scale(0.8333333333333334)" stroke="#A0AAA4" stroke-width="2.4" fill="none" stroke-linecap="round" stroke-linejoin="round"/><text x="67" y="285" font-family="'WenQuanYi Zen Hei','Microsoft YaHei','PingFang SC','Segoe UI',sans-serif" font-size="14" font-weight="500" fill="#627068" text-anchor="start" >讨论</text><path d="M8 5l10 7-10 7z" transform="translate(34 324) scale(0.8333333333333334)" stroke="#A0AAA4" stroke-width="2.4" fill="none" stroke-linecap="round" stroke-linejoin="round"/><text x="67" y="339" font-family="'WenQuanYi Zen Hei','Microsoft YaHei','PingFang SC','Segoe UI',sans-serif" font-size="14" font-weight="500" fill="#627068" text-anchor="start" >运行与验证</text><path d="M4 5h16v14H4zM4 14h5l2 2h2l2-2h5" transform="translate(34 378) scale(0.8333333333333334)" stroke="#A0AAA4" stroke-width="2.4" fill="none" stroke-linecap="round" stroke-linejoin="round"/><text x="67" y="393" font-family="'WenQuanYi Zen Hei','Microsoft YaHei','PingFang SC','Segoe UI',sans-serif" font-size="14" font-weight="500" fill="#627068" text-anchor="start" >待处理</text><path d="M12 3l8 4.5v9L12 21l-8-4.5v-9zM12 21v-9M12 12l8-4.5M12 12 4 7.5" transform="translate(34 432) scale(0.8333333333333334)" stroke="#A0AAA4" stroke-width="2.4" fill="none" stroke-linecap="round" stroke-linejoin="round"/><text x="67" y="447" font-family="'WenQuanYi Zen Hei','Microsoft YaHei','PingFang SC','Segoe UI',sans-serif" font-size="14" font-weight="500" fill="#627068" text-anchor="start" >Registry</text><rect x="22" y="846" width="176" height="66" rx="16" fill="#F7F9F6" stroke="#DFE4E0" stroke-width="1" /><circle cx="48" cy="879" r="17" fill="#DFE4E0" stroke="none" stroke-width="1" /><text x="48" y="884" font-family="'WenQuanYi Zen Hei','Microsoft YaHei','PingFang SC','Segoe UI',sans-serif" font-size="14" font-weight="750" fill="#111714" text-anchor="middle" >J</text><text x="75" y="875" font-family="'WenQuanYi Zen Hei','Microsoft YaHei','PingFang SC','Segoe UI',sans-serif" font-size="13" font-weight="650" fill="#111714" text-anchor="start" >Jacob</text><text x="75" y="894" font-family="'WenQuanYi Zen Hei','Microsoft YaHei','PingFang SC','Segoe UI',sans-serif" font-size="11" font-weight="400" fill="#627068" text-anchor="start" >个人空间</text><text x="258" y="57" font-family="'WenQuanYi Zen Hei','Microsoft YaHei','PingFang SC','Segoe UI',sans-serif" font-size="27" font-weight="750" fill="#111714" text-anchor="start" >中文全双工交互能力</text><text x="258" y="84" font-family="'WenQuanYi Zen Hei','Microsoft YaHei','PingFang SC','Segoe UI',sans-serif" font-size="13" font-weight="400" fill="#627068" text-anchor="start" >Living Project · v0.8 · 维护中</text><line x1="220" y1="106" x2="1672" y2="106" stroke="#DFE4E0" stroke-width="1" stroke-linecap="round"/><rect x="1368" y="40" width="92" height="30" rx="15" fill="#E7F0FF" stroke="none" stroke-width="1" /><circle cx="1384" cy="55" r="4" fill="#4C8DFF" stroke="none" stroke-width="1" /><text x="1395" y="60" font-family="'WenQuanYi Zen Hei','Microsoft YaHei','PingFang SC','Segoe UI',sans-serif" font-size="12" font-weight="600" fill="#4C8DFF" text-anchor="start" >Private</text><rect x="1250" y="40" width="108" height="30" rx="15" fill="#EAF7C0" stroke="none" stroke-width="1" /><circle cx="1266" cy="55" r="4" fill="#425700" stroke="none" stroke-width="1" /><text x="1277" y="60" font-family="'WenQuanYi Zen Hei','Microsoft YaHei','PingFang SC','Segoe UI',sans-serif" font-size="12" font-weight="600" fill="#425700" text-anchor="start" >Validated</text><rect x="258" y="144" width="730" height="688" rx="22" fill="#FFFFFF" stroke="#DFE4E0" stroke-width="1" filter="url(#shadow)"/><rect x="282" y="172" width="132" height="30" rx="15" fill="#EAF7C0" stroke="none" stroke-width="1" /><circle cx="298" cy="187" r="4" fill="#425700" stroke="none" stroke-width="1" /><text x="309" y="192" font-family="'WenQuanYi Zen Hei','Microsoft YaHei','PingFang SC','Segoe UI',sans-serif" font-size="12" font-weight="600" fill="#425700" text-anchor="start" >当前稳定结论</text><text x="282" y="226" font-family="'WenQuanYi Zen Hei','Microsoft YaHei','PingFang SC','Segoe UI',sans-serif" font-size="27" font-weight="760" fill="#111714" text-anchor="start" >用户可以自然插话改变约束，</text><text x="282" y="262" font-family="'WenQuanYi Zen Hei','Microsoft YaHei','PingFang SC','Segoe UI',sans-serif" font-size="27" font-weight="760" fill="#111714" text-anchor="start" >AI 在目标延迟内停止并继续。</text><text x="282" y="304" font-family="'WenQuanYi Zen Hei','Microsoft YaHei','PingFang SC','Segoe UI',sans-serif" font-size="12" font-weight="450" fill="#627068" text-anchor="start"><tspan x="282" dy="0">该结论绑定精确版本、测试环境与三次真实运行，</tspan><tspan x="282" dy="18.6">尚不能证明所有设备与 Provider 均兼容。</tspan></text><text x="282" y="376" font-family="'WenQuanYi Zen Hei','Microsoft YaHei','PingFang SC','Segoe UI',sans-serif" font-size="16" font-weight="700" fill="#111714" text-anchor="start" >主要分支</text><rect x="282" y="410" width="650" height="66" rx="14" fill="#F7F9F6" stroke="none" stroke-width="1" /><circle cx="304.5833333333333" cy="442" r="2.0166666666666666" stroke="#9FD000" stroke-width="2" fill="none"/><circle cx="317.4166666666667" cy="436.0416666666667" r="2.0166666666666666" stroke="#9FD000" stroke-width="2" fill="none"/><circle cx="317.4166666666667" cy="447.9583333333333" r="2.0166666666666666" stroke="#9FD000" stroke-width="2" fill="none"/><path d="M7 11 17 6.5M7 13l10 4.5" transform="translate(300 431) scale(0.9166666666666666)" stroke="#9FD000" stroke-width="2.181818181818182" fill="none" stroke-linecap="round" stroke-linejoin="round"/><text x="336" y="437" font-family="'WenQuanYi Zen Hei','Microsoft YaHei','PingFang SC','Segoe UI',sans-serif" font-size="12" font-weight="650" fill="#111714" text-anchor="start" >本地 Provider</text><text x="336" y="458" font-family="'WenQuanYi Zen Hei','Microsoft YaHei','PingFang SC','Segoe UI',sans-serif" font-size="10" font-weight="400" fill="#627068" text-anchor="start" >3 条 Evidence</text><rect x="804" y="428" width="100" height="30" rx="15" fill="#EAF7C0" stroke="none" stroke-width="1" /><circle cx="820" cy="443" r="4" fill="#425700" stroke="none" stroke-width="1" /><text x="831" y="448" font-family="'WenQuanYi Zen Hei','Microsoft YaHei','PingFang SC','Segoe UI',sans-serif" font-size="12" font-weight="600" fill="#425700" text-anchor="start" >已验证</text><rect x="282" y="492" width="650" height="66" rx="14" fill="#F7F9F6" stroke="none" stroke-width="1" /><circle cx="304.5833333333333" cy="524" r="2.0166666666666666" stroke="#4C8DFF" stroke-width="2" fill="none"/><circle cx="317.4166666666667" cy="518.0416666666666" r="2.0166666666666666" stroke="#4C8DFF" stroke-width="2" fill="none"/><circle cx="317.4166666666667" cy="529.9583333333334" r="2.0166666666666666" stroke="#4C8DFF" stroke-width="2" fill="none"/><path d="M7 11 17 6.5M7 13l10 4.5" transform="translate(300 513) scale(0.9166666666666666)" stroke="#4C8DFF" stroke-width="2.181818181818182" fill="none" stroke-linecap="round" stroke-linejoin="round"/><text x="336" y="519" font-family="'WenQuanYi Zen Hei','Microsoft YaHei','PingFang SC','Segoe UI',sans-serif" font-size="12" font-weight="650" fill="#111714" text-anchor="start" >云端 Provider</text><text x="336" y="540" font-family="'WenQuanYi Zen Hei','Microsoft YaHei','PingFang SC','Segoe UI',sans-serif" font-size="10" font-weight="400" fill="#627068" text-anchor="start" >2 条 Evidence</text><rect x="804" y="510" width="100" height="30" rx="15" fill="#E7F0FF" stroke="none" stroke-width="1" /><circle cx="820" cy="525" r="4" fill="#4C8DFF" stroke="none" stroke-width="1" /><text x="831" y="530" font-family="'WenQuanYi Zen Hei','Microsoft YaHei','PingFang SC','Segoe UI',sans-serif" font-size="12" font-weight="600" fill="#4C8DFF" text-anchor="start" >已验证</text><rect x="282" y="574" width="650" height="66" rx="14" fill="#F7F9F6" stroke="none" stroke-width="1" /><circle cx="304.5833333333333" cy="606" r="2.0166666666666666" stroke="#F3B83F" stroke-width="2" fill="none"/><circle cx="317.4166666666667" cy="600.0416666666666" r="2.0166666666666666" stroke="#F3B83F" stroke-width="2" fill="none"/><circle cx="317.4166666666667" cy="611.9583333333334" r="2.0166666666666666" stroke="#F3B83F" stroke-width="2" fill="none"/><path d="M7 11 17 6.5M7 13l10 4.5" transform="translate(300 595) scale(0.9166666666666666)" stroke="#F3B83F" stroke-width="2.181818181818182" fill="none" stroke-linecap="round" stroke-linejoin="round"/><text x="336" y="601" font-family="'WenQuanYi Zen Hei','Microsoft YaHei','PingFang SC','Segoe UI',sans-serif" font-size="12" font-weight="650" fill="#111714" text-anchor="start" >中文自然插话</text><text x="336" y="622" font-family="'WenQuanYi Zen Hei','Microsoft YaHei','PingFang SC','Segoe UI',sans-serif" font-size="10" font-weight="400" fill="#627068" text-anchor="start" >仍有争议</text><rect x="804" y="592" width="100" height="30" rx="15" fill="#FFF2CF" stroke="none" stroke-width="1" /><circle cx="820" cy="607" r="4" fill="#F3B83F" stroke="none" stroke-width="1" /><text x="831" y="612" font-family="'WenQuanYi Zen Hei','Microsoft YaHei','PingFang SC','Segoe UI',sans-serif" font-size="12" font-weight="600" fill="#F3B83F" text-anchor="start" >有争议</text><text x="282" y="686" font-family="'WenQuanYi Zen Hei','Microsoft YaHei','PingFang SC','Segoe UI',sans-serif" font-size="16" font-weight="700" fill="#111714" text-anchor="start" >待解决问题</text><text x="282" y="716" font-family="'WenQuanYi Zen Hei','Microsoft YaHei','PingFang SC','Segoe UI',sans-serif" font-size="11" font-weight="500" fill="#627068" text-anchor="start"><tspan x="282" dy="0">• 不同蓝牙设备的真实打断延迟</tspan><tspan x="282" dy="17.6">• Provider 失败时的语音输出清理</tspan><tspan x="282" dy="17.6">• 误打断率与恢复体验</tspan></text><rect x="1014" y="144" width="358" height="688" rx="22" fill="#FFFFFF" stroke="#DFE4E0" stroke-width="1" filter="url(#shadow)"/><text x="1038" y="181" font-family="'WenQuanYi Zen Hei','Microsoft YaHei','PingFang SC','Segoe UI',sans-serif" font-size="14" font-weight="700" fill="#111714" text-anchor="start" >项目状态</text><text x="1038" y="226" font-family="'WenQuanYi Zen Hei','Microsoft YaHei','PingFang SC','Segoe UI',sans-serif" font-size="10" font-weight="400" fill="#627068" text-anchor="start" >Revision</text><text x="1344" y="226" font-family="'WenQuanYi Zen Hei','Microsoft YaHei','PingFang SC','Segoe UI',sans-serif" font-size="11" font-weight="650" fill="#111714" text-anchor="end" >v0.8</text><line x1="1038" y1="241" x2="1344" y2="241" stroke="#DFE4E0" stroke-width="1" stroke-linecap="round"/><text x="1038" y="278" font-family="'WenQuanYi Zen Hei','Microsoft YaHei','PingFang SC','Segoe UI',sans-serif" font-size="10" font-weight="400" fill="#627068" text-anchor="start" >最近验证</text><text x="1344" y="278" font-family="'WenQuanYi Zen Hei','Microsoft YaHei','PingFang SC','Segoe UI',sans-serif" font-size="11" font-weight="650" fill="#111714" text-anchor="end" >今天 15:10</text><line x1="1038" y1="293" x2="1344" y2="293" stroke="#DFE4E0" stroke-width="1" stroke-linecap="round"/><text x="1038" y="330" font-family="'WenQuanYi Zen Hei','Microsoft YaHei','PingFang SC','Segoe UI',sans-serif" font-size="10" font-weight="400" fill="#627068" text-anchor="start" >成功运行</text><text x="1344" y="330" font-family="'WenQuanYi Zen Hei','Microsoft YaHei','PingFang SC','Segoe UI',sans-serif" font-size="11" font-weight="650" fill="#111714" text-anchor="end" >7 / 8</text><line x1="1038" y1="345" x2="1344" y2="345" stroke="#DFE4E0" stroke-width="1" stroke-linecap="round"/><text x="1038" y="382" font-family="'WenQuanYi Zen Hei','Microsoft YaHei','PingFang SC','Segoe UI',sans-serif" font-size="10" font-weight="400" fill="#627068" text-anchor="start" >Evidence</text><text x="1344" y="382" font-family="'WenQuanYi Zen Hei','Microsoft YaHei','PingFang SC','Segoe UI',sans-serif" font-size="11" font-weight="650" fill="#111714" text-anchor="end" >12</text><line x1="1038" y1="397" x2="1344" y2="397" stroke="#DFE4E0" stroke-width="1" stroke-linecap="round"/><text x="1038" y="434" font-family="'WenQuanYi Zen Hei','Microsoft YaHei','PingFang SC','Segoe UI',sans-serif" font-size="10" font-weight="400" fill="#627068" text-anchor="start" >贡献者</text><text x="1344" y="434" font-family="'WenQuanYi Zen Hei','Microsoft YaHei','PingFang SC','Segoe UI',sans-serif" font-size="11" font-weight="650" fill="#111714" text-anchor="end" >3</text><line x1="1038" y1="449" x2="1344" y2="449" stroke="#DFE4E0" stroke-width="1" stroke-linecap="round"/><text x="1038" y="486" font-family="'WenQuanYi Zen Hei','Microsoft YaHei','PingFang SC','Segoe UI',sans-serif" font-size="10" font-weight="400" fill="#627068" text-anchor="start" >隐私范围</text><text x="1344" y="486" font-family="'WenQuanYi Zen Hei','Microsoft YaHei','PingFang SC','Segoe UI',sans-serif" font-size="11" font-weight="650" fill="#111714" text-anchor="end" >Private</text><line x1="1038" y1="501" x2="1344" y2="501" stroke="#DFE4E0" stroke-width="1" stroke-linecap="round"/><text x="1038" y="562" font-family="'WenQuanYi Zen Hei','Microsoft YaHei','PingFang SC','Segoe UI',sans-serif" font-size="12" font-weight="700" fill="#111714" text-anchor="start" >最近 Evidence</text><rect x="1028" y="578" width="330" height="190" rx="18" fill="#FFFFFF" stroke="#DFE4E0" stroke-width="1" filter="url(#shadow)"/><line x1="1062" y1="632" x2="1062" y2="700" stroke="#DFE4E0" stroke-width="2" stroke-linecap="round"/><circle cx="1062" cy="624" r="10" fill="#F7F9F6" stroke="#9FD000" stroke-width="2" /><circle cx="1062" cy="624" r="4" fill="#9FD000" stroke="none" stroke-width="1" /><text x="1084" y="619" font-family="'WenQuanYi Zen Hei','Microsoft YaHei','PingFang SC','Segoe UI',sans-serif" font-size="13" font-weight="650" fill="#111714" text-anchor="start" >真实运行</text><text x="1336" y="619" font-family="'WenQuanYi Zen Hei','Microsoft YaHei','PingFang SC','Segoe UI',sans-serif" font-size="10" font-weight="450" fill="#A0AAA4" text-anchor="end" >今天</text><text x="1084" y="642" font-family="'WenQuanYi Zen Hei','Microsoft YaHei','PingFang SC','Segoe UI',sans-serif" font-size="11" font-weight="400" fill="#627068" text-anchor="start"><tspan x="1084" dy="0">三次自然插话均成功</tspan></text><circle cx="1062" cy="702" r="10" fill="#F7F9F6" stroke="#F05F62" stroke-width="2" /><circle cx="1062" cy="702" r="4" fill="#F05F62" stroke="none" stroke-width="1" /><text x="1084" y="697" font-family="'WenQuanYi Zen Hei','Microsoft YaHei','PingFang SC','Segoe UI',sans-serif" font-size="13" font-weight="650" fill="#111714" text-anchor="start" >失败报告</text><text x="1336" y="697" font-family="'WenQuanYi Zen Hei','Microsoft YaHei','PingFang SC','Segoe UI',sans-serif" font-size="10" font-weight="450" fill="#A0AAA4" text-anchor="end" >昨天</text><text x="1084" y="720" font-family="'WenQuanYi Zen Hei','Microsoft YaHei','PingFang SC','Segoe UI',sans-serif" font-size="11" font-weight="400" fill="#627068" text-anchor="start"><tspan x="1084" dy="0">蓝牙输出未及时 flush</tspan></text><rect x="1038" y="760" width="306" height="40" rx="12" fill="#9FD000" stroke="none" stroke-width="1" /><text x="1191" y="785" font-family="'WenQuanYi Zen Hei','Microsoft YaHei','PingFang SC','Segoe UI',sans-serif" font-size="13" font-weight="650" fill="#090D0B" text-anchor="middle" >贡献 Evidence</text></svg>