<svg xmlns="http://www.w3.org/2000/svg" width="1672" height="941" viewBox="0 0 1672 941"><defs><filter id="shadow"><feDropShadow dx="0" dy="10" stdDeviation="18" flood-color="rgba(20,30,24,.08)"/></filter><radialGradient id="glow"><stop offset="0" stop-color="#9FD000" stop-opacity=".22"/><stop offset="1" stop-color="#9FD000" stop-opacity="0"/></radialGradient></defs><rect x="0" y="0" width="1672" height="941" rx="0" fill="#F4F6F2" stroke="none" stroke-width="1" /><rect x="0" y="0" width="220" height="941" rx="0" fill="#F8FAF7" stroke="none" stroke-width="1" /><rect x="28" y="26" width="36" height="36" rx="11" fill="#9FD000" stroke="none" stroke-width="1" /><path d="M53 37a9 9 0 1 0 .5 14" stroke="#090D0B" stroke-width="3" fill="none" stroke-linecap="round" stroke-linejoin="round" /><circle cx="46" cy="44" r="3" fill="#090D0B" stroke="none" stroke-width="1" /><text x="76" y="49" font-family="'WenQuanYi Zen Hei','Microsoft YaHei','PingFang SC','Segoe UI',sans-serif" font-size="16" font-weight="700" fill="#111714" text-anchor="start" >AI Cursor</text><rect x="164" y="34" width="29" height="20" rx="6" fill="#EAF7C0" stroke="none" stroke-width="1" /><text x="178.5" y="48" font-family="'WenQuanYi Zen Hei','Microsoft YaHei','PingFang SC','Segoe UI',sans-serif" font-size="10" font-weight="800" fill="#425700" text-anchor="middle" >V2</text><path d="M3 10.5 12 3l9 7.5M5 9.5V20h14V9.5M9.5 20v-6h5v6" transform="translate(34 108) scale(0.8333333333333334)" stroke="#A0AAA4" stroke-width="2.4" fill="none" stroke-linecap="round" stroke-linejoin="round"/><text x="67" y="123" font-family="'WenQuanYi Zen Hei','Microsoft YaHei','PingFang SC','Segoe UI',sans-serif" font-size="14" font-weight="500" fill="#627068" text-anchor="start" >工作台</text><rect x="18" y="152" width="184" height="42" rx="12" fill="#EAF7C0" stroke="none" stroke-width="1" /><circle cx="39" cy="167" r="2" stroke="#9FD000" stroke-width="2" fill="none"/><circle cx="49" cy="167" r="2" stroke="#9FD000" stroke-width="2" fill="none"/><circle cx="44" cy="177" r="2" stroke="#9FD000" stroke-width="2" fill="none"/><path d="M6 8.4v3a2 2 0 0 0 2 2h2.4M18 8.4v3a2 2 0 0 1-2 2h-2.4" transform="translate(34 162) scale(0.8333333333333334)" stroke="#9FD000" stroke-width="2.4" fill="none" stroke-linecap="round" stroke-linejoin="round"/><text x="67" y="177" font-family="'WenQuanYi Zen Hei','Microsoft YaHei','PingFang SC','Segoe UI',sans-serif" font-size="14" font-weight="650" fill="#111714" text-anchor="start" >工作流</text><rect x="18" y="160" width="3" height="26" rx="2" fill="#9FD000" stroke="none" stroke-width="1" /><path d="M6 5h13M6 12h13M6 19h13M3 5h.01M3 12h.01M3 19h.01" transform="translate(34 216) scale(0.8333333333333334)" stroke="#A0AAA4" stroke-width="2.4" fill="none" stroke-linecap="round" stroke-linejoin="round"/><text x="67" y="231" font-family="'WenQuanYi Zen Hei','Microsoft YaHei','PingFang SC','Segoe UI',sans-serif" font-size="14" font-weight="500" fill="#627068" text-anchor="start" >Session</text><circle cx="38.166666666666664" cy="280" r="1.8333333333333335" stroke="#A0AAA4" stroke-width="2" fill="none"/><circle cx="49.833333333333336" cy="274.5833333333333" r="1.8333333333333335" stroke="#A0AAA4" stroke-width="2" fill="none"/><circle cx="49.833333333333336" cy="285.4166666666667" r="1.8333333333333335" stroke="#A0AAA4" stroke-width="2" fill="none"/><path d="M7 11 17 6.5M7 13l10 4.5" transform="translate(34 270) scale(0.8333333333333334)" stroke="#A0AAA4" stroke-width="2.4" fill="none" stroke-linecap="round" stroke-linejoin="round"/><text x="67" y="285" font-family="'WenQuanYi Zen Hei','Microsoft YaHei','PingFang SC','Segoe UI',sans-serif" font-size="14" font-weight="500" fill="#627068" text-anchor="start" >任务空间</text><path d="M5 5h14v14H5zM9 9h6v6H9zM9 2v3M15 2v3M9 19v3M15 19v3M2 9h3M19 9h3M2 15h3M19 15h3" transform="translate(34 324) scale(0.8333333333333334)" stroke="#A0AAA4" stroke-width="2.4" fill="none" stroke-linecap="round" stroke-linejoin="round"/><text x="67" y="339" font-family="'WenQuanYi Zen Hei','Microsoft YaHei','PingFang SC','Segoe UI',sans-serif" font-size="14" font-weight="500" fill="#627068" text-anchor="start" >模型中心</text><path d="M4 13v-1a8 8 0 0 1 16 0v1M3 13h4v7H3zM17 13h4v7h-4z" transform="translate(34 378) scale(0.8333333333333334)" stroke="#A0AAA4" stroke-width="2.4" fill="none" stroke-linecap="round" stroke-linejoin="round"/><text x="67" y="393" font-family="'WenQuanYi Zen Hei','Microsoft YaHei','PingFang SC','Segoe UI',sans-serif" font-size="14" font-weight="500" fill="#627068" text-anchor="start" >设备</text><circle cx="44" cy="442" r="2.5" stroke="#A0AAA4" stroke-width="2" fill="none"/><path d="M12 3v2M12 19v2M3 12h2M19 12h2M5.6 5.6 7 7M17 17l1.4 1.4M5.6 18.4 7 17M17 7l1.4-1.4" transform="translate(34 432) scale(0.8333333333333334)" stroke="#A0AAA4" stroke-width="2.4" fill="none" stroke-linecap="round" stroke-linejoin="round"/><text x="67" y="447" font-family="'WenQuanYi Zen Hei','Microsoft YaHei','PingFang SC','Segoe UI',sans-serif" font-size="14" font-weight="500" fill="#627068" text-anchor="start" >设置</text><rect x="22" y="846" width="176" height="66" rx="16" fill="#F7F9F6" stroke="#DFE4E0" stroke-width="1" /><circle cx="48" cy="879" r="17" fill="#DFE4E0" stroke="none" stroke-width="1" /><text x="48" y="884" font-family="'WenQuanYi Zen Hei','Microsoft YaHei','PingFang SC','Segoe UI',sans-serif" font-size="14" font-weight="750" fill="#111714" text-anchor="middle" >J</text><text x="75" y="875" font-family="'WenQuanYi Zen Hei','Microsoft YaHei','PingFang SC','Segoe UI',sans-serif" font-size="13" font-weight="650" fill="#111714" text-anchor="start" >Jacob</text><text x="75" y="894" font-family="'WenQuanYi Zen Hei','Microsoft YaHei','PingFang SC','Segoe UI',sans-serif" font-size="11" font-weight="400" fill="#627068" text-anchor="start" >本地工作区</text><text x="258" y="57" font-family="'WenQuanYi Zen Hei','Microsoft YaHei','PingFang SC','Segoe UI',sans-serif" font-size="27" font-weight="750" fill="#111714" text-anchor="start" >工作流</text><text x="258" y="84" font-family="'WenQuanYi Zen Hei','Microsoft YaHei','PingFang SC','Segoe UI',sans-serif" font-size="13" font-weight="400" fill="#627068" text-anchor="start" >只保存经过真实 Session 验证、可解释且可停止的流程</text><line x1="220" y1="106" x2="1672" y2="106" stroke="#DFE4E0" stroke-width="1" stroke-linecap="round"/><rect x="1348" y="40" width="112" height="30" rx="15" fill="#E7F0FF" stroke="none" stroke-width="1" /><circle cx="1364" cy="55" r="4" fill="#4C8DFF" stroke="none" stroke-width="1" /><text x="1375" y="60" font-family="'WenQuanYi Zen Hei','Microsoft YaHei','PingFang SC','Segoe UI',sans-serif" font-size="12" font-weight="600" fill="#4C8DFF" text-anchor="start" >4 个工作流</text><rect x="258" y="144" width="1114" height="64" rx="16" fill="#FFFFFF" stroke="#DFE4E0" stroke-width="1" filter="url(#shadow)"/><circle cx="289.1666666666667" cy="174.16666666666666" r="5.5" stroke="#627068" stroke-width="2" fill="none"/><path d="m15 15 6 6" transform="translate(280 165) scale(0.9166666666666666)" stroke="#627068" stroke-width="2.181818181818182" fill="none" stroke-linecap="round" stroke-linejoin="round"/><text x="318" y="181" font-family="'WenQuanYi Zen Hei','Microsoft YaHei','PingFang SC','Segoe UI',sans-serif" font-size="12" font-weight="400" fill="#A0AAA4" text-anchor="start" >搜索工作流</text><rect x="938" y="161" width="112" height="30" rx="15" fill="#F7F9F6" stroke="none" stroke-width="1" /><circle cx="954" cy="176" r="4" fill="#627068" stroke="none" stroke-width="1" /><text x="965" y="181" font-family="'WenQuanYi Zen Hei','Microsoft YaHei','PingFang SC','Segoe UI',sans-serif" font-size="12" font-weight="600" fill="#627068" text-anchor="start" >最近使用</text><rect x="1190" y="156" width="146" height="40" rx="12" fill="#9FD000" stroke="none" stroke-width="1" /><text x="1263" y="181" font-family="'WenQuanYi Zen Hei','Microsoft YaHei','PingFang SC','Segoe UI',sans-serif" font-size="13" font-weight="650" fill="#090D0B" text-anchor="middle" >新建工作流</text><rect x="258" y="240" width="542" height="216" rx="20" fill="#FFFFFF" stroke="#DFE4E0" stroke-width="1" filter="url(#shadow)"/><rect x="280" y="262" width="48" height="48" rx="14" fill="#EAF7C0" stroke="none" stroke-width="1" /><circle cx="302" cy="284" r="6" stroke="#9FD000" stroke-width="2" fill="none"/><path d="m15 15 6 6" transform="translate(292 274) scale(1)" stroke="#9FD000" stroke-width="2" fill="none" stroke-linecap="round" stroke-linejoin="round"/><text x="346" y="283" font-family="'WenQuanYi Zen Hei','Microsoft YaHei','PingFang SC','Segoe UI',sans-serif" font-size="16" font-weight="700" fill="#111714" text-anchor="start" >带来源的研究整理</text><text x="346" y="306" font-family="'WenQuanYi Zen Hei','Microsoft YaHei','PingFang SC','Segoe UI',sans-serif" font-size="10" font-weight="400" fill="#627068" text-anchor="start" >使用 7 次</text><text x="280" y="348" font-family="'WenQuanYi Zen Hei','Microsoft YaHei','PingFang SC','Segoe UI',sans-serif" font-size="12" font-weight="550" fill="#111714" text-anchor="start" >只读搜索 → 阅读 → 摘录 → 总结</text><line x1="280" y1="372" x2="778" y2="372" stroke="#DFE4E0" stroke-width="1" stroke-linecap="round"/><rect x="280" y="394" width="136" height="30" rx="15" fill="#EAF7C0" stroke="none" stroke-width="1" /><circle cx="296" cy="409" r="4" fill="#425700" stroke="none" stroke-width="1" /><text x="307" y="414" font-family="'WenQuanYi Zen Hei','Microsoft YaHei','PingFang SC','Segoe UI',sans-serif" font-size="12" font-weight="600" fill="#425700" text-anchor="start" >可暂停 / 可恢复</text><rect x="660" y="391" width="116" height="40" rx="12" fill="#9FD000" stroke="none" stroke-width="1" /><text x="718" y="416" font-family="'WenQuanYi Zen Hei','Microsoft YaHei','PingFang SC','Segoe UI',sans-serif" font-size="13" font-weight="650" fill="#090D0B" text-anchor="middle" >打开</text><rect x="828" y="240" width="542" height="216" rx="20" fill="#FFFFFF" stroke="#DFE4E0" stroke-width="1" filter="url(#shadow)"/><rect x="850" y="262" width="48" height="48" rx="14" fill="#E7F0FF" stroke="none" stroke-width="1" /><path d="M6 3h9l3 3v15H6zM9 11l2 2 4-5M15 3v4h4" transform="translate(862 274) scale(1)" stroke="#4C8DFF" stroke-width="2" fill="none" stroke-linecap="round" stroke-linejoin="round"/><text x="916" y="283" font-family="'WenQuanYi Zen Hei','Microsoft YaHei','PingFang SC','Segoe UI',sans-serif" font-size="16" font-weight="700" fill="#111714" text-anchor="start" >供应商背景核查</text><text x="916" y="306" font-family="'WenQuanYi Zen Hei','Microsoft YaHei','PingFang SC','Segoe UI',sans-serif" font-size="10" font-weight="400" fill="#627068" text-anchor="start" >使用 4 次</text><text x="850" y="348" font-family="'WenQuanYi Zen Hei','Microsoft YaHei','PingFang SC','Segoe UI',sans-serif" font-size="12" font-weight="550" fill="#111714" text-anchor="start" >目标公司 → 来源验证 → 风险摘要</text><line x1="850" y1="372" x2="1348" y2="372" stroke="#DFE4E0" stroke-width="1" stroke-linecap="round"/><rect x="850" y="394" width="136" height="30" rx="15" fill="#EAF7C0" stroke="none" stroke-width="1" /><circle cx="866" cy="409" r="4" fill="#425700" stroke="none" stroke-width="1" /><text x="877" y="414" font-family="'WenQuanYi Zen Hei','Microsoft YaHei','PingFang SC','Segoe UI',sans-serif" font-size="12" font-weight="600" fill="#425700" text-anchor="start" >可暂停 / 可恢复</text><rect x="1230" y="391" width="116" height="40" rx="12" fill="#F7F9F6" stroke="#DFE4E0" stroke-width="1" /><text x="1288" y="416" font-family="'WenQuanYi Zen Hei','Microsoft YaHei','PingFang SC','Segoe UI',sans-serif" font-size="13" font-weight="650" fill="#111714" text-anchor="middle" >打开</text><rect x="258" y="484" width="542" height="216" rx="20" fill="#FFFFFF" stroke="#DFE4E0" stroke-width="1" filter="url(#shadow)"/><rect x="280" y="506" width="48" height="48" rx="14" fill="#FFF2CF" stroke="none" stroke-width="1" /><path d="M6 5h13M6 12h13M6 19h13M3 5h.01M3 12h.01M3 19h.01" transform="translate(292 518) scale(1)" stroke="#F3B83F" stroke-width="2" fill="none" stroke-linecap="round" stroke-linejoin="round"/><text x="346" y="527" font-family="'WenQuanYi Zen Hei','Microsoft YaHei','PingFang SC','Segoe UI',sans-serif" font-size="16" font-weight="700" fill="#111714" text-anchor="start" >会议资料准备</text><text x="346" y="550" font-family="'WenQuanYi Zen Hei','Microsoft YaHei','PingFang SC','Segoe UI',sans-serif" font-size="10" font-weight="400" fill="#627068" text-anchor="start" >使用 3 次</text><text x="280" y="592" font-family="'WenQuanYi Zen Hei','Microsoft YaHei','PingFang SC','Segoe UI',sans-serif" font-size="12" font-weight="550" fill="#111714" text-anchor="start" >读取 Session → 汇总要点 → 生成清单</text><line x1="280" y1="616" x2="778" y2="616" stroke="#DFE4E0" stroke-width="1" stroke-linecap="round"/><rect x="280" y="638" width="136" height="30" rx="15" fill="#EAF7C0" stroke="none" stroke-width="1" /><circle cx="296" cy="653" r="4" fill="#425700" stroke="none" stroke-width="1" /><text x="307" y="658" font-family="'WenQuanYi Zen Hei','Microsoft YaHei','PingFang SC','Segoe UI',sans-serif" font-size="12" font-weight="600" fill="#425700" text-anchor="start" >可暂停 / 可恢复</text><rect x="660" y="635" width="116" height="40" rx="12" fill="#F7F9F6" stroke="#DFE4E0" stroke-width="1" /><text x="718" y="660" font-family="'WenQuanYi Zen Hei','Microsoft YaHei','PingFang SC','Segoe UI',sans-serif" font-size="13" font-weight="650" fill="#111714" text-anchor="middle" >打开</text><rect x="828" y="484" width="542" height="216" rx="20" fill="#FFFFFF" stroke="#DFE4E0" stroke-width="1" filter="url(#shadow)"/><rect x="850" y="506" width="48" height="48" rx="14" fill="#FFE4E4" stroke="none" stroke-width="1" /><circle cx="868" cy="524" r="2.4" stroke="#F05F62" stroke-width="2" fill="none"/><circle cx="880" cy="524" r="2.4" stroke="#F05F62" stroke-width="2" fill="none"/><circle cx="874" cy="536" r="2.4" stroke="#F05F62" stroke-width="2" fill="none"/><path d="M6 8.4v3a2 2 0 0 0 2 2h2.4M18 8.4v3a2 2 0 0 1-2 2h-2.4" transform="translate(862 518) scale(1)" stroke="#F05F62" stroke-width="2" fill="none" stroke-linecap="round" stroke-linejoin="round"/><text x="916" y="527" font-family="'WenQuanYi Zen Hei','Microsoft YaHei','PingFang SC','Segoe UI',sans-serif" font-size="16" font-weight="700" fill="#111714" text-anchor="start" >预算材料整理</text><text x="916" y="550" font-family="'WenQuanYi Zen Hei','Microsoft YaHei','PingFang SC','Segoe UI',sans-serif" font-size="10" font-weight="400" fill="#627068" text-anchor="start" >实验中</text><text x="850" y="592" font-family="'WenQuanYi Zen Hei','Microsoft YaHei','PingFang SC','Segoe UI',sans-serif" font-size="12" font-weight="550" fill="#111714" text-anchor="start" >收集数据 → 草稿 → 强确认写入</text><line x1="850" y1="616" x2="1348" y2="616" stroke="#DFE4E0" stroke-width="1" stroke-linecap="round"/><rect x="850" y="638" width="138" height="30" rx="15" fill="#FFE4E4" stroke="none" stroke-width="1" /><circle cx="866" cy="653" r="4" fill="#F05F62" stroke="none" stroke-width="1" /><text x="877" y="658" font-family="'WenQuanYi Zen Hei','Microsoft YaHei','PingFang SC','Segoe UI',sans-serif" font-size="12" font-weight="600" fill="#F05F62" text-anchor="start" >需要写入确认</text><rect x="1230" y="635" width="116" height="40" rx="12" fill="#F7F9F6" stroke="#DFE4E0" stroke-width="1" /><text x="1288" y="660" font-family="'WenQuanYi Zen Hei','Microsoft YaHei','PingFang SC','Segoe UI',sans-serif" font-size="13" font-weight="650" fill="#111714" text-anchor="middle" >打开</text></svg>