<svg xmlns="http://www.w3.org/2000/svg" width="1672" height="941" viewBox="0 0 1672 941"><defs><filter id="shadow"><feDropShadow dx="0" dy="10" stdDeviation="18" flood-color="rgba(20,30,24,.08)"/></filter><radialGradient id="glow"><stop offset="0" stop-color="#9FD000" stop-opacity=".22"/><stop offset="1" stop-color="#9FD000" stop-opacity="0"/></radialGradient></defs><rect x="0" y="0" width="1672" height="941" rx="0" fill="#F4F6F2" stroke="none" stroke-width="1" /><rect x="0" y="0" width="220" height="941" rx="0" fill="#F8FAF7" stroke="none" stroke-width="1" /><rect x="28" y="26" width="36" height="36" rx="11" fill="#9FD000" stroke="none" stroke-width="1" /><path d="M53 37a9 9 0 1 0 .5 14" stroke="#090D0B" stroke-width="3" fill="none" stroke-linecap="round" stroke-linejoin="round" /><circle cx="46" cy="44" r="3" fill="#090D0B" stroke="none" stroke-width="1" /><text x="76" y="49" font-family="'WenQuanYi Zen Hei','Microsoft YaHei','PingFang SC','Segoe UI',sans-serif" font-size="16" font-weight="700" fill="#111714" text-anchor="start" >AI Cursor</text><rect x="164" y="34" width="29" height="20" rx="6" fill="#EAF7C0" stroke="none" stroke-width="1" /><text x="178.5" y="48" font-family="'WenQuanYi Zen Hei','Microsoft YaHei','PingFang SC','Segoe UI',sans-serif" font-size="10" font-weight="800" fill="#425700" text-anchor="middle" >V2</text><path d="M3 10.5 12 3l9 7.5M5 9.5V20h14V9.5M9.5 20v-6h5v6" transform="translate(34 108) scale(0.8333333333333334)" stroke="#A0AAA4" stroke-width="2.4" fill="none" stroke-linecap="round" stroke-linejoin="round"/><text x="67" y="123" font-family="'WenQuanYi Zen Hei','Microsoft YaHei','PingFang SC','Segoe UI',sans-serif" font-size="14" font-weight="500" fill="#627068" text-anchor="start" >工作台</text><circle cx="39" cy="167" r="2" stroke="#A0AAA4" stroke-width="2" fill="none"/><circle cx="49" cy="167" r="2" stroke="#A0AAA4" stroke-width="2" fill="none"/><circle cx="44" cy="177" r="2" stroke="#A0AAA4" stroke-width="2" fill="none"/><path d="M6 8.4v3a2 2 0 0 0 2 2h2.4M18 8.4v3a2 2 0 0 1-2 2h-2.4" transform="translate(34 162) scale(0.8333333333333334)" stroke="#A0AAA4" stroke-width="2.4" fill="none" stroke-linecap="round" stroke-linejoin="round"/><text x="67" y="177" font-family="'WenQuanYi Zen Hei','Microsoft YaHei','PingFang SC','Segoe UI',sans-serif" font-size="14" font-weight="500" fill="#627068" text-anchor="start" >工作流</text><path d="M6 5h13M6 12h13M6 19h13M3 5h.01M3 12h.01M3 19h.01" transform="translate(34 216) scale(0.8333333333333334)" stroke="#A0AAA4" stroke-width="2.4" fill="none" stroke-linecap="round" stroke-linejoin="round"/><text x="67" y="231" font-family="'WenQuanYi Zen Hei','Microsoft YaHei','PingFang SC','Segoe UI',sans-serif" font-size="14" font-weight="500" fill="#627068" text-anchor="start" >Session</text><circle cx="38.166666666666664" cy="280" r="1.8333333333333335" stroke="#A0AAA4" stroke-width="2" fill="none"/><circle cx="49.833333333333336" cy="274.5833333333333" r="1.8333333333333335" stroke="#A0AAA4" stroke-width="2" fill="none"/><circle cx="49.833333333333336" cy="285.4166666666667" r="1.8333333333333335" stroke="#A0AAA4" stroke-width="2" fill="none"/><path d="M7 11 17 6.5M7 13l10 4.5" transform="translate(34 270) scale(0.8333333333333334)" stroke="#A0AAA4" stroke-width="2.4" fill="none" stroke-linecap="round" stroke-linejoin="round"/><text x="67" y="285" font-family="'WenQuanYi Zen Hei','Microsoft YaHei','PingFang SC','Segoe UI',sans-serif" font-size="14" font-weight="500" fill="#627068" text-anchor="start" >任务空间</text><rect x="18" y="314" width="184" height="42" rx="12" fill="#EAF7C0" stroke="none" stroke-width="1" /><path d="M5 5h14v14H5zM9 9h6v6H9zM9 2v3M15 2v3M9 19v3M15 19v3M2 9h3M19 9h3M2 15h3M19 15h3" transform="translate(34 324) scale(0.8333333333333334)" stroke="#9FD000" stroke-width="2.4" fill="none" stroke-linecap="round" stroke-linejoin="round"/><text x="67" y="339" font-family="'WenQuanYi Zen Hei','Microsoft YaHei','PingFang SC','Segoe UI',sans-serif" font-size="14" font-weight="650" fill="#111714" text-anchor="start" >模型中心</text><rect x="18" y="322" width="3" height="26" rx="2" fill="#9FD000" stroke="none" stroke-width="1" /><path d="M4 13v-1a8 8 0 0 1 16 0v1M3 13h4v7H3zM17 13h4v7h-4z" transform="translate(34 378) scale(0.8333333333333334)" stroke="#A0AAA4" stroke-width="2.4" fill="none" stroke-linecap="round" stroke-linejoin="round"/><text x="67" y="393" font-family="'WenQuanYi Zen Hei','Microsoft YaHei','PingFang SC','Segoe UI',sans-serif" font-size="14" font-weight="500" fill="#627068" text-anchor="start" >设备</text><circle cx="44" cy="442" r="2.5" stroke="#A0AAA4" stroke-width="2" fill="none"/><path d="M12 3v2M12 19v2M3 12h2M19 12h2M5.6 5.6 7 7M17 17l1.4 1.4M5.6 18.4 7 17M17 7l1.4-1.4" transform="translate(34 432) scale(0.8333333333333334)" stroke="#A0AAA4" stroke-width="2.4" fill="none" stroke-linecap="round" stroke-linejoin="round"/><text x="67" y="447" font-family="'WenQuanYi Zen Hei','Microsoft YaHei','PingFang SC','Segoe UI',sans-serif" font-size="14" font-weight="500" fill="#627068" text-anchor="start" >设置</text><rect x="22" y="846" width="176" height="66" rx="16" fill="#F7F9F6" stroke="#DFE4E0" stroke-width="1" /><circle cx="48" cy="879" r="17" fill="#DFE4E0" stroke="none" stroke-width="1" /><text x="48" y="884" font-family="'WenQuanYi Zen Hei','Microsoft YaHei','PingFang SC','Segoe UI',sans-serif" font-size="14" font-weight="750" fill="#111714" text-anchor="middle" >J</text><text x="75" y="875" font-family="'WenQuanYi Zen Hei','Microsoft YaHei','PingFang SC','Segoe UI',sans-serif" font-size="13" font-weight="650" fill="#111714" text-anchor="start" >Jacob</text><text x="75" y="894" font-family="'WenQuanYi Zen Hei','Microsoft YaHei','PingFang SC','Segoe UI',sans-serif" font-size="11" font-weight="400" fill="#627068" text-anchor="start" >本地工作区</text><text x="258" y="57" font-family="'WenQuanYi Zen Hei','Microsoft YaHei','PingFang SC','Segoe UI',sans-serif" font-size="27" font-weight="750" fill="#111714" text-anchor="start" >模型中心</text><text x="258" y="84" font-family="'WenQuanYi Zen Hei','Microsoft YaHei','PingFang SC','Segoe UI',sans-serif" font-size="13" font-weight="400" fill="#627068" text-anchor="start" >普通用户只需要理解两个角色和一个固定安全层</text><line x1="220" y1="106" x2="1672" y2="106" stroke="#DFE4E0" stroke-width="1" stroke-linecap="round"/><rect x="1334" y="40" width="126" height="30" rx="15" fill="#EAF7C0" stroke="none" stroke-width="1" /><circle cx="1350" cy="55" r="4" fill="#425700" stroke="none" stroke-width="1" /><text x="1361" y="60" font-family="'WenQuanYi Zen Hei','Microsoft YaHei','PingFang SC','Segoe UI',sans-serif" font-size="12" font-weight="600" fill="#425700" text-anchor="start" >固定 Provider</text><rect x="258" y="150" width="780" height="140" rx="20" fill="#FFFFFF" stroke="#DFE4E0" stroke-width="1" filter="url(#shadow)"/><rect x="282" y="176" width="56" height="56" rx="16" fill="#EAF7C0" stroke="none" stroke-width="1" /><path d="M6 5h12v14H6zM9 9h6v6H9z" transform="translate(298 192) scale(1)" stroke="#9FD000" stroke-width="2" fill="none" stroke-linecap="round" stroke-linejoin="round"/><circle cx="310" cy="204" r="1.4" stroke="#9FD000" stroke-width="2" fill="#9FD000"/><text x="358" y="196" font-family="'WenQuanYi Zen Hei','Microsoft YaHei','PingFang SC','Segoe UI',sans-serif" font-size="15" font-weight="700" fill="#111714" text-anchor="start" >Execution Brain</text><text x="358" y="220" font-family="'WenQuanYi Zen Hei','Microsoft YaHei','PingFang SC','Segoe UI',sans-serif" font-size="11" font-weight="400" fill="#627068" text-anchor="start" >实时对话、理解目标、提出动作</text><rect x="358" y="241" width="102" height="30" rx="15" fill="#EAF7C0" stroke="none" stroke-width="1" /><circle cx="374" cy="256" r="4" fill="#425700" stroke="none" stroke-width="1" /><text x="385" y="261" font-family="'WenQuanYi Zen Hei','Microsoft YaHei','PingFang SC','Segoe UI',sans-serif" font-size="12" font-weight="600" fill="#425700" text-anchor="start" >运行中</text><text x="816" y="194" font-family="'WenQuanYi Zen Hei','Microsoft YaHei','PingFang SC','Segoe UI',sans-serif" font-size="13" font-weight="650" fill="#111714" text-anchor="start" >BayLing-Duplex</text><text x="816" y="218" font-family="'WenQuanYi Zen Hei','Microsoft YaHei','PingFang SC','Segoe UI',sans-serif" font-size="10" font-weight="400" fill="#627068" text-anchor="start" >固定到 Cycle 1</text><rect x="904" y="232" width="108" height="40" rx="12" fill="#F7F9F6" stroke="#DFE4E0" stroke-width="1" /><text x="958" y="257" font-family="'WenQuanYi Zen Hei','Microsoft YaHei','PingFang SC','Segoe UI',sans-serif" font-size="13" font-weight="650" fill="#111714" text-anchor="middle" >测试</text><rect x="258" y="314" width="780" height="140" rx="20" fill="#FFFFFF" stroke="#DFE4E0" stroke-width="1" filter="url(#shadow)"/><rect x="282" y="340" width="56" height="56" rx="16" fill="#E7F0FF" stroke="none" stroke-width="1" /><path d="M5 3h14v18H5zM9 3v18M12 8h4M12 12h4" transform="translate(298 356) scale(1)" stroke="#4C8DFF" stroke-width="2" fill="none" stroke-linecap="round" stroke-linejoin="round"/><text x="358" y="360" font-family="'WenQuanYi Zen Hei','Microsoft YaHei','PingFang SC','Segoe UI',sans-serif" font-size="15" font-weight="700" fill="#111714" text-anchor="start" >Record Notebook</text><text x="358" y="384" font-family="'WenQuanYi Zen Hei','Microsoft YaHei','PingFang SC','Segoe UI',sans-serif" font-size="11" font-weight="400" fill="#627068" text-anchor="start" >记录 Session、摘要与工作流建议</text><rect x="358" y="405" width="102" height="30" rx="15" fill="#E7F0FF" stroke="none" stroke-width="1" /><circle cx="374" cy="420" r="4" fill="#4C8DFF" stroke="none" stroke-width="1" /><text x="385" y="425" font-family="'WenQuanYi Zen Hei','Microsoft YaHei','PingFang SC','Segoe UI',sans-serif" font-size="12" font-weight="600" fill="#4C8DFF" text-anchor="start" >就绪</text><text x="816" y="358" font-family="'WenQuanYi Zen Hei','Microsoft YaHei','PingFang SC','Segoe UI',sans-serif" font-size="13" font-weight="650" fill="#111714" text-anchor="start" >Rule JSONL</text><text x="816" y="382" font-family="'WenQuanYi Zen Hei','Microsoft YaHei','PingFang SC','Segoe UI',sans-serif" font-size="10" font-weight="400" fill="#627068" text-anchor="start" >本地存储</text><rect x="904" y="396" width="108" height="40" rx="12" fill="#F7F9F6" stroke="#DFE4E0" stroke-width="1" /><text x="958" y="421" font-family="'WenQuanYi Zen Hei','Microsoft YaHei','PingFang SC','Segoe UI',sans-serif" font-size="13" font-weight="650" fill="#111714" text-anchor="middle" >测试</text><rect x="258" y="478" width="780" height="140" rx="20" fill="#FFFFFF" stroke="#DFE4E0" stroke-width="1" filter="url(#shadow)"/><rect x="282" y="504" width="56" height="56" rx="16" fill="#EAF7C0" stroke="none" stroke-width="1" /><path d="M12 3l7 3v5c0 4.5-3 8-7 10-4-2-7-5.5-7-10V6z" transform="translate(298 520) scale(1)" stroke="#9FD000" stroke-width="2" fill="none" stroke-linecap="round" stroke-linejoin="round"/><text x="358" y="524" font-family="'WenQuanYi Zen Hei','Microsoft YaHei','PingFang SC','Segoe UI',sans-serif" font-size="15" font-weight="700" fill="#111714" text-anchor="start" >Safety Engine</text><text x="358" y="548" font-family="'WenQuanYi Zen Hei','Microsoft YaHei','PingFang SC','Segoe UI',sans-serif" font-size="11" font-weight="400" fill="#627068" text-anchor="start" >本地暂停、取消、停止与接管</text><rect x="358" y="569" width="102" height="30" rx="15" fill="#EAF7C0" stroke="none" stroke-width="1" /><circle cx="374" cy="584" r="4" fill="#425700" stroke="none" stroke-width="1" /><text x="385" y="589" font-family="'WenQuanYi Zen Hei','Microsoft YaHei','PingFang SC','Segoe UI',sans-serif" font-size="12" font-weight="600" fill="#425700" text-anchor="start" >始终开启</text><text x="816" y="522" font-family="'WenQuanYi Zen Hei','Microsoft YaHei','PingFang SC','Segoe UI',sans-serif" font-size="13" font-weight="650" fill="#111714" text-anchor="start" >Local rules</text><text x="816" y="546" font-family="'WenQuanYi Zen Hei','Microsoft YaHei','PingFang SC','Segoe UI',sans-serif" font-size="10" font-weight="400" fill="#627068" text-anchor="start" >不可关闭</text><rect x="904" y="560" width="108" height="40" rx="12" fill="#F7F9F6" stroke="#DFE4E0" stroke-width="1" /><text x="958" y="585" font-family="'WenQuanYi Zen Hei','Microsoft YaHei','PingFang SC','Segoe UI',sans-serif" font-size="13" font-weight="650" fill="#111714" text-anchor="middle" >查看规则</text><rect x="1064" y="150" width="308" height="468" rx="20" fill="#FFFFFF" stroke="#DFE4E0" stroke-width="1" filter="url(#shadow)"/><text x="1088" y="188" font-family="'WenQuanYi Zen Hei','Microsoft YaHei','PingFang SC','Segoe UI',sans-serif" font-size="14" font-weight="700" fill="#111714" text-anchor="start" >当前组合</text><rect x="1088" y="226" width="260" height="68" rx="14" fill="#F7F9F6" stroke="none" stroke-width="1" /><path d="M6 5h12v14H6zM9 9h6v6H9z" transform="translate(1106 248) scale(1)" stroke="#9FD000" stroke-width="2" fill="none" stroke-linecap="round" stroke-linejoin="round"/><circle cx="1118" cy="260" r="1.4" stroke="#9FD000" stroke-width="2" fill="#9FD000"/><text x="1144" y="255" font-family="'WenQuanYi Zen Hei','Microsoft YaHei','PingFang SC','Segoe UI',sans-serif" font-size="12" font-weight="650" fill="#111714" text-anchor="start" >Execution Brain</text><text x="1144" y="275" font-family="'WenQuanYi Zen Hei','Microsoft YaHei','PingFang SC','Segoe UI',sans-serif" font-size="10" font-weight="400" fill="#627068" text-anchor="start" >Healthy</text><path d="M1218 294v30" stroke="#9FD000" stroke-width="2" fill="none" stroke-linecap="round" stroke-linejoin="round" /><rect x="1088" y="324" width="260" height="68" rx="14" fill="#F7F9F6" stroke="none" stroke-width="1" /><path d="M5 3h14v18H5zM9 3v18M12 8h4M12 12h4" transform="translate(1106 346) scale(1)" stroke="#4C8DFF" stroke-width="2" fill="none" stroke-linecap="round" stroke-linejoin="round"/><text x="1144" y="353" font-family="'WenQuanYi Zen Hei','Microsoft YaHei','PingFang SC','Segoe UI',sans-serif" font-size="12" font-weight="650" fill="#111714" text-anchor="start" >Record Notebook</text><text x="1144" y="373" font-family="'WenQuanYi Zen Hei','Microsoft YaHei','PingFang SC','Segoe UI',sans-serif" font-size="10" font-weight="400" fill="#627068" text-anchor="start" >Healthy</text><path d="M1218 392v30" stroke="#9FD000" stroke-width="2" fill="none" stroke-linecap="round" stroke-linejoin="round" /><rect x="1088" y="422" width="260" height="68" rx="14" fill="#F7F9F6" stroke="none" stroke-width="1" /><path d="M12 3l7 3v5c0 4.5-3 8-7 10-4-2-7-5.5-7-10V6z" transform="translate(1106 444) scale(1)" stroke="#9FD000" stroke-width="2" fill="none" stroke-linecap="round" stroke-linejoin="round"/><text x="1144" y="451" font-family="'WenQuanYi Zen Hei','Microsoft YaHei','PingFang SC','Segoe UI',sans-serif" font-size="12" font-weight="650" fill="#111714" text-anchor="start" >Safety Engine</text><text x="1144" y="471" font-family="'WenQuanYi Zen Hei','Microsoft YaHei','PingFang SC','Segoe UI',sans-serif" font-size="10" font-weight="400" fill="#627068" text-anchor="start" >Locked</text><line x1="1088" y1="522" x2="1348" y2="522" stroke="#DFE4E0" stroke-width="1" stroke-linecap="round"/><text x="1088" y="558" font-family="'WenQuanYi Zen Hei','Microsoft YaHei','PingFang SC','Segoe UI',sans-serif" font-size="10" font-weight="700" fill="#A0AAA4" text-anchor="start" >模型存储</text><text x="1088" y="582" font-family="'WenQuanYi Zen Hei','Microsoft YaHei','PingFang SC','Segoe UI',sans-serif" font-size="11" font-weight="600" fill="#111714" text-anchor="start" >D:\Vlawd\models</text><rect x="1088" y="594" width="260" height="8" rx="4" fill="#F7F9F6" stroke="none" stroke-width="1" /><rect x="1088" y="594" width="92" height="8" rx="4" fill="#9FD000" stroke="none" stroke-width="1" /><rect x="258" y="662" width="1114" height="164" rx="20" fill="#FFFFFF" stroke="#DFE4E0" stroke-width="1" filter="url(#shadow)"/><text x="282" y="700" font-family="'WenQuanYi Zen Hei','Microsoft YaHei','PingFang SC','Segoe UI',sans-serif" font-size="14" font-weight="700" fill="#111714" text-anchor="start" >Cycle 1 决策</text><text x="282" y="730" font-family="'WenQuanYi Zen Hei','Microsoft YaHei','PingFang SC','Segoe UI',sans-serif" font-size="12" font-weight="500" fill="#627068" text-anchor="start"><tspan x="282" dy="0">只固定一个合格 Provider，不在界面中鼓励持续横评。</tspan><tspan x="282" dy="18.6">真实链路接通后，再根据延迟、成本和隐私证据决定替换。</tspan></text><rect x="1100" y="716" width="166" height="30" rx="15" fill="#FFF2CF" stroke="none" stroke-width="1" /><circle cx="1116" cy="731" r="4" fill="#F3B83F" stroke="none" stroke-width="1" /><text x="1127" y="736" font-family="'WenQuanYi Zen Hei','Microsoft YaHei','PingFang SC','Segoe UI',sans-serif" font-size="12" font-weight="600" fill="#F3B83F" text-anchor="start" >避免模型市场化</text></svg>