<svg xmlns="http://www.w3.org/2000/svg" width="1672" height="941" viewBox="0 0 1672 941"><defs><filter id="shadow"><feDropShadow dx="0" dy="10" stdDeviation="18" flood-color="rgba(20,30,24,.08)"/></filter><radialGradient id="glow"><stop offset="0" stop-color="#9FD000" stop-opacity=".22"/><stop offset="1" stop-color="#9FD000" stop-opacity="0"/></radialGradient></defs><rect x="0" y="0" width="1672" height="941" rx="0" fill="#F4F6F2" stroke="none" stroke-width="1" /><rect x="0" y="0" width="220" height="941" rx="0" fill="#F8FAF7" stroke="none" stroke-width="1" /><rect x="28" y="26" width="36" height="36" rx="11" fill="#9FD000" stroke="none" stroke-width="1" /><path d="M53 37a9 9 0 1 0 .5 14" stroke="#090D0B" stroke-width="3" fill="none" stroke-linecap="round" stroke-linejoin="round" /><circle cx="46" cy="44" r="3" fill="#090D0B" stroke="none" stroke-width="1" /><text x="76" y="49" font-family="'WenQuanYi Zen Hei','Microsoft YaHei','PingFang SC','Segoe UI',sans-serif" font-size="16" font-weight="700" fill="#111714" text-anchor="start" >AI Cursor</text><rect x="164" y="34" width="29" height="20" rx="6" fill="#EAF7C0" stroke="none" stroke-width="1" /><text x="178.5" y="48" font-family="'WenQuanYi Zen Hei','Microsoft YaHei','PingFang SC','Segoe UI',sans-serif" font-size="10" font-weight="800" fill="#425700" text-anchor="middle" >V2</text><path d="M3 10.5 12 3l9 7.5M5 9.5V20h14V9.5M9.5 20v-6h5v6" transform="translate(34 108) scale(0.8333333333333334)" stroke="#A0AAA4" stroke-width="2.4" fill="none" stroke-linecap="round" stroke-linejoin="round"/><text x="67" y="123" font-family="'WenQuanYi Zen Hei','Microsoft YaHei','PingFang SC','Segoe UI',sans-serif" font-size="14" font-weight="500" fill="#627068" text-anchor="start" >工作台</text><circle cx="39" cy="167" r="2" stroke="#A0AAA4" stroke-width="2" fill="none"/><circle cx="49" cy="167" r="2" stroke="#A0AAA4" stroke-width="2" fill="none"/><circle cx="44" cy="177" r="2" stroke="#A0AAA4" stroke-width="2" fill="none"/><path d="M6 8.4v3a2 2 0 0 0 2 2h2.4M18 8.4v3a2 2 0 0 1-2 2h-2.4" transform="translate(34 162) scale(0.8333333333333334)" stroke="#A0AAA4" stroke-width="2.4" fill="none" stroke-linecap="round" stroke-linejoin="round"/><text x="67" y="177" font-family="'WenQuanYi Zen Hei','Microsoft YaHei','PingFang SC','Segoe UI',sans-serif" font-size="14" font-weight="500" fill="#627068" text-anchor="start" >工作流</text><path d="M6 5h13M6 12h13M6 19h13M3 5h.01M3 12h.01M3 19h.01" transform="translate(34 216) scale(0.8333333333333334)" stroke="#A0AAA4" stroke-width="2.4" fill="none" stroke-linecap="round" stroke-linejoin="round"/><text x="67" y="231" font-family="'WenQuanYi Zen Hei','Microsoft YaHei','PingFang SC','Segoe UI',sans-serif" font-size="14" font-weight="500" fill="#627068" text-anchor="start" >Session</text><circle cx="38.166666666666664" cy="280" r="1.8333333333333335" stroke="#A0AAA4" stroke-width="2" fill="none"/><circle cx="49.833333333333336" cy="274.5833333333333" r="1.8333333333333335" stroke="#A0AAA4" stroke-width="2" fill="none"/><circle cx="49.833333333333336" cy="285.4166666666667" r="1.8333333333333335" stroke="#A0AAA4" stroke-width="2" fill="none"/><path d="M7 11 17 6.5M7 13l10 4.5" transform="translate(34 270) scale(0.8333333333333334)" stroke="#A0AAA4" stroke-width="2.4" fill="none" stroke-linecap="round" stroke-linejoin="round"/><text x="67" y="285" font-family="'WenQuanYi Zen Hei','Microsoft YaHei','PingFang SC','Segoe UI',sans-serif" font-size="14" font-weight="500" fill="#627068" text-anchor="start" >任务空间</text><path d="M5 5h14v14H5zM9 9h6v6H9zM9 2v3M15 2v3M9 19v3M15 19v3M2 9h3M19 9h3M2 15h3M19 15h3" transform="translate(34 324) scale(0.8333333333333334)" stroke="#A0AAA4" stroke-width="2.4" fill="none" stroke-linecap="round" stroke-linejoin="round"/><text x="67" y="339" font-family="'WenQuanYi Zen Hei','Microsoft YaHei','PingFang SC','Segoe UI',sans-serif" font-size="14" font-weight="500" fill="#627068" text-anchor="start" >模型中心</text><rect x="18" y="368" width="184" height="42" rx="12" fill="#EAF7C0" stroke="none" stroke-width="1" /><path d="M4 13v-1a8 8 0 0 1 16 0v1M3 13h4v7H3zM17 13h4v7h-4z" transform="translate(34 378) scale(0.8333333333333334)" stroke="#9FD000" stroke-width="2.4" fill="none" stroke-linecap="round" stroke-linejoin="round"/><text x="67" y="393" font-family="'WenQuanYi Zen Hei','Microsoft YaHei','PingFang SC','Segoe UI',sans-serif" font-size="14" font-weight="650" fill="#111714" text-anchor="start" >设备</text><rect x="18" y="376" width="3" height="26" rx="2" fill="#9FD000" stroke="none" stroke-width="1" /><circle cx="44" cy="442" r="2.5" stroke="#A0AAA4" stroke-width="2" fill="none"/><path d="M12 3v2M12 19v2M3 12h2M19 12h2M5.6 5.6 7 7M17 17l1.4 1.4M5.6 18.4 7 17M17 7l1.4-1.4" transform="translate(34 432) scale(0.8333333333333334)" stroke="#A0AAA4" stroke-width="2.4" fill="none" stroke-linecap="round" stroke-linejoin="round"/><text x="67" y="447" font-family="'WenQuanYi Zen Hei','Microsoft YaHei','PingFang SC','Segoe UI',sans-serif" font-size="14" font-weight="500" fill="#627068" text-anchor="start" >设置</text><rect x="22" y="846" width="176" height="66" rx="16" fill="#F7F9F6" stroke="#DFE4E0" stroke-width="1" /><circle cx="48" cy="879" r="17" fill="#DFE4E0" stroke="none" stroke-width="1" /><text x="48" y="884" font-family="'WenQuanYi Zen Hei','Microsoft YaHei','PingFang SC','Segoe UI',sans-serif" font-size="14" font-weight="750" fill="#111714" text-anchor="middle" >J</text><text x="75" y="875" font-family="'WenQuanYi Zen Hei','Microsoft YaHei','PingFang SC','Segoe UI',sans-serif" font-size="13" font-weight="650" fill="#111714" text-anchor="start" >Jacob</text><text x="75" y="894" font-family="'WenQuanYi Zen Hei','Microsoft YaHei','PingFang SC','Segoe UI',sans-serif" font-size="11" font-weight="400" fill="#627068" text-anchor="start" >本地工作区</text><text x="258" y="57" font-family="'WenQuanYi Zen Hei','Microsoft YaHei','PingFang SC','Segoe UI',sans-serif" font-size="27" font-weight="750" fill="#111714" text-anchor="start" >设备中心</text><text x="258" y="84" font-family="'WenQuanYi Zen Hei','Microsoft YaHei','PingFang SC','Segoe UI',sans-serif" font-size="13" font-weight="400" fill="#627068" text-anchor="start" >管理对话入口、测试音频路径并查看本地隐私状态</text><line x1="220" y1="106" x2="1672" y2="106" stroke="#DFE4E0" stroke-width="1" stroke-linecap="round"/><rect x="1326" y="40" width="134" height="30" rx="15" fill="#EAF7C0" stroke="none" stroke-width="1" /><circle cx="1342" cy="55" r="4" fill="#425700" stroke="none" stroke-width="1" /><text x="1353" y="60" font-family="'WenQuanYi Zen Hei','Microsoft YaHei','PingFang SC','Segoe UI',sans-serif" font-size="12" font-weight="600" fill="#425700" text-anchor="start" >1 个活动入口</text><rect x="258" y="150" width="722" height="676" rx="22" fill="#FFFFFF" stroke="#DFE4E0" stroke-width="1" filter="url(#shadow)"/><text x="282" y="190" font-family="'WenQuanYi Zen Hei','Microsoft YaHei','PingFang SC','Segoe UI',sans-serif" font-size="15" font-weight="700" fill="#111714" text-anchor="start" >对话入口</text><rect x="282" y="226" width="674" height="92" rx="16" fill="#F7F9F6" stroke="#9FD000" stroke-width="2" /><rect x="302" y="246" width="52" height="52" rx="15" fill="#EAF7C0" stroke="none" stroke-width="1" /><path d="M4 13v-1a8 8 0 0 1 16 0v1M3 13h4v7H3zM17 13h4v7h-4z" transform="translate(316 260) scale(1)" stroke="#9FD000" stroke-width="2" fill="none" stroke-linecap="round" stroke-linejoin="round"/><text x="374" y="263" font-family="'WenQuanYi Zen Hei','Microsoft YaHei','PingFang SC','Segoe UI',sans-serif" font-size="14" font-weight="700" fill="#111714" text-anchor="start" >Bose QC Ultra</text><text x="374" y="286" font-family="'WenQuanYi Zen Hei','Microsoft YaHei','PingFang SC','Segoe UI',sans-serif" font-size="10" font-weight="400" fill="#627068" text-anchor="start" >输入 / 输出</text><rect x="820" y="256" width="92" height="30" rx="15" fill="#EAF7C0" stroke="none" stroke-width="1" /><circle cx="836" cy="271" r="4" fill="#425700" stroke="none" stroke-width="1" /><text x="847" y="276" font-family="'WenQuanYi Zen Hei','Microsoft YaHei','PingFang SC','Segoe UI',sans-serif" font-size="12" font-weight="600" fill="#425700" text-anchor="start" >已连接</text><rect x="282" y="338" width="674" height="92" rx="16" fill="#F7F9F6" stroke="#DFE4E0" stroke-width="1" /><rect x="302" y="358" width="52" height="52" rx="15" fill="#E7F0FF" stroke="none" stroke-width="1" /><path d="M9 4v7a3 3 0 0 0 6 0V4zM5 11a7 7 0 0 0 14 0M12 18v3" transform="translate(316 372) scale(1)" stroke="#4C8DFF" stroke-width="2" fill="none" stroke-linecap="round" stroke-linejoin="round"/><text x="374" y="375" font-family="'WenQuanYi Zen Hei','Microsoft YaHei','PingFang SC','Segoe UI',sans-serif" font-size="14" font-weight="700" fill="#111714" text-anchor="start" >内置麦克风</text><text x="374" y="398" font-family="'WenQuanYi Zen Hei','Microsoft YaHei','PingFang SC','Segoe UI',sans-serif" font-size="10" font-weight="400" fill="#627068" text-anchor="start" >输入</text><rect x="820" y="368" width="92" height="30" rx="15" fill="#E7F0FF" stroke="none" stroke-width="1" /><circle cx="836" cy="383" r="4" fill="#4C8DFF" stroke="none" stroke-width="1" /><text x="847" y="388" font-family="'WenQuanYi Zen Hei','Microsoft YaHei','PingFang SC','Segoe UI',sans-serif" font-size="12" font-weight="600" fill="#4C8DFF" text-anchor="start" >可用</text><rect x="282" y="450" width="674" height="92" rx="16" fill="#F7F9F6" stroke="#DFE4E0" stroke-width="1" /><rect x="302" y="470" width="52" height="52" rx="15" fill="#E7F0FF" stroke="none" stroke-width="1" /><path d="M4 13v-1a8 8 0 0 1 16 0v1M3 13h4v7H3zM17 13h4v7h-4z" transform="translate(316 484) scale(1)" stroke="#4C8DFF" stroke-width="2" fill="none" stroke-linecap="round" stroke-linejoin="round"/><text x="374" y="487" font-family="'WenQuanYi Zen Hei','Microsoft YaHei','PingFang SC','Segoe UI',sans-serif" font-size="14" font-weight="700" fill="#111714" text-anchor="start" >电脑扬声器</text><text x="374" y="510" font-family="'WenQuanYi Zen Hei','Microsoft YaHei','PingFang SC','Segoe UI',sans-serif" font-size="10" font-weight="400" fill="#627068" text-anchor="start" >输出</text><rect x="820" y="480" width="92" height="30" rx="15" fill="#E7F0FF" stroke="none" stroke-width="1" /><circle cx="836" cy="495" r="4" fill="#4C8DFF" stroke="none" stroke-width="1" /><text x="847" y="500" font-family="'WenQuanYi Zen Hei','Microsoft YaHei','PingFang SC','Segoe UI',sans-serif" font-size="12" font-weight="600" fill="#4C8DFF" text-anchor="start" >可用</text><line x1="282" y1="570" x2="956" y2="570" stroke="#DFE4E0" stroke-width="1" stroke-linecap="round"/><text x="282" y="608" font-family="'WenQuanYi Zen Hei','Microsoft YaHei','PingFang SC','Segoe UI',sans-serif" font-size="11" font-weight="650" fill="#627068" text-anchor="start" >输入电平</text><rect x="282" y="644" width="6" height="8" rx="3" fill="#9FD000" stroke="none" stroke-width="1" /><rect x="296" y="638.5" width="6" height="19" rx="3" fill="#9FD000" stroke="none" stroke-width="1" /><rect x="310" y="633" width="6" height="30" rx="3" fill="#9FD000" stroke="none" stroke-width="1" /><rect x="324" y="643.5" width="6" height="9" rx="3" fill="#9FD000" stroke="none" stroke-width="1" /><rect x="338" y="638" width="6" height="20" rx="3" fill="#9FD000" stroke="none" stroke-width="1" /><rect x="352" y="632.5" width="6" height="31" rx="3" fill="#9FD000" stroke="none" stroke-width="1" /><rect x="366" y="643" width="6" height="10" rx="3" fill="#9FD000" stroke="none" stroke-width="1" /><rect x="380" y="637.5" width="6" height="21" rx="3" fill="#9FD000" stroke="none" stroke-width="1" /><rect x="394" y="632" width="6" height="32" rx="3" fill="#9FD000" stroke="none" stroke-width="1" /><rect x="408" y="642.5" width="6" height="11" rx="3" fill="#9FD000" stroke="none" stroke-width="1" /><rect x="422" y="637" width="6" height="22" rx="3" fill="#9FD000" stroke="none" stroke-width="1" /><rect x="436" y="631.5" width="6" height="33" rx="3" fill="#9FD000" stroke="none" stroke-width="1" /><rect x="450" y="642" width="6" height="12" rx="3" fill="#9FD000" stroke="none" stroke-width="1" /><rect x="464" y="636.5" width="6" height="23" rx="3" fill="#9FD000" stroke="none" stroke-width="1" /><rect x="478" y="631" width="6" height="34" rx="3" fill="#9FD000" stroke="none" stroke-width="1" /><rect x="492" y="641.5" width="6" height="13" rx="3" fill="#9FD000" stroke="none" stroke-width="1" /><rect x="506" y="636" width="6" height="24" rx="3" fill="#9FD000" stroke="none" stroke-width="1" /><rect x="520" y="630.5" width="6" height="35" rx="3" fill="#9FD000" stroke="none" stroke-width="1" /><rect x="534" y="641" width="6" height="14" rx="3" fill="#9FD000" stroke="none" stroke-width="1" /><rect x="548" y="635.5" width="6" height="25" rx="3" fill="#9FD000" stroke="none" stroke-width="1" /><rect x="562" y="630" width="6" height="36" rx="3" fill="#9FD000" stroke="none" stroke-width="1" /><rect x="576" y="640.5" width="6" height="15" rx="3" fill="#9FD000" stroke="none" stroke-width="1" /><rect x="590" y="635" width="6" height="26" rx="3" fill="#9FD000" stroke="none" stroke-width="1" /><rect x="604" y="629.5" width="6" height="37" rx="3" fill="#9FD000" stroke="none" stroke-width="1" /><rect x="618" y="640" width="6" height="16" rx="3" fill="#9FD000" stroke="none" stroke-width="1" /><rect x="632" y="634.5" width="6" height="27" rx="3" fill="#9FD000" stroke="none" stroke-width="1" /><rect x="646" y="629" width="6" height="38" rx="3" fill="#9FD000" stroke="none" stroke-width="1" /><rect x="660" y="639.5" width="6" height="17" rx="3" fill="#9FD000" stroke="none" stroke-width="1" /><rect x="674" y="634" width="6" height="28" rx="3" fill="#9FD000" stroke="none" stroke-width="1" /><rect x="688" y="628.5" width="6" height="39" rx="3" fill="#F7F9F6" stroke="none" stroke-width="1" /><rect x="702" y="639" width="6" height="18" rx="3" fill="#F7F9F6" stroke="none" stroke-width="1" /><rect x="716" y="633.5" width="6" height="29" rx="3" fill="#F7F9F6" stroke="none" stroke-width="1" /><rect x="730" y="644" width="6" height="8" rx="3" fill="#F7F9F6" stroke="none" stroke-width="1" /><rect x="744" y="638.5" width="6" height="19" rx="3" fill="#F7F9F6" stroke="none" stroke-width="1" /><rect x="758" y="633" width="6" height="30" rx="3" fill="#F7F9F6" stroke="none" stroke-width="1" /><rect x="772" y="643.5" width="6" height="9" rx="3" fill="#F7F9F6" stroke="none" stroke-width="1" /><rect x="786" y="638" width="6" height="20" rx="3" fill="#F7F9F6" stroke="none" stroke-width="1" /><rect x="800" y="632.5" width="6" height="31" rx="3" fill="#F7F9F6" stroke="none" stroke-width="1" /><rect x="814" y="643" width="6" height="10" rx="3" fill="#F7F9F6" stroke="none" stroke-width="1" /><rect x="828" y="637.5" width="6" height="21" rx="3" fill="#F7F9F6" stroke="none" stroke-width="1" /><rect x="842" y="632" width="6" height="32" rx="3" fill="#F7F9F6" stroke="none" stroke-width="1" /><rect x="856" y="642.5" width="6" height="11" rx="3" fill="#F7F9F6" stroke="none" stroke-width="1" /><rect x="282" y="710" width="136" height="40" rx="12" fill="#F7F9F6" stroke="#DFE4E0" stroke-width="1" /><text x="350" y="735" font-family="'WenQuanYi Zen Hei','Microsoft YaHei','PingFang SC','Segoe UI',sans-serif" font-size="13" font-weight="650" fill="#111714" text-anchor="middle" >测试麦克风</text><rect x="432" y="710" width="136" height="40" rx="12" fill="#F7F9F6" stroke="#DFE4E0" stroke-width="1" /><text x="500" y="735" font-family="'WenQuanYi Zen Hei','Microsoft YaHei','PingFang SC','Segoe UI',sans-serif" font-size="13" font-weight="650" fill="#111714" text-anchor="middle" >播放测试音</text><rect x="800" y="710" width="136" height="40" rx="12" fill="#9FD000" stroke="none" stroke-width="1" /><text x="868" y="735" font-family="'WenQuanYi Zen Hei','Microsoft YaHei','PingFang SC','Segoe UI',sans-serif" font-size="13" font-weight="650" fill="#090D0B" text-anchor="middle" >更换入口</text><rect x="1004" y="150" width="368" height="318" rx="22" fill="#FFFFFF" stroke="#DFE4E0" stroke-width="1" filter="url(#shadow)"/><text x="1028" y="190" font-family="'WenQuanYi Zen Hei','Microsoft YaHei','PingFang SC','Segoe UI',sans-serif" font-size="15" font-weight="700" fill="#111714" text-anchor="start" >本地安全通道</text><rect x="1028" y="224" width="320" height="82" rx="15" fill="#EAF7C0" stroke="#9FD000" stroke-width="1" /><path d="M12 3l7 3v5c0 4.5-3 8-7 10-4-2-7-5.5-7-10V6z" transform="translate(1048 248) scale(1.1666666666666667)" stroke="#9FD000" stroke-width="1.7142857142857142" fill="none" stroke-linecap="round" stroke-linejoin="round"/><text x="1094" y="251" font-family="'WenQuanYi Zen Hei','Microsoft YaHei','PingFang SC','Segoe UI',sans-serif" font-size="12" font-weight="700" fill="#111714" text-anchor="start" >Safety Preemption</text><text x="1094" y="276" font-family="'WenQuanYi Zen Hei','Microsoft YaHei','PingFang SC','Segoe UI',sans-serif" font-size="10" font-weight="400" fill="#627068" text-anchor="start" >始终开启 · 不经过 Provider</text><text x="1028" y="344" font-family="'WenQuanYi Zen Hei','Microsoft YaHei','PingFang SC','Segoe UI',sans-serif" font-size="10" font-weight="700" fill="#A0AAA4" text-anchor="start" >支持控制词</text><rect x="1028" y="366" width="66" height="30" rx="15" fill="#FFE4E4" stroke="none" stroke-width="1" /><circle cx="1044" cy="381" r="4" fill="#F05F62" stroke="none" stroke-width="1" /><text x="1055" y="386" font-family="'WenQuanYi Zen Hei','Microsoft YaHei','PingFang SC','Segoe UI',sans-serif" font-size="12" font-weight="600" fill="#F05F62" text-anchor="start" >停</text><rect x="1104" y="366" width="76" height="30" rx="15" fill="#FFF2CF" stroke="none" stroke-width="1" /><circle cx="1120" cy="381" r="4" fill="#F3B83F" stroke="none" stroke-width="1" /><text x="1131" y="386" font-family="'WenQuanYi Zen Hei','Microsoft YaHei','PingFang SC','Segoe UI',sans-serif" font-size="12" font-weight="600" fill="#F3B83F" text-anchor="start" >暂停</text><rect x="1190" y="366" width="76" height="30" rx="15" fill="#FFE4E4" stroke="none" stroke-width="1" /><circle cx="1206" cy="381" r="4" fill="#F05F62" stroke="none" stroke-width="1" /><text x="1217" y="386" font-family="'WenQuanYi Zen Hei','Microsoft YaHei','PingFang SC','Segoe UI',sans-serif" font-size="12" font-weight="600" fill="#F05F62" text-anchor="start" >取消</text><rect x="1276" y="366" width="72" height="30" rx="15" fill="#EAF7C0" stroke="none" stroke-width="1" /><circle cx="1292" cy="381" r="4" fill="#425700" stroke="none" stroke-width="1" /><text x="1303" y="386" font-family="'WenQuanYi Zen Hei','Microsoft YaHei','PingFang SC','Segoe UI',sans-serif" font-size="12" font-weight="600" fill="#425700" text-anchor="start" >继续</text><rect x="1004" y="492" width="368" height="334" rx="22" fill="#FFFFFF" stroke="#DFE4E0" stroke-width="1" filter="url(#shadow)"/><text x="1028" y="532" font-family="'WenQuanYi Zen Hei','Microsoft YaHei','PingFang SC','Segoe UI',sans-serif" font-size="15" font-weight="700" fill="#111714" text-anchor="start" >隐私状态</text><text x="1028" y="574" font-family="'WenQuanYi Zen Hei','Microsoft YaHei','PingFang SC','Segoe UI',sans-serif" font-size="11" font-weight="400" fill="#627068" text-anchor="start" >原始音频</text><text x="1348" y="574" font-family="'WenQuanYi Zen Hei','Microsoft YaHei','PingFang SC','Segoe UI',sans-serif" font-size="11" font-weight="650" fill="#425700" text-anchor="end" >不保存</text><line x1="1028" y1="592" x2="1348" y2="592" stroke="#DFE4E0" stroke-width="1" stroke-linecap="round"/><text x="1028" y="632" font-family="'WenQuanYi Zen Hei','Microsoft YaHei','PingFang SC','Segoe UI',sans-serif" font-size="11" font-weight="400" fill="#627068" text-anchor="start" >Transcript</text><text x="1348" y="632" font-family="'WenQuanYi Zen Hei','Microsoft YaHei','PingFang SC','Segoe UI',sans-serif" font-size="11" font-weight="650" fill="#4C8DFF" text-anchor="end" >仅当前 Session</text><line x1="1028" y1="650" x2="1348" y2="650" stroke="#DFE4E0" stroke-width="1" stroke-linecap="round"/><text x="1028" y="690" font-family="'WenQuanYi Zen Hei','Microsoft YaHei','PingFang SC','Segoe UI',sans-serif" font-size="11" font-weight="400" fill="#627068" text-anchor="start" >设备标识</text><text x="1348" y="690" font-family="'WenQuanYi Zen Hei','Microsoft YaHei','PingFang SC','Segoe UI',sans-serif" font-size="11" font-weight="650" fill="#4C8DFF" text-anchor="end" >本地保存</text><line x1="1028" y1="708" x2="1348" y2="708" stroke="#DFE4E0" stroke-width="1" stroke-linecap="round"/><text x="1028" y="748" font-family="'WenQuanYi Zen Hei','Microsoft YaHei','PingFang SC','Segoe UI',sans-serif" font-size="11" font-weight="400" fill="#627068" text-anchor="start" >云端上传</text><text x="1348" y="748" font-family="'WenQuanYi Zen Hei','Microsoft YaHei','PingFang SC','Segoe UI',sans-serif" font-size="11" font-weight="650" fill="#425700" text-anchor="end" >未启用</text><line x1="1028" y1="766" x2="1348" y2="766" stroke="#DFE4E0" stroke-width="1" stroke-linecap="round"/></svg>