<svg xmlns="http://www.w3.org/2000/svg" width="1672" height="941" viewBox="0 0 1672 941"><defs><filter id="shadow"><feDropShadow dx="0" dy="10" stdDeviation="18" flood-color="rgba(20,30,24,.08)"/></filter><radialGradient id="glow"><stop offset="0" stop-color="#9FD000" stop-opacity=".22"/><stop offset="1" stop-color="#9FD000" stop-opacity="0"/></radialGradient></defs><rect x="0" y="0" width="1672" height="941" rx="0" fill="#F4F6F2" stroke="none" stroke-width="1" /><rect x="0" y="0" width="220" height="941" rx="0" fill="#F8FAF7" stroke="none" stroke-width="1" /><rect x="28" y="26" width="36" height="36" rx="11" fill="#9FD000" stroke="none" stroke-width="1" /><path d="M53 37a9 9 0 1 0 .5 14" stroke="#090D0B" stroke-width="3" fill="none" stroke-linecap="round" stroke-linejoin="round" /><circle cx="46" cy="44" r="3" fill="#090D0B" stroke="none" stroke-width="1" /><text x="76" y="49" font-family="'WenQuanYi Zen Hei','Microsoft YaHei','PingFang SC','Segoe UI',sans-serif" font-size="16" font-weight="700" fill="#111714" text-anchor="start" >AI Cursor</text><rect x="164" y="34" width="29" height="20" rx="6" fill="#EAF7C0" stroke="none" stroke-width="1" /><text x="178.5" y="48" font-family="'WenQuanYi Zen Hei','Microsoft YaHei','PingFang SC','Segoe UI',sans-serif" font-size="10" font-weight="800" fill="#425700" text-anchor="middle" >V2</text><path d="M3 10.5 12 3l9 7.5M5 9.5V20h14V9.5M9.5 20v-6h5v6" transform="translate(34 108) scale(0.8333333333333334)" stroke="#A0AAA4" stroke-width="2.4" fill="none" stroke-linecap="round" stroke-linejoin="round"/><text x="67" y="123" font-family="'WenQuanYi Zen Hei','Microsoft YaHei','PingFang SC','Segoe UI',sans-serif" font-size="14" font-weight="500" fill="#627068" text-anchor="start" >工作台</text><circle cx="39" cy="167" r="2" stroke="#A0AAA4" stroke-width="2" fill="none"/><circle cx="49" cy="167" r="2" stroke="#A0AAA4" stroke-width="2" fill="none"/><circle cx="44" cy="177" r="2" stroke="#A0AAA4" stroke-width="2" fill="none"/><path d="M6 8.4v3a2 2 0 0 0 2 2h2.4M18 8.4v3a2 2 0 0 1-2 2h-2.4" transform="translate(34 162) scale(0.8333333333333334)" stroke="#A0AAA4" stroke-width="2.4" fill="none" stroke-linecap="round" stroke-linejoin="round"/><text x="67" y="177" font-family="'WenQuanYi Zen Hei','Microsoft YaHei','PingFang SC','Segoe UI',sans-serif" font-size="14" font-weight="500" fill="#627068" text-anchor="start" >工作流</text><path d="M6 5h13M6 12h13M6 19h13M3 5h.01M3 12h.01M3 19h.01" transform="translate(34 216) scale(0.8333333333333334)" stroke="#A0AAA4" stroke-width="2.4" fill="none" stroke-linecap="round" stroke-linejoin="round"/><text x="67" y="231" font-family="'WenQuanYi Zen Hei','Microsoft YaHei','PingFang SC','Segoe UI',sans-serif" font-size="14" font-weight="500" fill="#627068" text-anchor="start" >Session</text><circle cx="38.166666666666664" cy="280" r="1.8333333333333335" stroke="#A0AAA4" stroke-width="2" fill="none"/><circle cx="49.833333333333336" cy="274.5833333333333" r="1.8333333333333335" stroke="#A0AAA4" stroke-width="2" fill="none"/><circle cx="49.833333333333336" cy="285.4166666666667" r="1.8333333333333335" stroke="#A0AAA4" stroke-width="2" fill="none"/><path d="M7 11 17 6.5M7 13l10 4.5" transform="translate(34 270) scale(0.8333333333333334)" stroke="#A0AAA4" stroke-width="2.4" fill="none" stroke-linecap="round" stroke-linejoin="round"/><text x="67" y="285" font-family="'WenQuanYi Zen Hei','Microsoft YaHei','PingFang SC','Segoe UI',sans-serif" font-size="14" font-weight="500" fill="#627068" text-anchor="start" >任务空间</text><path d="M5 5h14v14H5zM9 9h6v6H9zM9 2v3M15 2v3M9 19v3M15 19v3M2 9h3M19 9h3M2 15h3M19 15h3" transform="translate(34 324) scale(0.8333333333333334)" stroke="#A0AAA4" stroke-width="2.4" fill="none" stroke-linecap="round" stroke-linejoin="round"/><text x="67" y="339" font-family="'WenQuanYi Zen Hei','Microsoft YaHei','PingFang SC','Segoe UI',sans-serif" font-size="14" font-weight="500" fill="#627068" text-anchor="start" >模型中心</text><rect x="18" y="368" width="184" height="42" rx="12" fill="#EAF7C0" stroke="none" stroke-width="1" /><path d="M4 13v-1a8 8 0 0 1 16 0v1M3 13h4v7H3zM17 13h4v7h-4z" transform="translate(34 378) scale(0.8333333333333334)" stroke="#9FD000" stroke-width="2.4" fill="none" stroke-linecap="round" stroke-linejoin="round"/><text x="67" y="393" font-family="'WenQuanYi Zen Hei','Microsoft YaHei','PingFang SC','Segoe UI',sans-serif" font-size="14" font-weight="650" fill="#111714" text-anchor="start" >设备</text><rect x="18" y="376" width="3" height="26" rx="2" fill="#9FD000" stroke="none" stroke-width="1" /><circle cx="44" cy="442" r="2.5" stroke="#A0AAA4" stroke-width="2" fill="none"/><path d="M12 3v2M12 19v2M3 12h2M19 12h2M5.6 5.6 7 7M17 17l1.4 1.4M5.6 18.4 7 17M17 7l1.4-1.4" transform="translate(34 432) scale(0.8333333333333334)" stroke="#A0AAA4" stroke-width="2.4" fill="none" stroke-linecap="round" stroke-linejoin="round"/><text x="67" y="447" font-family="'WenQuanYi Zen Hei','Microsoft YaHei','PingFang SC','Segoe UI',sans-serif" font-size="14" font-weight="500" fill="#627068" text-anchor="start" >设置</text><rect x="22" y="846" width="176" height="66" rx="16" fill="#F7F9F6" stroke="#DFE4E0" stroke-width="1" /><circle cx="48" cy="879" r="17" fill="#DFE4E0" stroke="none" stroke-width="1" /><text x="48" y="884" font-family="'WenQuanYi Zen Hei','Microsoft YaHei','PingFang SC','Segoe UI',sans-serif" font-size="14" font-weight="750" fill="#111714" text-anchor="middle" >J</text><text x="75" y="875" font-family="'WenQuanYi Zen Hei','Microsoft YaHei','PingFang SC','Segoe UI',sans-serif" font-size="13" font-weight="650" fill="#111714" text-anchor="start" >Jacob</text><text x="75" y="894" font-family="'WenQuanYi Zen Hei','Microsoft YaHei','PingFang SC','Segoe UI',sans-serif" font-size="11" font-weight="400" fill="#627068" text-anchor="start" >本地工作区</text><text x="258" y="57" font-family="'WenQuanYi Zen Hei','Microsoft YaHei','PingFang SC','Segoe UI',sans-serif" font-size="27" font-weight="750" fill="#111714" text-anchor="start" >首次启动</text><text x="258" y="84" font-family="'WenQuanYi Zen Hei','Microsoft YaHei','PingFang SC','Segoe UI',sans-serif" font-size="13" font-weight="400" fill="#627068" text-anchor="start" >用三步建立可理解、可暂停的本地 AI 工作环境</text><line x1="220" y1="106" x2="1672" y2="106" stroke="#DFE4E0" stroke-width="1" stroke-linecap="round"/><rect x="1356" y="40" width="104" height="30" rx="15" fill="#EAF7C0" stroke="none" stroke-width="1" /><circle cx="1372" cy="55" r="4" fill="#425700" stroke="none" stroke-width="1" /><text x="1383" y="60" font-family="'WenQuanYi Zen Hei','Microsoft YaHei','PingFang SC','Segoe UI',sans-serif" font-size="12" font-weight="600" fill="#425700" text-anchor="start" >步骤 1 / 3</text><rect x="258" y="150" width="1110" height="690" rx="26" fill="#FFFFFF" stroke="#DFE4E0" stroke-width="1" filter="url(#shadow)"/><circle cx="486" cy="376" r="134" fill="url(#glow)" stroke="none" stroke-width="1" /><path d="M486 252l90 38v68c0 69-48 121-90 145-43-24-90-76-90-145v-68z" stroke="#9FD000" stroke-width="7" fill="#F7F9F6" stroke-linecap="round" stroke-linejoin="round" /><circle cx="462" cy="362" r="7" fill="#9FD000" stroke="none" stroke-width="1" /><circle cx="510" cy="362" r="7" fill="#9FD000" stroke="none" stroke-width="1" /><path d="M468 398q18 13 36 0" stroke="#9FD000" stroke-width="4" fill="none" stroke-linecap="round" stroke-linejoin="round" /><text x="486" y="551" font-family="'WenQuanYi Zen Hei','Microsoft YaHei','PingFang SC','Segoe UI',sans-serif" font-size="18" font-weight="750" fill="#111714" text-anchor="middle" >你始终拥有控制权</text><text x="486" y="579" font-family="'WenQuanYi Zen Hei','Microsoft YaHei','PingFang SC','Segoe UI',sans-serif" font-size="12" font-weight="450" fill="#627068" text-anchor="middle" >停、暂停、取消与接管始终在本地生效</text><text x="730" y="236" font-family="'WenQuanYi Zen Hei','Microsoft YaHei','PingFang SC','Segoe UI',sans-serif" font-size="30" font-weight="780" fill="#111714" text-anchor="start" >准备 AI Cursor</text><text x="730" y="278" font-family="'WenQuanYi Zen Hei','Microsoft YaHei','PingFang SC','Segoe UI',sans-serif" font-size="13" font-weight="450" fill="#627068" text-anchor="start"><tspan x="730" dy="0">只需完成最小配置，后续可在设置中修改。</tspan><tspan x="730" dy="20.150000000000002">我们不会默认保存原始音频或敏感凭据。</tspan></text><rect x="730" y="364" width="550" height="88" rx="16" fill="#F7F9F6" stroke="#DFE4E0" stroke-width="1" /><rect x="750" y="382" width="48" height="48" rx="14" fill="#EAF7C0" stroke="none" stroke-width="1" /><path d="M9 4v7a3 3 0 0 0 6 0V4zM5 11a7 7 0 0 0 14 0M12 18v3" transform="translate(762 394) scale(1)" stroke="#9FD000" stroke-width="2" fill="none" stroke-linecap="round" stroke-linejoin="round"/><text x="818" y="399" font-family="'WenQuanYi Zen Hei','Microsoft YaHei','PingFang SC','Segoe UI',sans-serif" font-size="14" font-weight="700" fill="#111714" text-anchor="start" >麦克风权限</text><text x="818" y="422" font-family="'WenQuanYi Zen Hei','Microsoft YaHei','PingFang SC','Segoe UI',sans-serif" font-size="11" font-weight="400" fill="#627068" text-anchor="start" >允许真实语音输入与插话检测</text><rect x="1162" y="392" width="94" height="30" rx="15" fill="#EAF7C0" stroke="none" stroke-width="1" /><circle cx="1178" cy="407" r="4" fill="#425700" stroke="none" stroke-width="1" /><text x="1189" y="412" font-family="'WenQuanYi Zen Hei','Microsoft YaHei','PingFang SC','Segoe UI',sans-serif" font-size="12" font-weight="600" fill="#425700" text-anchor="start" >已允许</text><rect x="730" y="472" width="550" height="88" rx="16" fill="#F7F9F6" stroke="#DFE4E0" stroke-width="1" /><rect x="750" y="490" width="48" height="48" rx="14" fill="#FFF2CF" stroke="none" stroke-width="1" /><path d="M4 13v-1a8 8 0 0 1 16 0v1M3 13h4v7H3zM17 13h4v7h-4z" transform="translate(762 502) scale(1)" stroke="#F3B83F" stroke-width="2" fill="none" stroke-linecap="round" stroke-linejoin="round"/><text x="818" y="507" font-family="'WenQuanYi Zen Hei','Microsoft YaHei','PingFang SC','Segoe UI',sans-serif" font-size="14" font-weight="700" fill="#111714" text-anchor="start" >音频输出</text><text x="818" y="530" font-family="'WenQuanYi Zen Hei','Microsoft YaHei','PingFang SC','Segoe UI',sans-serif" font-size="11" font-weight="400" fill="#627068" text-anchor="start" >选择耳机或电脑扬声器</text><rect x="1162" y="500" width="94" height="30" rx="15" fill="#FFF2CF" stroke="none" stroke-width="1" /><circle cx="1178" cy="515" r="4" fill="#F3B83F" stroke="none" stroke-width="1" /><text x="1189" y="520" font-family="'WenQuanYi Zen Hei','Microsoft YaHei','PingFang SC','Segoe UI',sans-serif" font-size="12" font-weight="600" fill="#F3B83F" text-anchor="start" >待选择</text><rect x="730" y="580" width="550" height="88" rx="16" fill="#F7F9F6" stroke="#DFE4E0" stroke-width="1" /><rect x="750" y="598" width="48" height="48" rx="14" fill="#FFFFFF" stroke="none" stroke-width="1" /><path d="M5 5h14v14H5zM9 9h6v6H9zM9 2v3M15 2v3M9 19v3M15 19v3M2 9h3M19 9h3M2 15h3M19 15h3" transform="translate(762 610) scale(1)" stroke="#9FD000" stroke-width="2" fill="none" stroke-linecap="round" stroke-linejoin="round"/><text x="818" y="615" font-family="'WenQuanYi Zen Hei','Microsoft YaHei','PingFang SC','Segoe UI',sans-serif" font-size="14" font-weight="700" fill="#111714" text-anchor="start" >固定 Provider</text><text x="818" y="638" font-family="'WenQuanYi Zen Hei','Microsoft YaHei','PingFang SC','Segoe UI',sans-serif" font-size="11" font-weight="400" fill="#627068" text-anchor="start" >Cycle 1 期间只使用一个 Provider</text><rect x="1162" y="608" width="94" height="30" rx="15" fill="#F7F9F6" stroke="none" stroke-width="1" /><circle cx="1178" cy="623" r="4" fill="#627068" stroke="none" stroke-width="1" /><text x="1189" y="628" font-family="'WenQuanYi Zen Hei','Microsoft YaHei','PingFang SC','Segoe UI',sans-serif" font-size="12" font-weight="600" fill="#627068" text-anchor="start" >未配置</text><rect x="730" y="716" width="120" height="40" rx="12" fill="#F7F9F6" stroke="#DFE4E0" stroke-width="1" /><text x="790" y="741" font-family="'WenQuanYi Zen Hei','Microsoft YaHei','PingFang SC','Segoe UI',sans-serif" font-size="13" font-weight="650" fill="#111714" text-anchor="middle" >稍后设置</text><rect x="1110" y="716" width="170" height="40" rx="12" fill="#9FD000" stroke="none" stroke-width="1" /><text x="1195" y="741" font-family="'WenQuanYi Zen Hei','Microsoft YaHei','PingFang SC','Segoe UI',sans-serif" font-size="13" font-weight="650" fill="#090D0B" text-anchor="middle" >继续选择设备</text></svg>