<svg xmlns="http://www.w3.org/2000/svg" width="1672" height="941" viewBox="0 0 1672 941"><defs><filter id="shadow"><feDropShadow dx="0" dy="10" stdDeviation="18" flood-color="rgba(0,0,0,.32)"/></filter><radialGradient id="glow"><stop offset="0" stop-color="#B8E51B" stop-opacity=".22"/><stop offset="1" stop-color="#B8E51B" stop-opacity="0"/></radialGradient></defs><rect x="0" y="0" width="1672" height="941" rx="0" fill="#0E1210" stroke="none" stroke-width="1" /><rect x="0" y="0" width="220" height="941" rx="0" fill="#090D0B" stroke="none" stroke-width="1" /><rect x="28" y="26" width="36" height="36" rx="11" fill="#B8E51B" stroke="none" stroke-width="1" /><path d="M53 37a9 9 0 1 0 .5 14" stroke="#090D0B" stroke-width="3" fill="none" stroke-linecap="round" stroke-linejoin="round" /><circle cx="46" cy="44" r="3" fill="#090D0B" stroke="none" stroke-width="1" /><text x="76" y="49" font-family="'WenQuanYi Zen Hei','Microsoft YaHei','PingFang SC','Segoe UI',sans-serif" font-size="16" font-weight="700" fill="#F4F7F4" text-anchor="start" >AI Cursor</text><rect x="164" y="34" width="29" height="20" rx="6" fill="rgba(184,229,27,.13)" stroke="none" stroke-width="1" /><text x="178.5" y="48" font-family="'WenQuanYi Zen Hei','Microsoft YaHei','PingFang SC','Segoe UI',sans-serif" font-size="10" font-weight="800" fill="#B8E51B" text-anchor="middle" >V2</text><path d="M3 10.5 12 3l9 7.5M5 9.5V20h14V9.5M9.5 20v-6h5v6" transform="translate(34 108) scale(0.8333333333333334)" stroke="#6F7B73" stroke-width="2.4" fill="none" stroke-linecap="round" stroke-linejoin="round"/><text x="67" y="123" font-family="'WenQuanYi Zen Hei','Microsoft YaHei','PingFang SC','Segoe UI',sans-serif" font-size="14" font-weight="500" fill="#A8B3AC" text-anchor="start" >工作台</text><circle cx="39" cy="167" r="2" stroke="#6F7B73" stroke-width="2" fill="none"/><circle cx="49" cy="167" r="2" stroke="#6F7B73" stroke-width="2" fill="none"/><circle cx="44" cy="177" r="2" stroke="#6F7B73" stroke-width="2" fill="none"/><path d="M6 8.4v3a2 2 0 0 0 2 2h2.4M18 8.4v3a2 2 0 0 1-2 2h-2.4" transform="translate(34 162) scale(0.8333333333333334)" stroke="#6F7B73" stroke-width="2.4" fill="none" stroke-linecap="round" stroke-linejoin="round"/><text x="67" y="177" font-family="'WenQuanYi Zen Hei','Microsoft YaHei','PingFang SC','Segoe UI',sans-serif" font-size="14" font-weight="500" fill="#A8B3AC" text-anchor="start" >工作流</text><path d="M6 5h13M6 12h13M6 19h13M3 5h.01M3 12h.01M3 19h.01" transform="translate(34 216) scale(0.8333333333333334)" stroke="#6F7B73" stroke-width="2.4" fill="none" stroke-linecap="round" stroke-linejoin="round"/><text x="67" y="231" font-family="'WenQuanYi Zen Hei','Microsoft YaHei','PingFang SC','Segoe UI',sans-serif" font-size="14" font-weight="500" fill="#A8B3AC" text-anchor="start" >Session</text><circle cx="38.166666666666664" cy="280" r="1.8333333333333335" stroke="#6F7B73" stroke-width="2" fill="none"/><circle cx="49.833333333333336" cy="274.5833333333333" r="1.8333333333333335" stroke="#6F7B73" stroke-width="2" fill="none"/><circle cx="49.833333333333336" cy="285.4166666666667" r="1.8333333333333335" stroke="#6F7B73" stroke-width="2" fill="none"/><path d="M7 11 17 6.5M7 13l10 4.5" transform="translate(34 270) scale(0.8333333333333334)" stroke="#6F7B73" stroke-width="2.4" fill="none" stroke-linecap="round" stroke-linejoin="round"/><text x="67" y="285" font-family="'WenQuanYi Zen Hei','Microsoft YaHei','PingFang SC','Segoe UI',sans-serif" font-size="14" font-weight="500" fill="#A8B3AC" text-anchor="start" >任务空间</text><path d="M5 5h14v14H5zM9 9h6v6H9zM9 2v3M15 2v3M9 19v3M15 19v3M2 9h3M19 9h3M2 15h3M19 15h3" transform="translate(34 324) scale(0.8333333333333334)" stroke="#6F7B73" stroke-width="2.4" fill="none" stroke-linecap="round" stroke-linejoin="round"/><text x="67" y="339" font-family="'WenQuanYi Zen Hei','Microsoft YaHei','PingFang SC','Segoe UI',sans-serif" font-size="14" font-weight="500" fill="#A8B3AC" text-anchor="start" >模型中心</text><path d="M4 13v-1a8 8 0 0 1 16 0v1M3 13h4v7H3zM17 13h4v7h-4z" transform="translate(34 378) scale(0.8333333333333334)" stroke="#6F7B73" stroke-width="2.4" fill="none" stroke-linecap="round" stroke-linejoin="round"/><text x="67" y="393" font-family="'WenQuanYi Zen Hei','Microsoft YaHei','PingFang SC','Segoe UI',sans-serif" font-size="14" font-weight="500" fill="#A8B3AC" text-anchor="start" >设备</text><rect x="18" y="422" width="184" height="42" rx="12" fill="rgba(184,229,27,.12)" stroke="none" stroke-width="1" /><circle cx="44" cy="442" r="2.5" stroke="#B8E51B" stroke-width="2" fill="none"/><path d="M12 3v2M12 19v2M3 12h2M19 12h2M5.6 5.6 7 7M17 17l1.4 1.4M5.6 18.4 7 17M17 7l1.4-1.4" transform="translate(34 432) scale(0.8333333333333334)" stroke="#B8E51B" stroke-width="2.4" fill="none" stroke-linecap="round" stroke-linejoin="round"/><text x="67" y="447" font-family="'WenQuanYi Zen Hei','Microsoft YaHei','PingFang SC','Segoe UI',sans-serif" font-size="14" font-weight="650" fill="#F4F7F4" text-anchor="start" >设置</text><rect x="18" y="430" width="3" height="26" rx="2" fill="#B8E51B" stroke="none" stroke-width="1" /><rect x="22" y="846" width="176" height="66" rx="16" fill="#1A201C" stroke="#252D27" stroke-width="1" /><circle cx="48" cy="879" r="17" fill="#344038" stroke="none" stroke-width="1" /><text x="48" y="884" font-family="'WenQuanYi Zen Hei','Microsoft YaHei','PingFang SC','Segoe UI',sans-serif" font-size="14" font-weight="750" fill="#F4F7F4" text-anchor="middle" >J</text><text x="75" y="875" font-family="'WenQuanYi Zen Hei','Microsoft YaHei','PingFang SC','Segoe UI',sans-serif" font-size="13" font-weight="650" fill="#F4F7F4" text-anchor="start" >Jacob</text><text x="75" y="894" font-family="'WenQuanYi Zen Hei','Microsoft YaHei','PingFang SC','Segoe UI',sans-serif" font-size="11" font-weight="400" fill="#A8B3AC" text-anchor="start" >本地工作区</text><text x="258" y="57" font-family="'WenQuanYi Zen Hei','Microsoft YaHei','PingFang SC','Segoe UI',sans-serif" font-size="27" font-weight="750" fill="#F4F7F4" text-anchor="start" >统一设计系统 · Dark</text><text x="258" y="84" font-family="'WenQuanYi Zen Hei','Microsoft YaHei','PingFang SC','Segoe UI',sans-serif" font-size="13" font-weight="400" fill="#A8B3AC" text-anchor="start" >从视觉参考到可复用 Token、组件和资产</text><line x1="220" y1="106" x2="1672" y2="106" stroke="#252D27" stroke-width="1" stroke-linecap="round"/><rect x="1322" y="40" width="138" height="30" rx="15" fill="rgba(184,229,27,.12)" stroke="none" stroke-width="1" /><circle cx="1338" cy="55" r="4" fill="#B8E51B" stroke="none" stroke-width="1" /><text x="1349" y="60" font-family="'WenQuanYi Zen Hei','Microsoft YaHei','PingFang SC','Segoe UI',sans-serif" font-size="12" font-weight="600" fill="#B8E51B" text-anchor="start" >Design System v1</text><text x="258" y="145" font-family="'WenQuanYi Zen Hei','Microsoft YaHei','PingFang SC','Segoe UI',sans-serif" font-size="16" font-weight="700" fill="#F4F7F4" text-anchor="start" >品牌核心</text><text x="260" y="167" font-family="'WenQuanYi Zen Hei','Microsoft YaHei','PingFang SC','Segoe UI',sans-serif" font-size="11" font-weight="400" fill="#A8B3AC" text-anchor="start" >可信赖、可中断、可追踪、适合长期办公</text><rect x="258" y="182" width="504" height="246" rx="22" fill="#141916" stroke="#252D27" stroke-width="1" filter="url(#shadow)"/><rect x="290" y="218" width="36" height="36" rx="11" fill="#B8E51B" stroke="none" stroke-width="1" /><path d="M315 229a9 9 0 1 0 .5 14" stroke="#090D0B" stroke-width="3" fill="none" stroke-linecap="round" stroke-linejoin="round" /><circle cx="308" cy="236" r="3" fill="#090D0B" stroke="none" stroke-width="1" /><text x="338" y="241" font-family="'WenQuanYi Zen Hei','Microsoft YaHei','PingFang SC','Segoe UI',sans-serif" font-size="16" font-weight="700" fill="#F4F7F4" text-anchor="start" >AI Cursor</text><rect x="426" y="226" width="29" height="20" rx="6" fill="rgba(184,229,27,.13)" stroke="none" stroke-width="1" /><text x="440.5" y="240" font-family="'WenQuanYi Zen Hei','Microsoft YaHei','PingFang SC','Segoe UI',sans-serif" font-size="10" font-weight="800" fill="#B8E51B" text-anchor="middle" >V2</text><text x="290" y="294" font-family="'WenQuanYi Zen Hei','Microsoft YaHei','PingFang SC','Segoe UI',sans-serif" font-size="32" font-weight="780" fill="#F4F7F4" text-anchor="start" >AI Desktop Employee</text><text x="290" y="326" font-family="'WenQuanYi Zen Hei','Microsoft YaHei','PingFang SC','Segoe UI',sans-serif" font-size="13" font-weight="450" fill="#A8B3AC" text-anchor="start"><tspan x="290" dy="0">人负责目标、权限与最终决定</tspan><tspan x="290" dy="20.150000000000002">AI 负责执行、记录与持续改进</tspan></text><circle cx="648" cy="310" r="72" fill="url(#glow)" stroke="none" stroke-width="1" /><path d="M660 245l54 22v40c0 42-28 75-54 90-27-15-54-48-54-90v-40z" stroke="#B8E51B" stroke-width="6" fill="#1A201C" stroke-linecap="round" stroke-linejoin="round" /><circle cx="644" cy="307" r="5" fill="#B8E51B" stroke="none" stroke-width="1" /><circle cx="675" cy="307" r="5" fill="#B8E51B" stroke="none" stroke-width="1" /><path d="M650 332q10 8 20 0" stroke="#B8E51B" stroke-width="3" fill="none" stroke-linecap="round" stroke-linejoin="round" /><text x="792" y="145" font-family="'WenQuanYi Zen Hei','Microsoft YaHei','PingFang SC','Segoe UI',sans-serif" font-size="16" font-weight="700" fill="#F4F7F4" text-anchor="start" >主题与表面</text><text x="794" y="167" font-family="'WenQuanYi Zen Hei','Microsoft YaHei','PingFang SC','Segoe UI',sans-serif" font-size="11" font-weight="400" fill="#A8B3AC" text-anchor="start" >同一语义，两套对比度与光影</text><rect x="792" y="182" width="612" height="246" rx="22" fill="#141916" stroke="#252D27" stroke-width="1" filter="url(#shadow)"/><rect x="822" y="216" width="52" height="52" rx="14" fill="#B8E51B" stroke="none" stroke-width="1" /><text x="887" y="238" font-family="'WenQuanYi Zen Hei','Microsoft YaHei','PingFang SC','Segoe UI',sans-serif" font-size="12" font-weight="650" fill="#F4F7F4" text-anchor="start" >Brand 400</text><text x="887" y="259" font-family="'WenQuanYi Zen Hei','Microsoft YaHei','PingFang SC','Segoe UI',sans-serif" font-size="10" font-weight="400" fill="#A8B3AC" text-anchor="start" >#B8E51B</text><rect x="1010" y="216" width="52" height="52" rx="14" fill="#9FD000" stroke="none" stroke-width="1" /><text x="1075" y="238" font-family="'WenQuanYi Zen Hei','Microsoft YaHei','PingFang SC','Segoe UI',sans-serif" font-size="12" font-weight="650" fill="#F4F7F4" text-anchor="start" >Brand 500</text><text x="1075" y="259" font-family="'WenQuanYi Zen Hei','Microsoft YaHei','PingFang SC','Segoe UI',sans-serif" font-size="10" font-weight="400" fill="#A8B3AC" text-anchor="start" >#9FD000</text><rect x="1198" y="216" width="52" height="52" rx="14" fill="#0E1210" stroke="none" stroke-width="1" /><text x="1263" y="238" font-family="'WenQuanYi Zen Hei','Microsoft YaHei','PingFang SC','Segoe UI',sans-serif" font-size="12" font-weight="650" fill="#F4F7F4" text-anchor="start" >Ink 900</text><text x="1263" y="259" font-family="'WenQuanYi Zen Hei','Microsoft YaHei','PingFang SC','Segoe UI',sans-serif" font-size="10" font-weight="400" fill="#A8B3AC" text-anchor="start" >#0E1210</text><rect x="822" y="308" width="52" height="52" rx="14" fill="#F4F6F2" stroke="#DFE4E0" stroke-width="1" /><text x="887" y="330" font-family="'WenQuanYi Zen Hei','Microsoft YaHei','PingFang SC','Segoe UI',sans-serif" font-size="12" font-weight="650" fill="#F4F7F4" text-anchor="start" >Paper</text><text x="887" y="351" font-family="'WenQuanYi Zen Hei','Microsoft YaHei','PingFang SC','Segoe UI',sans-serif" font-size="10" font-weight="400" fill="#A8B3AC" text-anchor="start" >#F4F6F2</text><rect x="1010" y="308" width="52" height="52" rx="14" fill="#F3B83F" stroke="none" stroke-width="1" /><text x="1075" y="330" font-family="'WenQuanYi Zen Hei','Microsoft YaHei','PingFang SC','Segoe UI',sans-serif" font-size="12" font-weight="650" fill="#F4F7F4" text-anchor="start" >Warning</text><text x="1075" y="351" font-family="'WenQuanYi Zen Hei','Microsoft YaHei','PingFang SC','Segoe UI',sans-serif" font-size="10" font-weight="400" fill="#A8B3AC" text-anchor="start" >#F3B83F</text><rect x="1198" y="308" width="52" height="52" rx="14" fill="#F05F62" stroke="none" stroke-width="1" /><text x="1263" y="330" font-family="'WenQuanYi Zen Hei','Microsoft YaHei','PingFang SC','Segoe UI',sans-serif" font-size="12" font-weight="650" fill="#F4F7F4" text-anchor="start" >Danger</text><text x="1263" y="351" font-family="'WenQuanYi Zen Hei','Microsoft YaHei','PingFang SC','Segoe UI',sans-serif" font-size="10" font-weight="400" fill="#A8B3AC" text-anchor="start" >#F05F62</text><text x="258" y="474" font-family="'WenQuanYi Zen Hei','Microsoft YaHei','PingFang SC','Segoe UI',sans-serif" font-size="16" font-weight="700" fill="#F4F7F4" text-anchor="start" >排版与间距</text><rect x="258" y="510" width="504" height="338" rx="22" fill="#141916" stroke="#252D27" stroke-width="1" filter="url(#shadow)"/><text x="290" y="564" font-family="'WenQuanYi Zen Hei','Microsoft YaHei','PingFang SC','Segoe UI',sans-serif" font-size="30" font-weight="760" fill="#F4F7F4" text-anchor="start" >页面标题 / 28–32</text><text x="290" y="610" font-family="'WenQuanYi Zen Hei','Microsoft YaHei','PingFang SC','Segoe UI',sans-serif" font-size="18" font-weight="700" fill="#F4F7F4" text-anchor="start" >模块标题 / 16–18</text><text x="290" y="650" font-family="'WenQuanYi Zen Hei','Microsoft YaHei','PingFang SC','Segoe UI',sans-serif" font-size="14" font-weight="500" fill="#F4F7F4" text-anchor="start" >正文与表格 / 13–14</text><text x="290" y="684" font-family="'WenQuanYi Zen Hei','Microsoft YaHei','PingFang SC','Segoe UI',sans-serif" font-size="11" font-weight="400" fill="#A8B3AC" text-anchor="start" >辅助说明 / 11–12</text><line x1="290" y1="720" x2="722" y2="720" stroke="#252D27" stroke-width="1" stroke-linecap="round"/><rect x="290" y="752" width="4" height="16" rx="4" fill="#B8E51B" stroke="none" stroke-width="1" /><text x="290" y="796" font-family="'WenQuanYi Zen Hei','Microsoft YaHei','PingFang SC','Segoe UI',sans-serif" font-size="10" font-weight="400" fill="#A8B3AC" text-anchor="start" >4</text><rect x="360" y="752" width="8" height="16" rx="4" fill="#B8E51B" stroke="none" stroke-width="1" /><text x="360" y="796" font-family="'WenQuanYi Zen Hei','Microsoft YaHei','PingFang SC','Segoe UI',sans-serif" font-size="10" font-weight="400" fill="#A8B3AC" text-anchor="start" >8</text><rect x="430" y="752" width="12" height="16" rx="4" fill="#B8E51B" stroke="none" stroke-width="1" /><text x="430" y="796" font-family="'WenQuanYi Zen Hei','Microsoft YaHei','PingFang SC','Segoe UI',sans-serif" font-size="10" font-weight="400" fill="#A8B3AC" text-anchor="start" >12</text><rect x="500" y="752" width="16" height="16" rx="4" fill="#B8E51B" stroke="none" stroke-width="1" /><text x="500" y="796" font-family="'WenQuanYi Zen Hei','Microsoft YaHei','PingFang SC','Segoe UI',sans-serif" font-size="10" font-weight="400" fill="#A8B3AC" text-anchor="start" >16</text><rect x="570" y="752" width="24" height="16" rx="4" fill="#B8E51B" stroke="none" stroke-width="1" /><text x="570" y="796" font-family="'WenQuanYi Zen Hei','Microsoft YaHei','PingFang SC','Segoe UI',sans-serif" font-size="10" font-weight="400" fill="#A8B3AC" text-anchor="start" >24</text><rect x="640" y="752" width="32" height="16" rx="4" fill="#B8E51B" stroke="none" stroke-width="1" /><text x="640" y="796" font-family="'WenQuanYi Zen Hei','Microsoft YaHei','PingFang SC','Segoe UI',sans-serif" font-size="10" font-weight="400" fill="#A8B3AC" text-anchor="start" >32</text><text x="290" y="828" font-family="'WenQuanYi Zen Hei','Microsoft YaHei','PingFang SC','Segoe UI',sans-serif" font-size="11" font-weight="400" fill="#A8B3AC" text-anchor="start" >8px 基础网格 · 12/16/20/24 圆角 · 克制的高程阴影</text><text x="792" y="474" font-family="'WenQuanYi Zen Hei','Microsoft YaHei','PingFang SC','Segoe UI',sans-serif" font-size="16" font-weight="700" fill="#F4F7F4" text-anchor="start" >状态语义</text><rect x="792" y="510" width="612" height="338" rx="22" fill="#141916" stroke="#252D27" stroke-width="1" filter="url(#shadow)"/><rect x="824" y="548" width="154" height="30" rx="15" fill="rgba(184,229,27,.12)" stroke="none" stroke-width="1" /><circle cx="840" cy="563" r="4" fill="#B8E51B" stroke="none" stroke-width="1" /><text x="851" y="568" font-family="'WenQuanYi Zen Hei','Microsoft YaHei','PingFang SC','Segoe UI',sans-serif" font-size="12" font-weight="600" fill="#B8E51B" text-anchor="start" >Listening · 正常</text><rect x="996" y="548" width="154" height="30" rx="15" fill="rgba(243,184,63,.12)" stroke="none" stroke-width="1" /><circle cx="1012" cy="563" r="4" fill="#F3B83F" stroke="none" stroke-width="1" /><text x="1023" y="568" font-family="'WenQuanYi Zen Hei','Microsoft YaHei','PingFang SC','Segoe UI',sans-serif" font-size="12" font-weight="600" fill="#F3B83F" text-anchor="start" >Waiting · 注意</text><rect x="1168" y="548" width="154" height="30" rx="15" fill="rgba(240,95,98,.12)" stroke="none" stroke-width="1" /><circle cx="1184" cy="563" r="4" fill="#F05F62" stroke="none" stroke-width="1" /><text x="1195" y="568" font-family="'WenQuanYi Zen Hei','Microsoft YaHei','PingFang SC','Segoe UI',sans-serif" font-size="12" font-weight="600" fill="#F05F62" text-anchor="start" >Blocked · 阻止</text><rect x="824" y="594" width="154" height="30" rx="15" fill="#1A201C" stroke="none" stroke-width="1" /><circle cx="840" cy="609" r="4" fill="#A8B3AC" stroke="none" stroke-width="1" /><text x="851" y="614" font-family="'WenQuanYi Zen Hei','Microsoft YaHei','PingFang SC','Segoe UI',sans-serif" font-size="12" font-weight="600" fill="#A8B3AC" text-anchor="start" >Paused · 暂停</text><rect x="996" y="594" width="154" height="30" rx="15" fill="rgba(76,141,255,.12)" stroke="none" stroke-width="1" /><circle cx="1012" cy="609" r="4" fill="#4C8DFF" stroke="none" stroke-width="1" /><text x="1023" y="614" font-family="'WenQuanYi Zen Hei','Microsoft YaHei','PingFang SC','Segoe UI',sans-serif" font-size="12" font-weight="600" fill="#4C8DFF" text-anchor="start" >Evidence · 信息</text><rect x="1168" y="594" width="154" height="30" rx="15" fill="rgba(184,229,27,.12)" stroke="none" stroke-width="1" /><circle cx="1184" cy="609" r="4" fill="#B8E51B" stroke="none" stroke-width="1" /><text x="1195" y="614" font-family="'WenQuanYi Zen Hei','Microsoft YaHei','PingFang SC','Segoe UI',sans-serif" font-size="12" font-weight="600" fill="#B8E51B" text-anchor="start" >Complete · 完成</text><rect x="824" y="665" width="486" height="64" rx="32" fill="#141916" stroke="#252D27" stroke-width="1" filter="url(#shadow)"/><circle cx="857" cy="697" r="21" fill="#B8E51B18" stroke="#B8E51B" stroke-width="1.5" /><path d="M9 4v7a3 3 0 0 0 6 0V4zM5 11a7 7 0 0 0 14 0M12 18v3" transform="translate(847 687) scale(0.8333333333333334)" stroke="#B8E51B" stroke-width="2.4" fill="none" stroke-linecap="round" stroke-linejoin="round"/><text x="890" y="692" font-family="'WenQuanYi Zen Hei','Microsoft YaHei','PingFang SC','Segoe UI',sans-serif" font-size="13" font-weight="700" fill="#F4F7F4" text-anchor="start" >Speaking</text><text x="890" y="711" font-family="'WenQuanYi Zen Hei','Microsoft YaHei','PingFang SC','Segoe UI',sans-serif" font-size="10" font-weight="400" fill="#A8B3AC" text-anchor="start" >正在回应，开口即可打断</text><rect x="1168" y="693" width="3" height="8" rx="2" fill="#B8E51B" stroke="none" stroke-width="1" /><rect x="1176" y="689.5" width="3" height="15" rx="2" fill="#B8E51B" stroke="none" stroke-width="1" /><rect x="1184" y="686" width="3" height="22" rx="2" fill="#B8E51B" stroke="none" stroke-width="1" /><rect x="1192" y="692.5" width="3" height="9" rx="2" fill="#B8E51B" stroke="none" stroke-width="1" /><rect x="1200" y="689" width="3" height="16" rx="2" fill="#B8E51B" stroke="none" stroke-width="1" /><rect x="1208" y="685.5" width="3" height="23" rx="2" fill="#B8E51B" stroke="none" stroke-width="1" /><rect x="1216" y="692" width="3" height="10" rx="2" fill="#B8E51B" stroke="none" stroke-width="1" /><rect x="1224" y="688.5" width="3" height="17" rx="2" fill="#B8E51B" stroke="none" stroke-width="1" /><rect x="1232" y="685" width="3" height="24" rx="2" fill="#B8E51B" stroke="none" stroke-width="1" /><rect x="1240" y="691.5" width="3" height="11" rx="2" fill="#B8E51B" stroke="none" stroke-width="1" /><rect x="1248" y="688" width="3" height="18" rx="2" fill="#B8E51B" stroke="none" stroke-width="1" /><circle cx="1282" cy="697" r="15" fill="#1A201C" stroke="none" stroke-width="1" /><path d="M9 5v14M15 5v14" transform="translate(1273 688) scale(0.75)" stroke="#A8B3AC" stroke-width="2" fill="none" stroke-linecap="round" stroke-linejoin="round"/><text x="824" y="763" font-family="'WenQuanYi Zen Hei','Microsoft YaHei','PingFang SC','Segoe UI',sans-serif" font-size="12" font-weight="700" fill="#F4F7F4" text-anchor="start" >规则</text><text x="824" y="788" font-family="'WenQuanYi Zen Hei','Microsoft YaHei','PingFang SC','Segoe UI',sans-serif" font-size="12" font-weight="450" fill="#A8B3AC" text-anchor="start"><tspan x="824" dy="0">状态必须同时使用颜色、图标和文字；</tspan><tspan x="824" dy="18">高风险动作永不依赖倒计时自动确认。</tspan></text></svg>