<svg xmlns="http://www.w3.org/2000/svg" width="1672" height="941" viewBox="0 0 1672 941"><defs><filter id="shadow"><feDropShadow dx="0" dy="10" stdDeviation="18" flood-color="rgba(0,0,0,.32)"/></filter><radialGradient id="glow"><stop offset="0" stop-color="#B8E51B" stop-opacity=".22"/><stop offset="1" stop-color="#B8E51B" stop-opacity="0"/></radialGradient></defs><rect x="0" y="0" width="1672" height="941" rx="0" fill="#0E1210" stroke="none" stroke-width="1" /><rect x="0" y="0" width="220" height="941" rx="0" fill="#090D0B" stroke="none" stroke-width="1" /><rect x="28" y="26" width="36" height="36" rx="11" fill="#B8E51B" stroke="none" stroke-width="1" /><path d="M53 37a9 9 0 1 0 .5 14" stroke="#090D0B" stroke-width="3" fill="none" stroke-linecap="round" stroke-linejoin="round" /><circle cx="46" cy="44" r="3" fill="#090D0B" stroke="none" stroke-width="1" /><text x="76" y="49" font-family="'WenQuanYi Zen Hei','Microsoft YaHei','PingFang SC','Segoe UI',sans-serif" font-size="16" font-weight="700" fill="#F4F7F4" text-anchor="start" >AI Cursor</text><rect x="164" y="34" width="29" height="20" rx="6" fill="rgba(184,229,27,.13)" stroke="none" stroke-width="1" /><text x="178.5" y="48" font-family="'WenQuanYi Zen Hei','Microsoft YaHei','PingFang SC','Segoe UI',sans-serif" font-size="10" font-weight="800" fill="#B8E51B" text-anchor="middle" >V2</text><path d="M3 10.5 12 3l9 7.5M5 9.5V20h14V9.5M9.5 20v-6h5v6" transform="translate(34 108) scale(0.8333333333333334)" stroke="#6F7B73" stroke-width="2.4" fill="none" stroke-linecap="round" stroke-linejoin="round"/><text x="67" y="123" font-family="'WenQuanYi Zen Hei','Microsoft YaHei','PingFang SC','Segoe UI',sans-serif" font-size="14" font-weight="500" fill="#A8B3AC" text-anchor="start" >工作台</text><circle cx="39" cy="167" r="2" stroke="#6F7B73" stroke-width="2" fill="none"/><circle cx="49" cy="167" r="2" stroke="#6F7B73" stroke-width="2" fill="none"/><circle cx="44" cy="177" r="2" stroke="#6F7B73" stroke-width="2" fill="none"/><path d="M6 8.4v3a2 2 0 0 0 2 2h2.4M18 8.4v3a2 2 0 0 1-2 2h-2.4" transform="translate(34 162) scale(0.8333333333333334)" stroke="#6F7B73" stroke-width="2.4" fill="none" stroke-linecap="round" stroke-linejoin="round"/><text x="67" y="177" font-family="'WenQuanYi Zen Hei','Microsoft YaHei','PingFang SC','Segoe UI',sans-serif" font-size="14" font-weight="500" fill="#A8B3AC" text-anchor="start" >工作流</text><path d="M6 5h13M6 12h13M6 19h13M3 5h.01M3 12h.01M3 19h.01" transform="translate(34 216) scale(0.8333333333333334)" stroke="#6F7B73" stroke-width="2.4" fill="none" stroke-linecap="round" stroke-linejoin="round"/><text x="67" y="231" font-family="'WenQuanYi Zen Hei','Microsoft YaHei','PingFang SC','Segoe UI',sans-serif" font-size="14" font-weight="500" fill="#A8B3AC" text-anchor="start" >Session</text><rect x="18" y="260" width="184" height="42" rx="12" fill="rgba(184,229,27,.12)" stroke="none" stroke-width="1" /><circle cx="38.166666666666664" cy="280" r="1.8333333333333335" stroke="#B8E51B" stroke-width="2" fill="none"/><circle cx="49.833333333333336" cy="274.5833333333333" r="1.8333333333333335" stroke="#B8E51B" stroke-width="2" fill="none"/><circle cx="49.833333333333336" cy="285.4166666666667" r="1.8333333333333335" stroke="#B8E51B" stroke-width="2" fill="none"/><path d="M7 11 17 6.5M7 13l10 4.5" transform="translate(34 270) scale(0.8333333333333334)" stroke="#B8E51B" stroke-width="2.4" fill="none" stroke-linecap="round" stroke-linejoin="round"/><text x="67" y="285" font-family="'WenQuanYi Zen Hei','Microsoft YaHei','PingFang SC','Segoe UI',sans-serif" font-size="14" font-weight="650" fill="#F4F7F4" text-anchor="start" >任务空间</text><rect x="18" y="268" width="3" height="26" rx="2" fill="#B8E51B" stroke="none" stroke-width="1" /><path d="M5 5h14v14H5zM9 9h6v6H9zM9 2v3M15 2v3M9 19v3M15 19v3M2 9h3M19 9h3M2 15h3M19 15h3" transform="translate(34 324) scale(0.8333333333333334)" stroke="#6F7B73" stroke-width="2.4" fill="none" stroke-linecap="round" stroke-linejoin="round"/><text x="67" y="339" font-family="'WenQuanYi Zen Hei','Microsoft YaHei','PingFang SC','Segoe UI',sans-serif" font-size="14" font-weight="500" fill="#A8B3AC" text-anchor="start" >模型中心</text><path d="M4 13v-1a8 8 0 0 1 16 0v1M3 13h4v7H3zM17 13h4v7h-4z" transform="translate(34 378) scale(0.8333333333333334)" stroke="#6F7B73" stroke-width="2.4" fill="none" stroke-linecap="round" stroke-linejoin="round"/><text x="67" y="393" font-family="'WenQuanYi Zen Hei','Microsoft YaHei','PingFang SC','Segoe UI',sans-serif" font-size="14" font-weight="500" fill="#A8B3AC" text-anchor="start" >设备</text><circle cx="44" cy="442" r="2.5" stroke="#6F7B73" stroke-width="2" fill="none"/><path d="M12 3v2M12 19v2M3 12h2M19 12h2M5.6 5.6 7 7M17 17l1.4 1.4M5.6 18.4 7 17M17 7l1.4-1.4" transform="translate(34 432) scale(0.8333333333333334)" stroke="#6F7B73" stroke-width="2.4" fill="none" stroke-linecap="round" stroke-linejoin="round"/><text x="67" y="447" font-family="'WenQuanYi Zen Hei','Microsoft YaHei','PingFang SC','Segoe UI',sans-serif" font-size="14" font-weight="500" fill="#A8B3AC" text-anchor="start" >设置</text><rect x="22" y="846" width="176" height="66" rx="16" fill="#1A201C" stroke="#252D27" stroke-width="1" /><circle cx="48" cy="879" r="17" fill="#344038" stroke="none" stroke-width="1" /><text x="48" y="884" font-family="'WenQuanYi Zen Hei','Microsoft YaHei','PingFang SC','Segoe UI',sans-serif" font-size="14" font-weight="750" fill="#F4F7F4" text-anchor="middle" >J</text><text x="75" y="875" font-family="'WenQuanYi Zen Hei','Microsoft YaHei','PingFang SC','Segoe UI',sans-serif" font-size="13" font-weight="650" fill="#F4F7F4" text-anchor="start" >Jacob</text><text x="75" y="894" font-family="'WenQuanYi Zen Hei','Microsoft YaHei','PingFang SC','Segoe UI',sans-serif" font-size="11" font-weight="400" fill="#A8B3AC" text-anchor="start" >本地工作区</text><text x="258" y="57" font-family="'WenQuanYi Zen Hei','Microsoft YaHei','PingFang SC','Segoe UI',sans-serif" font-size="27" font-weight="750" fill="#F4F7F4" text-anchor="start" >研究中文全双工模型</text><text x="258" y="84" font-family="'WenQuanYi Zen Hei','Microsoft YaHei','PingFang SC','Segoe UI',sans-serif" font-size="13" font-weight="400" fill="#A8B3AC" text-anchor="start" >当前焦点任务 · 只读 BrowserView · Session #A-024</text><line x1="220" y1="106" x2="1672" y2="106" stroke="#252D27" stroke-width="1" stroke-linecap="round"/><rect x="1360" y="40" width="100" height="30" rx="15" fill="rgba(76,141,255,.12)" stroke="none" stroke-width="1" /><circle cx="1376" cy="55" r="4" fill="#4C8DFF" stroke="none" stroke-width="1" /><text x="1387" y="60" font-family="'WenQuanYi Zen Hei','Microsoft YaHei','PingFang SC','Segoe UI',sans-serif" font-size="12" font-weight="600" fill="#4C8DFF" text-anchor="start" >Read only</text><rect x="1248" y="40" width="102" height="30" rx="15" fill="rgba(184,229,27,.12)" stroke="none" stroke-width="1" /><circle cx="1264" cy="55" r="4" fill="#B8E51B" stroke="none" stroke-width="1" /><text x="1275" y="60" font-family="'WenQuanYi Zen Hei','Microsoft YaHei','PingFang SC','Segoe UI',sans-serif" font-size="12" font-weight="600" fill="#B8E51B" text-anchor="start" >Speaking</text><rect x="258" y="144" width="260" height="684" rx="20" fill="#141916" stroke="#252D27" stroke-width="1" filter="url(#shadow)"/><text x="280" y="181" font-family="'WenQuanYi Zen Hei','Microsoft YaHei','PingFang SC','Segoe UI',sans-serif" font-size="14" font-weight="700" fill="#F4F7F4" text-anchor="start" >任务步骤</text><line x1="301" y1="245" x2="301" y2="309" stroke="#252D27" stroke-width="2" stroke-linecap="round"/><circle cx="301" cy="234" r="10" fill="#1A201C" stroke="#B8E51B" stroke-width="2" /><path d="M5 12l4 4L19 6" transform="translate(294 227) scale(0.5833333333333334)" stroke="#B8E51B" stroke-width="3.4285714285714284" fill="none" stroke-linecap="round" stroke-linejoin="round"/><text x="326" y="230" font-family="'WenQuanYi Zen Hei','Microsoft YaHei','PingFang SC','Segoe UI',sans-serif" font-size="12" font-weight="650" fill="#F4F7F4" text-anchor="start" >理解目标</text><text x="326" y="252" font-family="'WenQuanYi Zen Hei','Microsoft YaHei','PingFang SC','Segoe UI',sans-serif" font-size="10" font-weight="550" fill="#B8E51B" text-anchor="start" >完成</text><line x1="301" y1="328" x2="301" y2="392" stroke="#252D27" stroke-width="2" stroke-linecap="round"/><circle cx="301" cy="317" r="10" fill="#1A201C" stroke="#B8E51B" stroke-width="2" /><path d="M5 12l4 4L19 6" transform="translate(294 310) scale(0.5833333333333334)" stroke="#B8E51B" stroke-width="3.4285714285714284" fill="none" stroke-linecap="round" stroke-linejoin="round"/><text x="326" y="313" font-family="'WenQuanYi Zen Hei','Microsoft YaHei','PingFang SC','Segoe UI',sans-serif" font-size="12" font-weight="650" fill="#F4F7F4" text-anchor="start" >制定搜索计划</text><text x="326" y="335" font-family="'WenQuanYi Zen Hei','Microsoft YaHei','PingFang SC','Segoe UI',sans-serif" font-size="10" font-weight="550" fill="#B8E51B" text-anchor="start" >完成</text><line x1="301" y1="411" x2="301" y2="475" stroke="#252D27" stroke-width="2" stroke-linecap="round"/><circle cx="301" cy="400" r="10" fill="#1A201C" stroke="#4C8DFF" stroke-width="2" /><text x="326" y="396" font-family="'WenQuanYi Zen Hei','Microsoft YaHei','PingFang SC','Segoe UI',sans-serif" font-size="12" font-weight="650" fill="#F4F7F4" text-anchor="start" >读取来源</text><text x="326" y="418" font-family="'WenQuanYi Zen Hei','Microsoft YaHei','PingFang SC','Segoe UI',sans-serif" font-size="10" font-weight="550" fill="#4C8DFF" text-anchor="start" >进行中</text><line x1="301" y1="494" x2="301" y2="558" stroke="#252D27" stroke-width="2" stroke-linecap="round"/><circle cx="301" cy="483" r="10" fill="#1A201C" stroke="#F3B83F" stroke-width="2" /><text x="326" y="479" font-family="'WenQuanYi Zen Hei','Microsoft YaHei','PingFang SC','Segoe UI',sans-serif" font-size="12" font-weight="650" fill="#F4F7F4" text-anchor="start" >验证限制条件</text><text x="326" y="501" font-family="'WenQuanYi Zen Hei','Microsoft YaHei','PingFang SC','Segoe UI',sans-serif" font-size="10" font-weight="550" fill="#F3B83F" text-anchor="start" >下一步</text><circle cx="301" cy="566" r="10" fill="#1A201C" stroke="#6F7B73" stroke-width="2" /><text x="326" y="562" font-family="'WenQuanYi Zen Hei','Microsoft YaHei','PingFang SC','Segoe UI',sans-serif" font-size="12" font-weight="650" fill="#F4F7F4" text-anchor="start" >生成带来源总结</text><text x="326" y="584" font-family="'WenQuanYi Zen Hei','Microsoft YaHei','PingFang SC','Segoe UI',sans-serif" font-size="10" font-weight="550" fill="#6F7B73" text-anchor="start" >等待</text><rect x="280" y="747" width="104" height="40" rx="12" fill="#1A201C" stroke="#252D27" stroke-width="1" /><text x="332" y="772" font-family="'WenQuanYi Zen Hei','Microsoft YaHei','PingFang SC','Segoe UI',sans-serif" font-size="13" font-weight="650" fill="#F4F7F4" text-anchor="middle" >暂停任务</text><rect x="396" y="747" width="92" height="40" rx="12" fill="#F05F62" stroke="none" stroke-width="1" /><text x="442" y="772" font-family="'WenQuanYi Zen Hei','Microsoft YaHei','PingFang SC','Segoe UI',sans-serif" font-size="13" font-weight="650" fill="#FFFFFF" text-anchor="middle" >取消</text><rect x="542" y="144" width="560" height="684" rx="20" fill="#141916" stroke="#252D27" stroke-width="1" filter="url(#shadow)"/><rect x="562" y="164" width="520" height="44" rx="11" fill="#1A201C" stroke="none" stroke-width="1" /><circle cx="586.3333333333334" cy="183.33333333333334" r="5" stroke="#A8B3AC" stroke-width="2" fill="none"/><path d="m15 15 6 6" transform="translate(578 175) scale(0.8333333333333334)" stroke="#A8B3AC" stroke-width="2.4" fill="none" stroke-linecap="round" stroke-linejoin="round"/><text x="614" y="191" font-family="'WenQuanYi Zen Hei','Microsoft YaHei','PingFang SC','Segoe UI',sans-serif" font-size="12" font-weight="550" fill="#F4F7F4" text-anchor="start" >中文全双工语音模型 本地运行</text><rect x="936" y="171" width="126" height="30" rx="15" fill="rgba(76,141,255,.12)" stroke="none" stroke-width="1" /><circle cx="952" cy="186" r="4" fill="#4C8DFF" stroke="none" stroke-width="1" /><text x="963" y="191" font-family="'WenQuanYi Zen Hei','Microsoft YaHei','PingFang SC','Segoe UI',sans-serif" font-size="12" font-weight="600" fill="#4C8DFF" text-anchor="start" >BrowserView A</text><rect x="562" y="224" width="520" height="342" rx="14" fill="#F7F9FB" stroke="none" stroke-width="1" /><text x="586" y="264" font-family="'WenQuanYi Zen Hei','Microsoft YaHei','PingFang SC','Segoe UI',sans-serif" font-size="15" font-weight="700" fill="#111714" text-anchor="start" >搜索结果</text><circle cx="588" cy="305" r="5" fill="#9FD000" stroke="none" stroke-width="1" /><text x="606" y="309" font-family="'WenQuanYi Zen Hei','Microsoft YaHei','PingFang SC','Segoe UI',sans-serif" font-size="12" font-weight="650" fill="#111714" text-anchor="start" >BayLing-Duplex 技术报告</text><text x="606" y="333" font-family="'WenQuanYi Zen Hei','Microsoft YaHei','PingFang SC','Segoe UI',sans-serif" font-size="10" font-weight="400" fill="#627068" text-anchor="start" >实时语音对话与中英文支持</text><line x1="606" y1="353" x2="1048" y2="353" stroke="#DFE4E0" stroke-width="1" stroke-linecap="round"/><circle cx="588" cy="387" r="5" fill="#9FD000" stroke="none" stroke-width="1" /><text x="606" y="391" font-family="'WenQuanYi Zen Hei','Microsoft YaHei','PingFang SC','Segoe UI',sans-serif" font-size="12" font-weight="650" fill="#111714" text-anchor="start" >PersonaPlex 模型说明</text><text x="606" y="415" font-family="'WenQuanYi Zen Hei','Microsoft YaHei','PingFang SC','Segoe UI',sans-serif" font-size="10" font-weight="400" fill="#627068" text-anchor="start" >全双工、多角色语音与本地部署</text><line x1="606" y1="435" x2="1048" y2="435" stroke="#DFE4E0" stroke-width="1" stroke-linecap="round"/><circle cx="588" cy="469" r="5" fill="#9FD000" stroke="none" stroke-width="1" /><text x="606" y="473" font-family="'WenQuanYi Zen Hei','Microsoft YaHei','PingFang SC','Segoe UI',sans-serif" font-size="12" font-weight="650" fill="#111714" text-anchor="start" >Moshi 开源仓库</text><text x="606" y="497" font-family="'WenQuanYi Zen Hei','Microsoft YaHei','PingFang SC','Segoe UI',sans-serif" font-size="10" font-weight="400" fill="#627068" text-anchor="start" >流式语音生成、许可证与硬件需求</text><line x1="606" y1="517" x2="1048" y2="517" stroke="#DFE4E0" stroke-width="1" stroke-linecap="round"/><rect x="562" y="586" width="520" height="94" rx="14" fill="rgba(184,229,27,.08)" stroke="#B8E51B" stroke-width="1" /><text x="586" y="618" font-family="'WenQuanYi Zen Hei','Microsoft YaHei','PingFang SC','Segoe UI',sans-serif" font-size="10" font-weight="700" fill="#B8E51B" text-anchor="start" >当前动作</text><text x="586" y="649" font-family="'WenQuanYi Zen Hei','Microsoft YaHei','PingFang SC','Segoe UI',sans-serif" font-size="13" font-weight="650" fill="#F4F7F4" text-anchor="start" >读取 PersonaPlex 的硬件和许可证要求</text><text x="586" y="670" font-family="'WenQuanYi Zen Hei','Microsoft YaHei','PingFang SC','Segoe UI',sans-serif" font-size="10" font-weight="400" fill="#A8B3AC" text-anchor="start" >只读 DOM · 不提交表单 · 不写入文件</text><rect x="582" y="732" width="480" height="64" rx="32" fill="#141916" stroke="#252D27" stroke-width="1" filter="url(#shadow)"/><circle cx="615" cy="764" r="21" fill="#B8E51B18" stroke="#B8E51B" stroke-width="1.5" /><path d="M9 4v7a3 3 0 0 0 6 0V4zM5 11a7 7 0 0 0 14 0M12 18v3" transform="translate(605 754) scale(0.8333333333333334)" stroke="#B8E51B" stroke-width="2.4" fill="none" stroke-linecap="round" stroke-linejoin="round"/><text x="648" y="759" font-family="'WenQuanYi Zen Hei','Microsoft YaHei','PingFang SC','Segoe UI',sans-serif" font-size="13" font-weight="700" fill="#F4F7F4" text-anchor="start" >Speaking</text><text x="648" y="778" font-family="'WenQuanYi Zen Hei','Microsoft YaHei','PingFang SC','Segoe UI',sans-serif" font-size="10" font-weight="400" fill="#A8B3AC" text-anchor="start" >正在回应，开口即可打断</text><rect x="920" y="760" width="3" height="8" rx="2" fill="#B8E51B" stroke="none" stroke-width="1" /><rect x="928" y="756.5" width="3" height="15" rx="2" fill="#B8E51B" stroke="none" stroke-width="1" /><rect x="936" y="753" width="3" height="22" rx="2" fill="#B8E51B" stroke="none" stroke-width="1" /><rect x="944" y="759.5" width="3" height="9" rx="2" fill="#B8E51B" stroke="none" stroke-width="1" /><rect x="952" y="756" width="3" height="16" rx="2" fill="#B8E51B" stroke="none" stroke-width="1" /><rect x="960" y="752.5" width="3" height="23" rx="2" fill="#B8E51B" stroke="none" stroke-width="1" /><rect x="968" y="759" width="3" height="10" rx="2" fill="#B8E51B" stroke="none" stroke-width="1" /><rect x="976" y="755.5" width="3" height="17" rx="2" fill="#B8E51B" stroke="none" stroke-width="1" /><rect x="984" y="752" width="3" height="24" rx="2" fill="#B8E51B" stroke="none" stroke-width="1" /><rect x="992" y="758.5" width="3" height="11" rx="2" fill="#B8E51B" stroke="none" stroke-width="1" /><rect x="1000" y="755" width="3" height="18" rx="2" fill="#B8E51B" stroke="none" stroke-width="1" /><circle cx="1034" cy="764" r="15" fill="#1A201C" stroke="none" stroke-width="1" /><path d="M9 5v14M15 5v14" transform="translate(1025 755) scale(0.75)" stroke="#A8B3AC" stroke-width="2" fill="none" stroke-linecap="round" stroke-linejoin="round"/><rect x="1126" y="144" width="246" height="684" rx="20" fill="#141916" stroke="#252D27" stroke-width="1" filter="url(#shadow)"/><text x="1148" y="181" font-family="'WenQuanYi Zen Hei','Microsoft YaHei','PingFang SC','Segoe UI',sans-serif" font-size="14" font-weight="700" fill="#F4F7F4" text-anchor="start" >Session 实时记录</text><rect x="1140" y="204" width="218" height="346" rx="18" fill="#141916" stroke="#252D27" stroke-width="1" filter="url(#shadow)"/><line x1="1174" y1="258" x2="1174" y2="326" stroke="#252D27" stroke-width="2" stroke-linecap="round"/><circle cx="1174" cy="250" r="10" fill="#1A201C" stroke="#B8E51B" stroke-width="2" /><circle cx="1174" cy="250" r="4" fill="#B8E51B" stroke="none" stroke-width="1" /><text x="1196" y="245" font-family="'WenQuanYi Zen Hei','Microsoft YaHei','PingFang SC','Segoe UI',sans-serif" font-size="13" font-weight="650" fill="#F4F7F4" text-anchor="start" >用户目标</text><text x="1336" y="245" font-family="'WenQuanYi Zen Hei','Microsoft YaHei','PingFang SC','Segoe UI',sans-serif" font-size="10" font-weight="450" fill="#6F7B73" text-anchor="end" >14:20</text><text x="1196" y="268" font-family="'WenQuanYi Zen Hei','Microsoft YaHei','PingFang SC','Segoe UI',sans-serif" font-size="11" font-weight="400" fill="#A8B3AC" text-anchor="start"><tspan x="1196" dy="0">比较适合中文的全双工模型</tspan></text><line x1="1174" y1="336" x2="1174" y2="404" stroke="#252D27" stroke-width="2" stroke-linecap="round"/><circle cx="1174" cy="328" r="10" fill="#1A201C" stroke="#4C8DFF" stroke-width="2" /><circle cx="1174" cy="328" r="4" fill="#4C8DFF" stroke="none" stroke-width="1" /><text x="1196" y="323" font-family="'WenQuanYi Zen Hei','Microsoft YaHei','PingFang SC','Segoe UI',sans-serif" font-size="13" font-weight="650" fill="#F4F7F4" text-anchor="start" >AI 计划</text><text x="1336" y="323" font-family="'WenQuanYi Zen Hei','Microsoft YaHei','PingFang SC','Segoe UI',sans-serif" font-size="10" font-weight="450" fill="#6F7B73" text-anchor="end" >14:21</text><text x="1196" y="346" font-family="'WenQuanYi Zen Hei','Microsoft YaHei','PingFang SC','Segoe UI',sans-serif" font-size="11" font-weight="400" fill="#A8B3AC" text-anchor="start"><tspan x="1196" dy="0">搜索、阅读并验证来源</tspan></text><line x1="1174" y1="414" x2="1174" y2="482" stroke="#252D27" stroke-width="2" stroke-linecap="round"/><circle cx="1174" cy="406" r="10" fill="#1A201C" stroke="#F3B83F" stroke-width="2" /><circle cx="1174" cy="406" r="4" fill="#F3B83F" stroke="none" stroke-width="1" /><text x="1196" y="401" font-family="'WenQuanYi Zen Hei','Microsoft YaHei','PingFang SC','Segoe UI',sans-serif" font-size="13" font-weight="650" fill="#F4F7F4" text-anchor="start" >用户纠正</text><text x="1336" y="401" font-family="'WenQuanYi Zen Hei','Microsoft YaHei','PingFang SC','Segoe UI',sans-serif" font-size="10" font-weight="450" fill="#6F7B73" text-anchor="end" >14:24</text><text x="1196" y="424" font-family="'WenQuanYi Zen Hei','Microsoft YaHei','PingFang SC','Segoe UI',sans-serif" font-size="11" font-weight="400" fill="#A8B3AC" text-anchor="start"><tspan x="1196" dy="0">只保留可本地运行方案</tspan></text><circle cx="1174" cy="484" r="10" fill="#1A201C" stroke="#B8E51B" stroke-width="2" /><circle cx="1174" cy="484" r="4" fill="#B8E51B" stroke="none" stroke-width="1" /><text x="1196" y="479" font-family="'WenQuanYi Zen Hei','Microsoft YaHei','PingFang SC','Segoe UI',sans-serif" font-size="13" font-weight="650" fill="#F4F7F4" text-anchor="start" >当前步骤</text><text x="1336" y="479" font-family="'WenQuanYi Zen Hei','Microsoft YaHei','PingFang SC','Segoe UI',sans-serif" font-size="10" font-weight="450" fill="#6F7B73" text-anchor="end" >14:26</text><text x="1196" y="502" font-family="'WenQuanYi Zen Hei','Microsoft YaHei','PingFang SC','Segoe UI',sans-serif" font-size="11" font-weight="400" fill="#A8B3AC" text-anchor="start"><tspan x="1196" dy="0">读取 PersonaPlex 要求</tspan></text></svg>